<svg xmlns="http://www.w3.org/2000/svg" width="481.9" height="551.8" viewBox="0 0 481.9 551.8">
  <g id="katman_2" data-name="katman 2">
    <g id="katman_1-2" data-name="katman 1">
      <g>
        <g>
          <path d="M434.1,497A66,66,0,0,0,452,449c-1.2-29.7-15.8-29.4-15.8-29.4,7.8,6.8,9,30.7,9,30.7-11.4,21.6-39,16.4-39,16.4-35.9-5.9-47.1-3.7-47.1-3.7S331,476,313,471.3s-18-49.5-19.8-66.5a75,75,0,0,0-9.6-29.2c.9.7,7.1,1.3,7.1,1.3,16.7-7.8,36.9-54.2,36.9-54.2,4.6,7.1,19.1,2.8,19.1,2.8,15.5-12.1,20.2-8.1,20.2-8.1a9.8,9.8,0,0,0-10.5-4.9c1.5-1.3,11.7-3.1,11.7-3.1-10.8-9.6-19.5.9-25.1,3.1s-8.6-7.8-8.6-7.8c6.2-6.8.3-9.3.3-9.3a5.7,5.7,0,0,0-2.2-3.1c-1.5-4.3-4.6-3.4-4.6-3.4-2.8-3.4-12.1-4.9-12.1-4.9-4-.6-.9,3.1-.9,3.1l-1.6.6c-7.1-9-22,2.5-22,2.5l-.9-2.5c7.1-11.8,4-18.9,4-18.9-2.1-6.5-12.7-5.3-12.7-5.3,9.3-5.5,5.3-14.8,5.3-14.8-3.1-11.2,19.2-20.1,19.2-20.1,23.2-2.5,23.2-20.8,23.2-20.8.9-9-2.8-5.3-2.8-5.3-2.8,5-9.6,8.4-9.6,8.4-12.7-.3,2.5-13.6,2.5-13.6,20.1-7.8,20.7-18.9,20.7-18.9.7-4.7-4-13.3-4-14.3s0-10.8-2.1-13.9-8.7-7.7-8.7-7.7c-5.3-3.7-3.7,2.4-3.7,2.4.3,1.6,4,11.8,4,11.8-.6,12.4-7.1,8.1-7.1,8.1-5.3-6.8-7.8.9-7.8.9,1.3,2.5.3,14.9.3,14.9-8.9,4.9-6.8,5.8-6.8,5.8-4.3,14-8,12.1-8,12.1-14.3-1.2-8.7-21.7-8.7-21.7,7.1-12.7,7.1-16.7,7.1-16.7-3.7-7.7.6-11.7.6-11.7,7.8-4.4,10.9-14,10.9-14,2.5-7.7-2.2-12.1-2.5-11.1s-8,5.5-8,5.5c-10.3,2.2-11.8-12.3-5.3-17.3s9.9-17,9.9-17c3.1-18.9-9.3-17.1-9.3-17.1-20.1-6.5-6.5-22.6-6.5-22.6,5.9-5.8,5.9-10.5,4.3-12.4s-.3-7.1-.3-7.1c1-3.4-2.4-13.6-8.9-16.1a15.4,15.4,0,0,1-8.7-8l-1.6-9.6c-4,1.8-14.5,26-5.2,35s8.3,22.6,8.3,22.6c-3.7,4-9.6,20.4-9.6,20.4s.3,12.7-.6,23.2-12.1,12.1-13.6,34.7-12.1,31.3-12.1,31.3c-26,14.2-16.4,43-16.4,43-4.6,1.6-12.7,8.7-12.7,8.7a56.6,56.6,0,0,0-37.8,40.6C167.1,287.7,160,297,160,297l-7.4.6c-.9-3.7,4.9-16.7,4.9-16.7,5-13.9-8-11.8-8-11.8-9.3-.3-16.4-15.8-1.5-32.5s12.3-24.5,12.3-24.5c-4.9-8.9-1.8-12.7-1.8-12.7,16.4-21.3,13.9-25.3,13.9-25.3,3.1-18.6-4.6-15.2-4.6-15.2-11.2,4.9-13.7,2.5-13.7,2.5-14.8-9.6,7.2-24.8,7.2-24.8,4.9-5,3.7-14.6,3.7-14.6,6.2-8.9,6.5-13.6,6.5-13.6-2.5-13.3,2.2-14.9,2.2-14.9,1.2-8.3-4.7-2.7-4.7-2.7s-6.5,16.4-18.3,15.4h-.9c-10.9-.4-12.4,7.8-12.4,7.8.3,10.8-4.9,11.4-4.9,11.4-12.1,2.5-4.4-7.4-4.4-7.4,7.8-8.4,10.6-15.8,10.3-16.7s0-7.4,0-7.4a13.3,13.3,0,0,0,1.8-12.1c-.6-1.6-2.5-7.8-1.5-9a44.3,44.3,0,0,0,2.4-4s-7.4-5.9-8.6,4.9S117,88.9,117,88.9c-11.8,3.4-12.4,9.3-12.4,9.3-.3,26-9.3,23.5-9.3,23.5-12.1.6-10.8-16.1-10.8-16.1A162.3,162.3,0,0,1,99,94.5c9-6.2,8.4-18.3,0-23.3s-6.8-5.5-6.8-5.5A14,14,0,0,0,80.8,53S66.5,49,68.4,38.1,65,25.4,65,25.4c-9.9-.3-10.3-6.2-10.3-6.2-3.1-7.7,0-11.4-9.9-16.7l-.7-.4c-9.1-4.6-7.3.7-7.3.7s12.1,9,6.5,27.6S53.5,62.6,53.5,62.6C68.1,75.3,73.3,97.9,73.3,97.9s3.7,18.9-4,30-5.6,21.4-5.6,21.4c-1.2,12.7,21.4,32.5,21.4,32.5l2.8,7.1,4.9,7.4c1,7.8-6.8,2.5-6.8,2.5-4-6.8-6.8-5.5-6.8-5.5-7.4,6.1,1.6,18.5,1.6,18.5,8,7.2,6.1,9.9,6.1,9.9-2.1,19.5,3.8,24.8,3.8,24.8l14.5,15.8c1.6.9,1.6,22.9,1.6,22.9-1.3,13.6,13.6,17.7,13.6,17.7-8.1.9-14.6,10.5-14.6,10.5-10.2-16.4-1.8-25.1-4.6-36.8s-7.7-5-7.7-5c-3.8,12.1-12.7,9.3-13.7-3.4s-10.5-5-10.5-5c-10.2,1.3-4-15.4-1.2-21.9a53.7,53.7,0,0,0,3.4-12.7c1.5-10.3-6.5-6.2-6.5-6.2-8.4,4.3-1.6-6.5-1.6-6.5,7.1-7.5,5.9-19.9,5.9-19.9s-2.8-4.9-1.6-10.5-8.3-12.1-11.1-11.8a79.7,79.7,0,0,0-9.6,2.8c-18-4.6-12.7-31.2-12.7-43.6S20.7,109.3,16,98.8s1.9-20.4,1.9-20.4c-2.2-4.4-8.1,4-8.1,4-2.1,7.4-3.1,8-3.1,8C.2,95.4.2,101.3.2,101.3a29.6,29.6,0,0,1,1.9,13.6c-1.2,9.3,23.8,23.9,23.8,23.9s.4,9.2-10.2,18.2,1.6,24.5,1.6,24.5c30.6,40.9,23.5,48.6,23.5,48.6L34,232.3c-10.5,8.3-.9,13.3-.9,13.3s7.1,3.7,0,10.8-11.8-3.1-13-5.9-2.2-8-8.1-.9-2.5,11.5-2.5,11.5,5.3,2.8,3.4,6.8,3.1,5.9,3.1,5.9c3.1,5.8-1.8,4.9-1.8,4.9-13.3,4,.9,13.6.9,13.6s10.2,4.1,9.3,10.6,8.7,16.7,8.7,16.7L51.6,345c-9.9,8.7,0,13.9,0,13.9s9.6-.6,7.5,4.4a10.7,10.7,0,0,0,.3,9.2l12.4,12.1c-14,9.3-18-8-20.8-10.8s-14.2,17,4.1,23.2S77,410.6,77,410.6c5.6,10.9,24.8,20.8,24.8,20.8-19.8-.9-27.9,3.1-27.9,3.1l-14.8,9c-10.9-3.8-14.6,8.9-17.4,8.9s-7.4,5.6-7.4,5.6c-8.4-.3-8.7,9.3-8.7,9.3,3.1,12.4,32.2,25.4,32.2,25.4,2.2,4,22.6,10.5,22.6,10.5,11.5,1.9,34.7,15.5,34.7,15.5,32.2,14.6,44.9,7.4,44.9,7.4,19.2-4,43.4.7,43.4.7,83.9,2.7,100.3-23.9,100.3-23.9,34.1,52,83.6,48.6,83.6,48.6s35.9-.9,46.8-15.5,47.4-8.3,47.4-8.3C470,504.5,434.1,497,434.1,497Zm-322-177-3.1-3.2v-.2s7.4-5.9,10.6-4.4Zm30.1,106.6-5.5-.8-3.4-20.1c3.3,3.3,18.3,3,18.3,3s2.2,3.6,2.2,3.6C150.4,414.3,142.2,426.6,142.2,426.6Zm104.6,13h-.2l10.2-13.7s10.8,17.9,10.8,18.2S250.2,438.8,246.8,439.6Zm17.6-116.2s20.8,3.7,46.7-26.1c0,0,0,8.3,1.2,12.8s3.8,7.2,3.6,8.4-5.4,8.7-9.9,11.3-20.6,20.5-20.6,20.5S267.2,334.7,264.4,323.4Z"/>
          <path d="M434.1,497A66,66,0,0,0,452,449c-1.2-29.7-15.8-29.4-15.8-29.4,7.8,6.8,9,30.7,9,30.7-11.4,21.6-39,16.4-39,16.4-35.9-5.9-47.1-3.7-47.1-3.7S331,476,313,471.3s-18-49.5-19.8-66.5a75,75,0,0,0-9.6-29.2c.9.7,7.1,1.3,7.1,1.3,16.7-7.8,36.9-54.2,36.9-54.2,4.6,7.1,19.1,2.8,19.1,2.8,15.5-12.1,20.2-8.1,20.2-8.1a9.8,9.8,0,0,0-10.5-4.9c1.5-1.3,11.7-3.1,11.7-3.1-10.8-9.6-19.5.9-25.1,3.1s-8.6-7.8-8.6-7.8c6.2-6.8.3-9.3.3-9.3a5.7,5.7,0,0,0-2.2-3.1c-1.5-4.3-4.6-3.4-4.6-3.4-2.8-3.4-12.1-4.9-12.1-4.9-4-.6-.9,3.1-.9,3.1l-1.6.6c-7.1-9-22,2.5-22,2.5l-.9-2.5c7.1-11.8,4-18.9,4-18.9-2.1-6.5-12.7-5.3-12.7-5.3,9.3-5.5,5.3-14.8,5.3-14.8-3.1-11.2,19.2-20.1,19.2-20.1,23.2-2.5,23.2-20.8,23.2-20.8.9-9-2.8-5.3-2.8-5.3-2.8,5-9.6,8.4-9.6,8.4-12.7-.3,2.5-13.6,2.5-13.6,20.1-7.8,20.7-18.9,20.7-18.9.7-4.7-4-13.3-4-14.3s0-10.8-2.1-13.9-8.7-7.7-8.7-7.7c-5.3-3.7-3.7,2.4-3.7,2.4.3,1.6,4,11.8,4,11.8-.6,12.4-7.1,8.1-7.1,8.1-5.3-6.8-7.8.9-7.8.9,1.3,2.5.3,14.9.3,14.9-8.9,4.9-6.8,5.8-6.8,5.8-4.3,14-8,12.1-8,12.1-14.3-1.2-8.7-21.7-8.7-21.7,7.1-12.7,7.1-16.7,7.1-16.7-3.7-7.7.6-11.7.6-11.7,7.8-4.4,10.9-14,10.9-14,2.5-7.7-2.2-12.1-2.5-11.1s-8,5.5-8,5.5c-10.3,2.2-11.8-12.3-5.3-17.3s9.9-17,9.9-17c3.1-18.9-9.3-17.1-9.3-17.1-20.1-6.5-6.5-22.6-6.5-22.6,5.9-5.8,5.9-10.5,4.3-12.4s-.3-7.1-.3-7.1c1-3.4-2.4-13.6-8.9-16.1a15.4,15.4,0,0,1-8.7-8l-1.6-9.6c-4,1.8-14.5,26-5.2,35s8.3,22.6,8.3,22.6c-3.7,4-9.6,20.4-9.6,20.4s.3,12.7-.6,23.2-12.1,12.1-13.6,34.7-12.1,31.3-12.1,31.3c-26,14.2-16.4,43-16.4,43-4.6,1.6-12.7,8.7-12.7,8.7a56.6,56.6,0,0,0-37.8,40.6C167.1,287.7,160,297,160,297l-7.4.6c-.9-3.7,4.9-16.7,4.9-16.7,5-13.9-8-11.8-8-11.8-9.3-.3-16.4-15.8-1.5-32.5s12.3-24.5,12.3-24.5c-4.9-8.9-1.8-12.7-1.8-12.7,16.4-21.3,13.9-25.3,13.9-25.3,3.1-18.6-4.6-15.2-4.6-15.2-11.2,4.9-13.7,2.5-13.7,2.5-14.8-9.6,7.2-24.8,7.2-24.8,4.9-5,3.7-14.6,3.7-14.6,6.2-8.9,6.5-13.6,6.5-13.6-2.5-13.3,2.2-14.9,2.2-14.9,1.2-8.3-4.7-2.7-4.7-2.7s-6.5,16.4-18.3,15.4h-.9c-10.9-.4-12.4,7.8-12.4,7.8.3,10.8-4.9,11.4-4.9,11.4-12.1,2.5-4.4-7.4-4.4-7.4,7.8-8.4,10.6-15.8,10.3-16.7s0-7.4,0-7.4a13.3,13.3,0,0,0,1.8-12.1c-.6-1.6-2.5-7.8-1.5-9a44.3,44.3,0,0,0,2.4-4s-7.4-5.9-8.6,4.9S117,88.9,117,88.9c-11.8,3.4-12.4,9.3-12.4,9.3-.3,26-9.3,23.5-9.3,23.5-12.1.6-10.8-16.1-10.8-16.1A162.3,162.3,0,0,1,99,94.5c9-6.2,8.4-18.3,0-23.3s-6.8-5.5-6.8-5.5A14,14,0,0,0,80.8,53S66.5,49,68.4,38.1,65,25.4,65,25.4c-9.9-.3-10.3-6.2-10.3-6.2-3.1-7.7,0-11.4-9.9-16.7l-.7-.4c-9.1-4.6-7.3.7-7.3.7s12.1,9,6.5,27.6S53.5,62.6,53.5,62.6C68.1,75.3,73.3,97.9,73.3,97.9s3.7,18.9-4,30-5.6,21.4-5.6,21.4c-1.2,12.7,21.4,32.5,21.4,32.5l2.8,7.1,4.9,7.4c1,7.8-6.8,2.5-6.8,2.5-4-6.8-6.8-5.5-6.8-5.5-7.4,6.1,1.6,18.5,1.6,18.5,8,7.2,6.1,9.9,6.1,9.9-2.1,19.5,3.8,24.8,3.8,24.8l14.5,15.8c1.6.9,1.6,22.9,1.6,22.9-1.3,13.6,13.6,17.7,13.6,17.7-8.1.9-14.6,10.5-14.6,10.5-10.2-16.4-1.8-25.1-4.6-36.8s-7.7-5-7.7-5c-3.8,12.1-12.7,9.3-13.7-3.4s-10.5-5-10.5-5c-10.2,1.3-4-15.4-1.2-21.9a53.7,53.7,0,0,0,3.4-12.7c1.5-10.3-6.5-6.2-6.5-6.2-8.4,4.3-1.6-6.5-1.6-6.5,7.1-7.5,5.9-19.9,5.9-19.9s-2.8-4.9-1.6-10.5-8.3-12.1-11.1-11.8a79.7,79.7,0,0,0-9.6,2.8c-18-4.6-12.7-31.2-12.7-43.6S20.7,109.3,16,98.8s1.9-20.4,1.9-20.4c-2.2-4.4-8.1,4-8.1,4-2.1,7.4-3.1,8-3.1,8C.2,95.4.2,101.3.2,101.3a29.6,29.6,0,0,1,1.9,13.6c-1.2,9.3,23.8,23.9,23.8,23.9s.4,9.2-10.2,18.2,1.6,24.5,1.6,24.5c30.6,40.9,23.5,48.6,23.5,48.6L34,232.3c-10.5,8.3-.9,13.3-.9,13.3s7.1,3.7,0,10.8-11.8-3.1-13-5.9-2.2-8-8.1-.9-2.5,11.5-2.5,11.5,5.3,2.8,3.4,6.8,3.1,5.9,3.1,5.9c3.1,5.8-1.8,4.9-1.8,4.9-13.3,4,.9,13.6.9,13.6s10.2,4.1,9.3,10.6,8.7,16.7,8.7,16.7L51.6,345c-9.9,8.7,0,13.9,0,13.9s9.6-.6,7.5,4.4a10.7,10.7,0,0,0,.3,9.2l12.4,12.1c-14,9.3-18-8-20.8-10.8s-14.2,17,4.1,23.2S77,410.6,77,410.6c5.6,10.9,24.8,20.8,24.8,20.8-19.8-.9-27.9,3.1-27.9,3.1l-14.8,9c-10.9-3.8-14.6,8.9-17.4,8.9s-7.4,5.6-7.4,5.6c-8.4-.3-8.7,9.3-8.7,9.3,3.1,12.4,32.2,25.4,32.2,25.4,2.2,4,22.6,10.5,22.6,10.5,11.5,1.9,34.7,15.5,34.7,15.5,32.2,14.6,44.9,7.4,44.9,7.4,19.2-4,43.4.7,43.4.7,83.9,2.7,100.3-23.9,100.3-23.9,34.1,52,83.6,48.6,83.6,48.6s35.9-.9,46.8-15.5,47.4-8.3,47.4-8.3C470,504.5,434.1,497,434.1,497Zm-322-177-3.1-3.2v-.2s7.4-5.9,10.6-4.4Zm30.1,106.6-5.5-.8-3.4-20.1c3.3,3.3,18.3,3,18.3,3s2.2,3.6,2.2,3.6C150.4,414.3,142.2,426.6,142.2,426.6Zm104.6,13h-.2l10.2-13.7s10.8,17.9,10.8,18.2S250.2,438.8,246.8,439.6Zm17.6-116.2s20.8,3.7,46.7-26.1c0,0,0,8.3,1.2,12.8s3.8,7.2,3.6,8.4-5.4,8.7-9.9,11.3-20.6,20.5-20.6,20.5S267.2,334.7,264.4,323.4Z" style="fill: none;stroke: #000;stroke-width: 0.4837196655467724px"/>
        </g>
        <path d="M39.2,2.3s9.4,1,11.6,7.2,2,13.7,7.1,16.5,6.2.9,7.7,2.7,2.4,3.4,1.9,10.8S70.7,50.1,84,56c0,0,4.7,3,6.9,10.6,0,0-.7.7,10.6,9.6s-19.9,30-19.9,30-2.7,2-6.7,10.4l.5-11.1s3-1.2,3.7-19.5S60.6,54.8,55.2,39,52,12.4,39.2,2.3Z" style="fill: #66bb92"/>
        <path d="M42.2,6.7s6.9,7.4,7.9,17.8,8.3,27.3,22.1,44.1c0,0,10.9,11.8,3.2,34.2,0,0,.3-24.1-22.9-44.3,0,0-14-13.6-7.4-32.1C45.1,26.4,48.6,17.6,42.2,6.7Z" style="fill: #00664e"/>
        <path d="M83.8,106s-6.7,5.9-6.2,10.8,12.8,21.7,31.6,34.3,25.8,39.1,24.6,49.2-15.5,73.6.2,97.8c0,0,13.3,0,16.8-.5,0,0-1-5.7,3.4-12.3s5.9-16.5-3.7-14.6-15-15.5-12.5-18.7c0,0,3.9-13.3,18.2-30.3,0,0,5.7-7.4.5-15.7s15-22.9,14.3-34,.2-13.8-9.1-9.6-16.1-5.4-13.6-13.3,11.6-15,11.6-15,3.9-4,3.2-12.4c0,0,5.9-8.8,6.9-10.8s-1.7-9.3-.3-12.1a39.6,39.6,0,0,0,2.7-7.1s-.2-3.2-3.6.7-1.3,12.8-21.2,15.8c0,0-9.6-1-9.4,12.8s-21.7,6.7-13.5-1.7,11.1-13.6,11.1-13.6,2.2-6.4,1.4-10.5c0,0,4.5-13.1,1-15.3s-.2-9.9.8-10.1-2-3-3-1.5S132.5,82.1,124.7,87s-19,4-19.2,15.3-1,18.7-10.1,20.9S81.8,111.7,83.8,106Z" style="fill: #66bb92"/>
        <path d="M76.5,116.6s7.4,21.6,33.3,37.2,21.1,56.4,21.1,56.4l-6.1,42.7s-.5,34.9,8,45.2c0,0-10.6,3.2-11.1,3.6s-15-4.4-13.7-19.2-.3-25.1-6.7-28.2S84.5,239,88.4,222.1c0,0,2.6-5-7.9-13.7,0,0-6.8-10.3-.3-13.7,0,0,6.4,8.2,10.6,7.1s3.7-4.7,3.7-6.1-5.6-6-5.3-8.4-4.2-8.9-4.2-8.9S63.6,160.1,65,147,74.2,128.5,76.5,116.6Z" style="fill: #00664e"/>
        <path d="M13.2,91.1s-6.8,11,7.8,26.1c0,0,10,9.3,11.3,15.3,0,0,2.7-6.1-9.7-20.9S13.2,91.1,13.2,91.1Z" style="fill: #00664e"/>
        <path d="M16.7,78.2S11.5,77.8,8,89.9a13.8,13.8,0,0,1-2.8,3.4,12.2,12.2,0,0,0-2.3,13.3c2.5,6.6-2.3,11.8,6.6,17.9s21.8,13.8,22.7,19.8,2.4-14.6-8.1-22-17-21.7-10.9-34.4S16.7,78.2,16.7,78.2Z" style="fill: #66bb92"/>
        <path d="M27.1,139.8s3,1.8,2.6,3.8-5.9,9.4-6.3,21.5,4.9,17.7,4.9,17.7-17.9-10-15.5-17.9,8.2-10,11.2-15.4A25.6,25.6,0,0,0,27.1,139.8Z" style="fill: #66bb92"/>
        <path d="M30.3,144.5S8.8,180.9,47.7,189.1c0,0,18.9,2.6,7.2,32.2,0,0-6,16.8-2.4,40.2s12.1,47.3,18.7,54.6,23.2,26.7,30.9,33.4,24.2,26.9,23.6,33.5c0,0,11.2,2.7,10.3-9s-18.6-23.1-16.2-40.9l-.8-.6s-1,22.4-3.2,25.1a35.5,35.5,0,0,0-6.1-14.8s-5.2-11.8,2.2-21.6l-3.9-4s-4.6,5.7-4.7,6.1a27.4,27.4,0,0,1,2.1-8s-7.7-12.2-6.1-18.7,1.2-29.8-3.8-25.3c0,0-10,21-16.6.1,0,0-1.3-13.1-6.8-7.9s-11-3.8-10.1-8.4,5.5-16.7,5.5-16.7,6.8-18.6-1.7-15.2c0,0-7.3,4.8-5.9-3s6.7-8.5,7.5-18.7S65,192.2,65.9,187s-5.3-15.8-16.7-9.7S30.5,157.7,32,147.9C32,147.9,32.3,143.5,30.3,144.5Z" style="fill: #00664e"/>
        <path d="M15.8,174.8S29.6,193,34.7,202.2s8.6,21.2,7.8,26-.2.4-.2.4,15-14.6,15.5-24.5c0,0,.7-3.8-1.3-6.5S53,190,33.8,186.7A48.4,48.4,0,0,1,15.8,174.8Z" style="fill: #00664e"/>
        <path d="M53.5,218.6s-8.9,13-18.9,15.4S36,245.7,37,247.4s3.1,9.3-6.9,12.1c0,0-6.8,4.4-12-10,0,0-1-5.9-6.5,2.4,0,0-5.5,5.1,2.4,10.3,0,0,1.7,2.4,1,4.1s-1,4.1,1.4,5.9,4.1,6.5,0,7.5c0,0-13.1,1.4-2.4,8.6,0,0,6.9,3.8,10.3,8.9s3.4,20.3,23.7,22.4c0,0-11-30.9-3.8-60.8S53.5,218.6,53.5,218.6Z" style="fill: #66bb92"/>
        <path d="M49.7,242.6s-12.7,36.8-.3,77c0,0,22-.4,25.4,23S93,391.7,93,391.7s4.8,15.8,16.2,23.1S126,426.4,126,426.4l9.6-.3s-4.5-17.9-3.8-20.6c0,0-9.9-5.5-8.2-11.4,0,0-12-8.9-5.9-18.9,0,0,5.2,8.6,6.6,7.3s-10.7-22.4-23-31.3-47.1-38.8-51.2-94.5Z" style="fill: #66bb92"/>
        <path d="M65.4,327.2s2.8,9.9-11.3,17.2c0,0-12.6,10.3,1.1,13.4,0,0,8.4,1.1,4.6,9,0,0-2.2,4.7,11.5,3.1,0,0,10.4-.9,17.4,18.5l2.2,3.6s-15-34.4-15-38.4C75.9,353.6,71.7,328.3,65.4,327.2Z" style="fill: #66bb92"/>
        <path d="M28.3,310s8.2,10.6,21.2,11.7,15,6.6,15,6.6,1.1,8.3-12.2,15.4C52.3,343.7,34.1,317.2,28.3,310Z" style="fill: #00664e"/>
        <path d="M61.2,372.3s10.5,8,11,10.6.2.7.2.7,6-7.7-.2-12.4c0,0-10.8,1.4-11.5-.2Z" style="fill: #00664e"/>
        <path d="M75.1,372.3s5,8.9-4.5,14.4-15.8-1.3-19.4-11c0,0-2.4-4.7-4.1,4.6,0,0-4.4,12.1,13,16.7s22.7,17.7,22.7,17.7,14.3,15.6,23.5,15.4.7.2.7.2l17.2-2.8A181.3,181.3,0,0,0,105.9,414c-11.7-7.7-17.8-24.2-17.8-24.2S81.9,373.5,75.1,372.3Z" style="fill: #66bb92"/>
        <path d="M269.2,67.3s-3.9,5.3-4.6,19.8-.4,19.6-6.4,27.6-8.6,25.8-8.8,28-4,20.4-8.8,23.4l-.2.2c-4.9,2.4,36.3-15.9,33.7-43,0,0-2.9-9.1,7.5-14.8,0,0,13-11.5-2.2-20C279.4,88.5,269.7,87.6,269.2,67.3Z" style="fill: #00664e"/>
        <path d="M265.9,7.8s-9.4,21.8.9,29.1A17,17,0,0,1,274.1,55s-5.3,19.8-2.2,24.2c0,0,5.3-22,5.5-30s-3.1-22.5-6.8-27.3S265.9,7.8,265.9,7.8Z" style="fill: #00664e"/>
        <path d="M268.8,3.4s-4.9,3.5,2.2,16.9,7.7,20.5,7.3,32.4-6,25.8-5.3,28.5,4.6,6.8,12.5,9.7c0,0,4.7,2.8,1.8,12.1s-10.6,5.7-12.8,16.5c0,0,2.7,15.9-3.9,23.2,0,0,1.9.4,3.3,20.7s-8,38.8-8,38.8,11.9,6.2,10.2,14.3-11.7,17.9-11.7,17.9-5.5,7.5-4,14.7-.2,15.5,18.1,14.1c0,0,9.9-1.7,7-18.5s30.2-17.8,35.5-23.6,6.4-16.3,6.6-17.1-10.1,13.4-16,6.1c0,0-6.7-8.1,17.1-19.4,0,0,18.1-9,5.8-26,0,0-.2-7.5-.5-12.1,0,0-5.7-8.8-10.3-9.7,0,0-3.1-.2,3.1,11.7,0,0,4.6,9-5.5,12.5,0,0-5.8.3-6.2-4.1,0,0-4-1.1-2.7,6.8,0,0,2.2,11-2.8,13s-4.9,7-5.1,7.9-2.4,9.7-9.9,9.5-12.1-11.9-9.1-21.6,6-9.7,7.8-17.8c0,0-1.4-6.4-1.6-8.6s6.2-7.3,7.7-9.1,7.8-6.6,5.1-18.3c0,0-1.5-.6-3.1,1.6,0,0-9,11-16.1-2.2a17.6,17.6,0,0,1,5.3-15.7c7.3-7,13.2-28.2,2.7-29.5s-13.5-3.8-14.6-14.1c0,0-2-4.2,8.4-15.5a5.7,5.7,0,0,0-.2-7.9s-.7-2.2,0-6.8A20.3,20.3,0,0,0,277,19C267.3,13.1,268.8,3.4,268.8,3.4Z" style="fill: #66bb92"/>
        <path d="M221,211.1s-8.5-29,18.4-41.2,31.2-24,31.2-24,4.8,33.6-5.9,55.8a40.8,40.8,0,0,0-14-3.9s-7-.2-17.2,10.9A21,21,0,0,0,221,211.1Z" style="fill: #00664e"/>
        <path d="M274.6,215.6s-3-15.8-24.5-16c0,0-10.9.8-22,18.2l-9.3,10.6,12.8-17.7s-21.5-1.6-33.2,28.8c0,0,3-12.2,7.6-17.1,0,0-19.8,7.9-29.1,23.4s-7.3,43.5-15.2,50.6c0,0,15.5.8,24.2-21,0,0-2.7,22.9-31.5,23.7,0,0-43.5-2.2-47.3,16.9,0,0,8.1-7.1,14.9-5.5l5.4-3s-16.3,9.5-17.6,26.4c0,0-.6,5.7,6.2,18.5s.3.8.3.8-3.8-14.7,3.8-23.4c0,0,3.3-20.4,27.7-21.5,0,0-25.2,1.1-26.6,26.7,0,0-1.1,9.5,14.1,32.6,0,0,6.6,17.2-7,17.2,0,0-5.7,1.4-10.4-7.1,0,0-3,15.7,16.3,18.7l-10-1.9S128,410,150.3,406c0,0-5.7-21,16.6-19.6,0,0,8.4-.3,14.4,4.9,0,0,8.1-10.4,9.2-17.2s5.2-22.5,7.4-23.9c0,0-3-9,2.1-10.9l.6-6.5s-7.1,3-16.3,17.7l-10.6,15.2s14.4-27.7,26.1-34.2c0,0,5.7-4.9,17.7-9s11.1-9.8,11.1-9.8l-7.9-.3-9-10A49.7,49.7,0,0,1,197.9,316s-20.4,6.5-25.3,31c0,0,2.4-16.1,12.5-24.8s10.1-5.2,14.7-8.7,10.9-11.7,10.9-11.7l-1.1-1.9s-5.5,6.3-6.6,7.1-15.2,6.8-25,13.8-6.8,9.6-6.8,9.6-3-6.6,16.9-17.2,13.9-4,20.4-14.4c0,0-4.9-6.2-2.7-6.5l4,.5s-1.6-5.9-2.4-7.6c0,0,.5-2.7,2.4-1.1s.9-.2.9-.2,1.6-2.2,2.7-.8.2-1.1.2-1.1l.6-12.8s-7.4,9.5-15.2,11.4c0,0,3.8-5.2,6.5-8.7s7.6-13.3,8.7-18.5.8-1.1.8-1.1-3,16.3-13,25.9c0,0,11.4-7.9,18.2-20.2s9.5-22.5,16.3-25.8c0,0,2.2-8.4,7.6-12.8,0,0-9,11.4-9.5,29.7,0,0,10.3-31.9,28.5-33.2,0,0,6.8.8,3.3,9.5,0,0,2.2-9.2-4.1-7.6,0,0,5.7,7.1-9.8,20.4l1.1,2.7S273.2,227.9,274.6,215.6Z" style="fill: #ee0024"/>
        <path d="M230,218.9s13-19.9,25.8-15.2c0,0,6,.2,9,1.9s-10.6-5.2-22.6,6.2c0,0,9.5-7.3,12.2-7.6S243.6,201.2,230,218.9Z"/>
        <path d="M216.1,233.6S204.4,239,203,270.5c0,0,2.5,17.2-22.8,33.8,0,0-6.5,5.4-11.4,16.8,0,0,7.3-15.5,11.1-18.5s21.5-18.2,21.8-28S203.9,237.4,216.1,233.6Z"/>
        <path d="M252,237.1s-3.6-7.3-5.7-7.3c0,0,8.4-12.8,14.7-11.5C261,218.3,265.3,227,252,237.1Z" style="fill: #7d0013"/>
        <path d="M235.9,234.1s-4.6,3.5-9.7,15.8-11.5,17.4-11.5,17.4l.6,14.1L221,285l-1.9.8,2.7,1.9s-1.6,2.4-2.4,2.1,8.9,12.8,21.2,9.8c0,0,11.4-1.9,13.3,2.8,0,0,6.5.8,7.1-6.6a38.8,38.8,0,0,1,3.2-10.3s4.6-14.7-2.4-19.6-9-14.1-8.5-19c0,0-1.9-2.2-7-.6,0,0-5.2-1-4.4-2.7a15.5,15.5,0,0,0,4.4,1.1l7,.3s-1.6-10.1-7-15.2c0,0-3.8,3.5-7.6,12.7s-6.6,10.9-6.6,10.9l1.4-6.2Z" style="fill: #f7d8ba"/>
        <path d="M217.2,272.2s.3-9,7.6-14.7c0,0,4.6-5.7,5.4-6s-1.6,4.6-4.6,7.1S218.3,266.2,217.2,272.2Z"/>
        <path d="M231.2,265.2s4.6,5.8,4.4,9.7c0,0,2-.7,2.5-1.8s-3.1,8.5-16.7,6.9C221.4,280,221.1,267.7,231.2,265.2Z"/>
        <path d="M224.6,271s-2.7,4.6-2.7,8.3c0,0,7.4,1.9,12.9-3.4v-2.4a4.2,4.2,0,0,1-4.6,1.9C227.1,274.8,224.6,271,224.6,271Z" style="fill: #fff"/>
        <path d="M225.3,270.3s3,4.7,6.4,4.2,2.5-2.8,2.5-2.8l-.9-.4s.1,1.9-2.2,1-4.9-2.6-4.4-3.4l-1.4,1.1Z" style="fill: #4ebdd7"/>
        <path d="M228.3,268.2s-1.5,1.9,1.8,2.5C230.1,270.7,231.2,268.4,228.3,268.2Z" style="fill: #fff"/>
        <path d="M233.3,260.4l-1.8,4.7s-5.6,2.1-7.6,5.8-.3,0-.3,0,.4.3,0-4.2,0-1,0-1l.7,3.8a8.6,8.6,0,0,0,1.8-5.7c0-3.8.4-.9.4-.9s1,1.8.5,3.1,1.1-.3,1.1-.3a21.8,21.8,0,0,0,1.5-5c.3-2.4.7-.7.7-.7s.8,2.2,0,3.6,2.3-3.1,2.3-3.1Z"/>
        <path d="M245.3,255.3s1.2,5.4,2.1,10.5c0,0-.2,4.4,8.5,6.3,0,0,2.7,2.6-.2,7.9l-.6-1,.6-.6s1-2.4.6-3.9.4-1.2-4.9-3.2C251.4,271.3,244.9,270.2,245.3,255.3Z"/>
        <path d="M246.5,258.4l3.1-5.3.8-2.9s.8,1.5.4,2.1,1.9-.8,1.9-3.9.8.8.8.8.2,2.5-.6,2.9a14,14,0,0,0,3-2.9c1.3-2.2.4,2.9-3.4,4.7l-.4.8s1.8,2.1,3.6,7.8l.4-.8a8.4,8.4,0,0,1-6.7,7.1s-2.7-1.4-2.6-5.5C246.8,263.3,244.5,260,246.5,258.4Z"/>
        <path d="M249.9,255.5s.2,2.8,1.3,2.7S250.7,255.4,249.9,255.5Z" style="fill: #fff"/>
        <path d="M248,256.2l-.8,1.2s1,4.1,3.8,4.3,3.1,0,3.7-.6-.4-.9-.4-.9-4.3.7-4.5-.8Z" style="fill: #4ebdd7"/>
        <path d="M255.1,262.7s-3.2,5.9-6.5,5.3c0,0-2.7-3.9-1.8-7.5l.2-1.9s-.5,3.9,4.9,3.9Z" style="fill: #fff"/>
        <path d="M250.3,282.2l.3-.6s-1.5.4-1.5-1.6c0,0-.4-1.5.3-2s.2-.2.2-.2l-1.2.2s-1.2,4.5,1.8,4.3"/>
        <path d="M253.5,279.4h-1.9l-.9,1.1s-.7.5.1.6a2.3,2.3,0,0,0,1.8-.4,7.4,7.4,0,0,0,.9-1.2"/>
        <path d="M240.9,293.6s-1.5-2,.7-2.8a6.5,6.5,0,0,0,3-2.6l.2,1.5s9.9.2,15.1-6.9a3.1,3.1,0,0,1-.2,3.7s.2,7.1-8.2,7.9a14.3,14.3,0,0,1-9.1-2.8l-1,.7Z"/>
        <path d="M244.8,292.1h.1c.5.3,4.7,2.3,8.7,1a8.1,8.1,0,0,0,5.4-5.3s-.4-1-1.4.1S252.3,293.2,244.8,292.1Z" style="fill: #c40d35"/>
        <path d="M247.8,291.2s7.9-.5,11.7-6.2c0,0,.4-1.3-1.4.3a21.8,21.8,0,0,1-9.4,4.6C243.6,290.7,247.8,291.2,247.8,291.2Z" style="fill: #c40d35"/>
        <path d="M260.9,236.6s-5.2,5.2-6.2,5.5-1.4,17.9,8.1,23.2,2.3,23.1,2.3,23.1-1.7,2.6-3,9.1-6.2,6.3-6.9,6.1l7.7,17.6s19.5-.7,31.4-10.8l18.6-16.3-.6-1.7s3.6-3.4,6.9-2.9.5-.5.5-.5-8.6-5-21.7,9.2c0,0,7.2-10.4,13.6-10.4,0,0-1.2-3.4-6.7-2.5s-13.7,8.7-21.8,9.9c0,0-7.7.6-10.7-7.8,0,0,2.1,5.8,9.8,6.4s8.3-2.9,8.3-2.9-4.4-6.3-.6-12l.6-.2-.5,2.1a9.1,9.1,0,0,0,.1,4s9.8-16.9-2.1-19.7c0,0-3.5-2-13.6-.1,0,0-17.5,1.4-16.1-16.3C258.3,248.7,258.7,240.5,260.9,236.6Z" style="fill: #ee0024"/>
        <path d="M258.9,310.7s4.6,4.8,15,4.3a30.9,30.9,0,0,0,17.2-5.9s-10.5,4.4-17.5,4.5S258.9,310.7,258.9,310.7Z"/>
        <path d="M315.6,286.8s-2.9-2.9,2.1-1.8a24,24,0,0,1,7.6,3.1l-4.7.6S317.1,286.4,315.6,286.8Z" style="fill: #f7d8ba"/>
        <path d="M314.6,292.8s2.9-3.1,5.4-2.8,7.4-2.3,11.1.8c0,0,.9.6-5.6,1.2,0,0-6,1.9-7.2,2.1S314.6,292.8,314.6,292.8Z" style="fill: #f7d8ba"/>
        <path d="M316.4,296.2s3.5,2.9,7.5,11.4,4.4,16.6,13.9,18.2,11.8-6,18.8-7.9l-5.6.9s5.4-4.2,11.9-2.9c0,0,2.2-2.1-9.8-2.1,0,0,2.7-4.1,11.4-5.2,0,0-6.8-5.8-13.9,1.1s-13.4,6.8-20.5-.1c0,0,6.2,4.2,8.9,3.2,0,0-7-5.2-7.2-10,0,0-2.1-6.2-10.8-5.2Z" style="fill: #ee0024"/>
        <path d="M326.8,295.8s7.5-1.1,8.7,1-.4,6.4-1.2,6.4-2.9-2.1-2.9-2.1l1.6-.8-1.2-1.2-5.2-2.7Z" style="fill: #f7d8ba"/>
        <path d="M316.8,295.3s7.1,1.9,8.3.7a6.5,6.5,0,0,1,2.5-1.5l5.6.2s1.3-2.3-7-1.9c0,0-5,.7-5.6,1.3S316.8,295.3,316.8,295.3Z" style="fill: #f7d8ba"/>
        <path d="M311.5,297s1.2,6.6,1.4,9.3,2.7,7.1,2.9,8.3,1.5,4.8,1.2,5.4-13.8,15.2-19.7,19.9a68.1,68.1,0,0,0-11.1,11.4l-.3.8-11.2-9.9s5.9,8.7,5.6,28.4c0,0,5,5,9.8,4.4s22.6-21.4,36.9-53.5c0,0-2.5-6-2.7-7.1s-3.9-13-4.6-13.1-1.4,1.1-1.4,1.1l-.6-4.4-2.9-3.5Z" style="fill: #f7d8ba"/>
        <path d="M214.7,282.8s0,5.6,5,5l-2.1-1.9.8-1.2Z" style="fill: #ee0024"/>
        <path d="M202.3,331.5s8.3-5.3,13.9-5.9a16.2,16.2,0,0,0,9.2-5s10.2,9.1,26.3,21.5c0,0,2,16.9,6.8,25,0,0-5.8-19.9-6.6-35.3,0,0-2.3-16.8-3.7-17.6H250s-.6-2.9-15.9-3.5H220.7L206.5,294s2.4-.8,3.5.4,7.6,10.7,9.3,12.7l.4.3s-8.3-12.6-7.9-13.4-6.6-13.9-1.2-8.7l3.1,8.3,7.6,10.7.2-.8-6.6-10.1s-2.9-6.9-2.7-8.7c0,0,1.3-.4,1.9,3.1s0,.6,0,.6,7.8,12.4,8.7,13.4l.6-.4s-8.9-13-8.1-13.2a3.8,3.8,0,0,1,3.3,2.1s5.6,9.7,15.1,10.9c0,0,14.2-1.9,18.4.2,0,0,8.6,20.4,12.4,24.8,0,0,8.2,15.3,9.7,17.7,0,0,11.7,33.3-2.1,34.3,0,0-9.1.6-28.3-13.4,0,0-16.1-12.2-25.4-13.6,0,0,5.7,3.1,6.4,3.6a5.9,5.9,0,0,1,1.5,1.5,4.7,4.7,0,0,0-1.1,5.2c.3.5,0,.6,0,.6l-1.4,1a29.3,29.3,0,0,1-22.7-17.3Z" style="fill: #f7d8ba"/>
        <path d="M226.7,319.6l3.7-7,11.1.2s-1.6,8-1.8,8.8a2.7,2.7,0,0,0,.6,1.9l.8-5.8a37.4,37.4,0,0,1,6,3.3c2.5,1.9,3.1,15.9,4.2,18.6s0,.6,0,.6Z" style="fill: #f7d8ba"/>
        <path d="M242.6,313.2l-.6,3.9,4.7,2.5-.4-5.2S244.4,312.6,242.6,313.2Z" style="fill: #fff"/>
        <path d="M240.6,365s-12-8.4-12.9-8.4-3,4-.8,5.9S237.2,366.9,240.6,365Z" style="fill: #b19fc9"/>
        <path d="M241.5,365.8l4.7,2.6s-7,2.4-8.3,3.3-16.6,1.8-12.4-8.6c0,0,8.9,5.8,15.6,2.9S241.5,365.8,241.5,365.8Z" style="fill: #b19fc9"/>
        <path d="M226.1,371.6s.2,4.3,2.4,4.3l4.6-2.6S225.9,372.4,226.1,371.6Z" style="fill: #b19fc9"/>
        <path d="M223.2,364.4s.3,4.3,1.3,5.3-26.1-6.9-26.4-26.6c0,0,0-2.6,2.4-2.9C200.5,340.2,195.2,355.6,223.2,364.4Z" style="fill: #b19fc9"/>
        <path d="M198.8,351.8s-2.5,1.1-5.9,18.4-15.7,27.4-22.3,32.1a13.5,13.5,0,0,0,10.5,10s27.4-28.2,45.7-35.4c0,0-2.9-4.3-2.1-5.4S202.9,365.3,198.8,351.8Z" style="fill: #f7d8ba"/>
        <path d="M168,387.5s7.3,5.4,7.5,8.8c0,0,5-3.1,5.4-4.1S174,386.9,168,387.5Z" style="fill: #7fcdbb"/>
        <path d="M152.2,393.7s4.1-7,12.4-6.2,9.9,10.1,9.9,10.1l-4.7,3.4s-.3-3.2.8-3.6-1.7,1-1.7,1S160.8,391.6,152.2,393.7Z" style="fill: #7fcdbb"/>
        <path d="M151.4,395.5s10.9-2.6,17.1,4.4v2.2s-4.1,3.8-16.1,3.6C152.4,405.7,150.5,397.2,151.4,395.5Z" style="fill: #7fcdbb"/>
        <polygon points="153.7 407.9 156.1 411.3 162.7 406.4 153.9 407.2 153.7 407.9" style="fill: #7fcdbb"/>
        <path d="M157.4,412.3l1.7,2s7.5-6.2,14.5-4.5c0,0-5.3-5.8-4.5-6.9Z" style="fill: #7fcdbb"/>
        <path d="M160.8,415.3s6.4-8.3,19-1.9c0,0-3.8,6.4-7.7,7.1A26.1,26.1,0,0,1,160.8,415.3Z" style="fill: #7fcdbb"/>
        <path d="M155.2,413.2s7.7,7.9,13.9,8.3l-3,4.5.2.7,4.7-4.5,2.8-.4a108.7,108.7,0,0,0-5.8,10.9c-1.7,4.2,0,.6,0,.6s8-18.2,38.3-41.5c0,0,24-16.7,40.6-22.4,0,0,18.6,11.5,26.3,10.7s6.5-5.8,6.5-5.8,7.2,5.8,11.5,27.8c0,0,3,29.5,4.3,38A67.3,67.3,0,0,0,310.2,475s-12.4-6.2-18.8-11.6c0,0-4-1.2,0,13.1,0,0-23.9-34-25.9-40.2s-12.1-29.9-27.5-28.4c0,0,13.4,2.9,18.1,15.6l.3.6c4.4,13.3-.2-.4-.2-.4s-24.4,39.1-46.2,45.7-63.5,13.5-69.5-28.6C140.5,440.8,140,425.4,155.2,413.2Z" style="fill: #009974"/>
        <path d="M141.7,428.6a133.3,133.3,0,0,0-37.9,4.2s-19-1.1-28.5,2.5c0,0-15.3,9.2-16.7,10.9l-.8-2s-3.1-2.8-9.2,3.1l-5,6.1s-7,2-7.8,4.5c0,0,5.2,16.7,22.8,19.5,0,0,3.9-9.2,4.2-10.3a40.6,40.6,0,0,0-13.7-8.7s-4.7-3.9,2.8-4.7c0,0,18.1-2.8,21.5-5,0,0,12-13.7,21.7-10.9,0,0,1.4,1.1.6,11.7a30.6,30.6,0,0,0,14.2,6.7s5.8,2,5,6.7.3.8.3.8-13.1,5.6-15.1,7.8-.5,1.2-.5,1.2l.5,1.4s15.9,6.1,19.5,6.4,11.5,3,18.7,5.3,15.3,4.1,15.3,4.1l22.1,5.9,25.3,3.9,23.2.8-10.4-2.2s38.8-5,46.6-11.7,11.7-5.6,11.7-5.6,12.8-4.2,13.9-8.3l-18.4-26.8s-17.2-5.6-21.4-5c0,0-24.8,37.9-62.7,36.8S131.8,448.6,141.7,428.6Z" style="fill: #ccc"/>
        <path d="M307.5,469.3s6.7,8.7,20.6,7.5,15.9-6.6,32.3-4.7,33.2,11.2,45.5,8.9,35.9-5,44.6-26.2l.5-13.6s-5.6,25.3-35.4,27.6c0,0-33.7-4.5-48.8-5.1l-7.8.6s-26.4,9.8-33.1,9.8C325.9,474.1,310,473.2,307.5,469.3Z" style="fill: #b3e2d8"/>
        <path d="M312.8,475.2s8.9,5.3,26.5,1.6c0,0,10-9.2,45.4,2.8s63-15,64.6-19.2,1.2,1.4,1.2,1.4a52.5,52.5,0,0,1-43,29s-36.5-3.6-40.7-3.1a66.2,66.2,0,0,0-24.5-6.1C328.9,481,311.4,477.7,312.8,475.2Z" style="fill: #b3e2d8"/>
        <path d="M374.9,490.2s27.6.6,33.8,1.7,30.3-8.6,36.7-19.2.6,1.4.6,1.4-11.2,19.7-23.4,21.1c0,0-22.3-1.6-31.8-1.4Z" style="fill: #b3e2d8"/>
        <path d="M432.3,496.4l7.3-9.2s-10.3,7.5-12.6,8S432.3,496.4,432.3,496.4Z" style="fill: #b3e2d8"/>
        <path d="M291.3,465.4s22.9,18.7,53.3,17.6c0,0,7.8.5,19.2,5a123.9,123.9,0,0,0,55.4,8.4c25.4-2,54.7,21.4,58.6,28.1,0,0-16.8-1.7-19.8-.8,0,0-10.3-9.2-24.3-11.5s-51.5-6.7-51.5-6.7S311.7,497.5,291.3,465.4Z" style="fill: #b3e2d8"/>
        <path d="M291,468.2s13.7,35.7,61.4,48.8,50.7,4.2,74.6,7.5,16.8,3.6,16.8,3.6,6.9-4.4,12.8-4.4c0,0-11.7-8.7-22.6-10.1s-41.5-5.5-50.4-6.4S314.2,497.5,291,468.2Z" style="fill: #b3e2d8"/>
        <path d="M292.7,476.3s10,43.2,73.9,57.4c0,0,38.2,9.2,62.1,2.8,0,0,11.2-6.7,13.1-7.5,0,0-18.7-5.1-28.4-3.4s-29.6-.5-34-1.1C379.4,524.5,326.7,524.8,292.7,476.3Z" style="fill: #b3e2d8"/>
        <path d="M304.1,500.3s27.6,44.8,68,48.2,55.2-9.8,55.2-9.8a170.6,170.6,0,0,1-57.1-1.9C339.5,530.4,309.7,508.9,304.1,500.3Z" style="fill: #b3e2d8"/>
        <path d="M92.2,438.3s-6.3.6-16.6,9.7c0,0-.8,3-15.2,5.1,0,0-9,.6-11,2.6,0,0,19.4-3.9,26,.6,0,0-13.7-3.4-26.4.5a77.4,77.4,0,0,1,12,6.8s5,2.6,1.7,7.7c0,0-7.5,14-3.6,17.2s.6.2.6.2,13.6-9.9,15.7-12c0,0,6.2-3.6,9.7.6,0,0,13,13.3,15.6,10.3,0,0,.9-1.9-.8-7.2,0,0-4.3-8.6.6-11s.2-.6.2-.6,12.9-4.7,13.3-7.1c0,0-1.7-4.9-5.8-4.7,0,0-13.9-5-13.5-6.9l.4-9.9A2.2,2.2,0,0,0,92.2,438.3Z" style="fill: #f2df53"/>
        <path d="M71.8,481.4s6-5.6,9-4.5,15.4,12.7,18.9,12.3c0,0,3.6.2,2.3-5.2l-2.1-8.6s7.3,4.1,10.7,4.9,11.4,1.8,12.7,2.2l28.5,8.2,20.6,5.3,27.3,4.5s-16.6,3.7-19.8,3.5-41.6-6-43.1-6-19.8-6.5-33.9-6.3C102.9,491.7,78.4,481.6,71.8,481.4Z" style="fill: #737a7c"/>
        <path d="M34.6,459.7s-6.8-1.4-7.9,6.5c0,0,9.2,16.3,32.6,26,0,0,22.1,11.8,34.3,11.8s30.3,11.6,30.3,11.6,13.9,7.7,33.1,4.7a204.2,204.2,0,0,1,35.1-2.4l26.2-2.6s9.5-1.3,10.3-2.3,15.7-6.3,20-6.2,23.1-7.1,25.7-8.2,8.4-5.6,8.4-5.6l12.4-7.1s-6.6-12.4-7.9-12l-.6.2s-13.8,8-14.9,8-5.5,1-6.2,2.3-18.9,12.5-41.8,13.6l-3.4.2,6.4,2.7-24.5.5-1.7-.2-18,4-44-5.8s-28.6-7.5-35.2-6.2c0,0-27.3-11.1-30.9-10.7s-9.9,5.2-10.7,6.4-2.6,2.6-4.7-1.7c0,0-.3-6.6,1-7.7s.5-.9-9.8-4.9S34.6,459.7,34.6,459.7Z" style="fill: #737a7c"/>
        <path d="M92.1,505.2a36.7,36.7,0,0,1,13.1,3.1c6.5,3,14.6,5.9,15,6.4s10.1,4.9,14,6.2,16.9,1.3,16.9,1.3l17.6-1.7,15.5-.9,16.7-.6,13.1-2.2,11.8-1.2s11.6-3.5,14.6-4.8,11.8-2.8,13.8-3.4,4.5-3.6,11.8-3.9,16.3-7.5,16.3-7.5l12.4-7.7,8.4,13.7s-9.2,23.8-97,22.8a98.7,98.7,0,0,0-35.2-1.5c-18.5,2.8-34.6,6-52.1-5.6C118.8,517.7,95.6,505.3,92.1,505.2Z" style="fill: #737a7c"/>
        <path d="M439,421.2s9.1,13.3,7.5,26.6c0,0,6.1-3.3,1.1-17.4C447.6,430.4,443.4,421.5,439,421.2Z" style="fill: #b3e2d8"/>
      </g>
    </g>
  </g>
</svg>
