<svg xmlns="http://www.w3.org/2000/svg" width="383.1175" height="540.1308" viewBox="0 0 383.1175 540.1308">
  <g id="katman_2" data-name="katman 2">
    <g id="katman_1-2" data-name="katman 1">
      <g>
        <g>
          <path d="M136.2506,446.8879a72.0293,72.0293,0,0,0-11.9472,8.9457c4.295,0,8.92.5239,12.37,3.3341,3.3341,2.5821,5.1464,6.5208,6.4978,10.4047,6.746-2.7118,13.7417-5.771,18.6991-11.2782a7.8531,7.8531,0,0,0,2.0812-5.974c-2.7673.1475-5.9739-.0229-7.6988-2.5354-4.1069.6861-8.2886,2.0783-12.4621,1.0507C140.9161,450.3613,138.4674,448.6824,136.2506,446.8879ZM239.09,430.8805c-.964,1.8175-1.9975,3.7305-3.8031,4.8448a20.7511,20.7511,0,0,1-14.5286,2.7925,7.5277,7.5277,0,0,1-8.4019,2.8162l-.46-.0926c-.1452,1.1343-.3045,2.2776-.3853,3.4386a6.8508,6.8508,0,0,0,2.7873,3.65c7.0646,4.6307,15.637,6.3207,23.9693,6.6364-.0608-4.0143.6223-8.1849,2.95-11.5427,2.4717-3.8609,6.8475-5.9562,11.1685-6.9979C248.4178,433.6619,243.7346,432.0926,239.09,430.8805Zm-101.2559-6.6074a74.4933,74.4933,0,0,0-2.1131,8.2915c.3246.2986.9758.8972,1.3,1.201.7557-2.9259,1.447-5.8665,2.1471-8.8013C138.8319,424.7939,138.1636,424.4434,137.8339,424.2731Zm79.9777-16.0889c2.4776,1.0676,4.807,2.7028,7.5824,2.8969a14.38,14.38,0,0,0,6.2778-1.0624c1.1921,2.7584,2.9518,5.2649,3.8549,8.153a71.1919,71.1919,0,0,1-4.0142-7.4351C226.8677,412.2392,221.4724,411.579,217.8116,408.1842Zm-71.475-5.14a101.0361,101.0361,0,0,0-8.642,21.0064c3.5423,1.0276,7.5914,1.2617,10.8358-.7639,2.7355-1.7367,5.3339-4.13,6.5089-7.2039C153.6472,411.0352,151.014,405.7822,146.3366,403.0437Zm7.0475-9.8948a35.6784,35.6784,0,0,0-6.3066,8.9139c-.0059.3534-.0141,1.0565-.02,1.41a45.2742,45.2742,0,0,0,3.5971-4.5358c-.7379,1.56-1.5714,3.08-2.399,4.5936a28.299,28.299,0,0,1,6.9719,11.3071,2.4064,2.4064,0,0,1,.023,2.04,17.399,17.399,0,0,1-6.7141,6.909c-2.6858,1.6174-5.9184,1.5367-8.94,1.4q-1.2246,4.4889-2.096,9.0651a30.4263,30.4263,0,0,0,17.3566,8.4567c1.2217-1.6092,2.4835-3.4156,4.5121-4.049,2.24-.8046,4.66-.1134,6.6653.9928-.023-6.909-.246-13.8143.1474-20.72-3.49-.3823-7.0527-.938-10.17-2.651a66.587,66.587,0,0,0,10.3927-.2378,169.058,169.058,0,0,1,2.4228-17.4373,40.4913,40.4913,0,0,1-14.3811-4.3351c-1.2566,1.5018-2.4954,3.0214-3.8031,4.4825C151.5667,396.8882,152.4988,395.0271,153.3841,393.1489Zm63.9525,2.9695c.0578-.2459.1652-.7379.2171-.9839-2.422,1.001-4.74,2.2457-7.2528,3.0155-1.9708.6105-4.06,1.0736-5.7042,2.3991a75.4779,75.4779,0,0,1,2.2086,8.8739,39.657,39.657,0,0,0,8.1441-3.6268C215.3836,402.4969,215.8,399.1221,217.3366,396.1184Zm3.0163-3.8727c-.4749.5238-.9032,1.0914-1.3314,1.6559-.5646.738-1.1344,1.467-1.6849,2.2168-.5638,3.0155-1.6263,5.9733-1.6722,9.0673a22.2327,22.2327,0,0,0,1.7359,2.6051c-.77-.5187-1.5248-1.0447-2.2775-1.5715a29.1263,29.1263,0,0,1-4.9315,4.4454,9.2,9.2,0,0,0-2.608,2.1242c.6742,5.6984,1.6441,11.3767,1.9249,17.1218,1.7367-1.6293,4.1735-2.8044,6.5956-2.2339,2.0263.3816,3.5511,1.8634,4.9952,3.2326a30.6486,30.6486,0,0,0,15.6117-13.9128c-.8276-2.7866-2.6221-5.1568-4.0172-7.6751a101.8481,101.8481,0,0,0-9.3133-13.9936A11.8034,11.8034,0,0,0,220.3529,392.2457Zm73.85-4.3469a79.1762,79.1762,0,0,0-10.7832.7987,15.9609,15.9609,0,0,0,.2141,3.9653,6.0469,6.0469,0,0,0,7.5425,2.5006c.6794-.4171,1.3543-.8513,2.0345-1.28a37.617,37.617,0,0,0,3.7157,2.7035c4.9522,2.6192,10.7491,3.2008,16.26,2.7177,3.69-.3216,7.5447-1.2447,10.378-3.7683a15.7651,15.7651,0,0,0,2.0493-3.1955c-4.2484-1.8842-8.885-2.4828-13.432-3.1867A130.3449,130.3449,0,0,0,294.2032,387.8988Zm-153.8924-17.07c3.49,7.9041,10.1534,13.8832,17.2291,18.59a45.5718,45.5718,0,0,0,12.48,5.0071,74.1252,74.1252,0,0,0,33.0461.6483,54.2511,54.2511,0,0,0,13.1564-4.7522c.2289-.1105.68-.3275.9091-.4342.8624.7809,1.7367,1.5537,2.651,2.2775-.4979-1.12-1.0736-2.1938-1.6671-3.2563a45.7566,45.7566,0,0,0,11.8724-10.41,24.63,24.63,0,0,0,3.9965-6.4311c-7.4818,4.5292-16.1267,6.6423-24.6813,8.0078a167.7739,167.7739,0,0,1-18.7635,1.7626c-1.6671.229-2.5643-1.3744-3.6149-2.3472l-.1875-.1763c-.892,1.201-1.85,2.88-3.6149,2.5183C168.3357,381.1579,153.2078,378.4462,140.3108,370.8289ZM309.56,364.7683a43.48,43.48,0,0,1,12.1614,1.8552c1.9248.6861,4.3439,1.3433,5.1663,3.4386a30.1031,30.1031,0,0,1,1.0736,10.6765,108.6689,108.6689,0,0,0-27.2574-3.32,49.7954,49.7954,0,0,1,3.3919-10.4965c.8165-1.72,2.9637-1.9478,4.6426-2.13C309.0132,364.78,309.2881,364.7742,309.56,364.7683Zm-17.6922-6.5838c3.369,3.5853,2.611,10.6328-2.1182,12.69A115.1157,115.1157,0,0,0,291.8678,358.1845Zm-253.067-4.2024c-.44,1.0158-.8973,2.0256-1.2914,3.07a27.0723,27.0723,0,0,0,0,3.14c1.0624,3.6068,3.89,6.39,6.946,8.4256,5.1812,3.3341,11.227,5.8836,17.504,5.4035,1.2677-.1534,2.5295-.3653,3.792-.5823.35.6771.6972,1.3691,1.0795,2.0434a6.1735,6.1735,0,0,0,7.6633,1.3662c1.384-1.5655,2.6976-3.8438,2.0293-5.9362-2.33-2.0375-5.1515-3.4148-7.7795-5.03A117.3813,117.3813,0,0,0,38.8008,353.9821Zm275.3121-5.997c-10.6743.758-20.7432,4.7552-30.447,9.0036-.37,2.8222-.466,5.6843-.9928,8.4886a51.0342,51.0342,0,0,1-6.4133,17.0121,123.0318,123.0318,0,0,1,16.9683-2.0316,113.4529,113.4529,0,0,1,41.28,5.3338,76.2689,76.2689,0,0,0-4.3588-26.1052c-.6335-1.7827-1.3425-3.5371-2.0493-5.276-2.9548,1.4847-6.7112,1.907-9.5911.0259C316.13,353.0611,315.1228,350.3753,314.1129,347.9851ZM79.84,341.2562c1.0306-.0667,1.0047,1.9567.9032,2.8162-.37,1.7448-.981,4.6655-3.1748,4.66a6.7178,6.7178,0,0,1,1.7656-7.3106A1.2344,1.2344,0,0,1,79.84,341.2562ZM187.692,336.012a56.332,56.332,0,0,1-7.392,7.0935,8.6554,8.6554,0,0,1-5.1575,1.3025,112.9427,112.9427,0,0,1-22.5689-2.113,99.75,99.75,0,0,1-23.9344,10.3957c1.5685,1.158,3.2645,2.53,5.34,2.4606,2.8821-.07,5.7331-.6395,8.6153-.8166l.4519-.0459c2.8273-.3327,5.6784-.4868,8.52-.5816q4.2321-.3957,8.4827-.4519a490.3739,490.3739,0,0,1,54.7229.7468c3.0393.1911,6.0785.492,9.111.8187,2.6251.1363,5.2472.452,7.864.7706,3.4031.2859,6.7431,1.238,10.1757,1.1135,1.7078-.04,3.0681-1.1951,4.318-2.2227a97.5934,97.5934,0,0,1-23.4891-11.09,113.6644,113.6644,0,0,1-19.643,1.4559c-2.7843-.0585-5.9154.286-8.2686-1.5314A48.48,48.48,0,0,1,187.692,336.012Zm-140.7182-.8194c.44.0029.8742.0318,1.2906.0607a44.6305,44.6305,0,0,1,12.0717,3.2156c1.936.9321,4.2224,1.9886,5.0449,4.1187.24,3.8668-.7209,7.687-1.3663,11.4782a101.0442,101.0442,0,0,0-26.0712-8.6072,30.1688,30.1688,0,0,1,5.4272-9.085A4.7042,4.7042,0,0,1,46.9738,335.1926Zm7.0875-14.6908a82.6751,82.6751,0,0,0-8.9717,8.396,77.7866,77.7866,0,0,0-11.9649,17.258c-.0978.246-.292.7321-.3846.9781a114.6848,114.6848,0,0,1,37.7983,13.2615,119.8169,119.8169,0,0,1,15.3562,10.1408,54.2337,54.2337,0,0,1,1.5136-18.9769c.3646-1.12.7876-2.2168,1.21-3.3082-4.9285-8.879-10.798-17.4343-18.5087-24.1462a8.8142,8.8142,0,0,1-10.5839,3.2792C56.5508,326.3165,54.9763,323.33,54.0613,320.5018Zm133-3.4178c1.74.0029,3.4815.09,5.2093.1911a12.8311,12.8311,0,0,1,5.69,1.3544,33.085,33.085,0,0,1-.6861,8.2975c-.0459,1.2906-1.5714,1.221-2.4628,1.6033-2.83.6024-5.71,2.116-8.639,1.2358a62.5157,62.5157,0,0,1-6.5007-2.0693c-.8276-.2171-.8565-1.1055-.958-1.7856a39.0076,39.0076,0,0,1-.2571-7.8314A31.9133,31.9133,0,0,1,187.0608,317.084Zm12.6851-3.3519c-2.9984.0348-5.9969.0756-8.9776.3682-4.7063.48-9.4007-.446-14.1121-.2986.2808,4.9812.692,9.9564,1.2906,14.9079,4.26,1.0217,8.5783,3.7046,13.05,2.2316a52.3787,52.3787,0,0,0,6.2022-1.7945c1.0966-.3993.9432-1.7915,1.1892-2.7117C198.8405,322.1977,199.4333,317.9783,199.7459,313.7321Zm60.8184-4.6129c-1.7418,4.81-2.5872,9.9267-4.8129,14.5693-1.9538,4.055-4.1588,8.3493-8.0982,10.8039A55.5583,55.5583,0,0,1,235.55,340.09a93.0752,93.0752,0,0,0,17.7737,6.6764,52.291,52.291,0,0,0,5.5161-11.53C261.8787,326.944,263.0449,317.7145,260.5643,309.1192Zm68.0305-.3764c.68,3.5164,1.5026,7.0186,1.96,10.578,2.0116.2489,4.0172.5475,6.02.8654a43.7466,43.7466,0,0,1,2.6339-8.4968A70.1975,70.1975,0,0,0,328.5948,308.7428Zm-250.1871-.57a3.53,3.53,0,0,1,3.5652,3.47c.0089,2.4458-3.01,4.3069-5.12,2.9148a3.4333,3.4333,0,0,1,.3038-6.0777A2.9245,2.9245,0,0,1,78.4077,308.173Zm37.4767-1.1669c-2.6717,8.7842-1.673,18.2538,1.227,26.85a48.0278,48.0278,0,0,0,5.0848,10.9973c5.9562-1.7708,11.965-3.4786,17.5619-6.2192a60.3211,60.3211,0,0,1-11.9154-5.9791c-3.5452-2.2895-5.4931-6.2081-7.2528-9.8986C118.2368,317.7671,117.3025,312.3,115.8844,307.0061Zm-75.4833-.9839c-3.6208.9261-7.2068,1.9708-10.8417,2.8332a36.2072,36.2072,0,0,1,2.4687,8.5264c2.0057-.1067,4.0083-.2949,6.0029-.53C38.7719,313.232,39.5735,309.623,40.4011,306.0222Zm45.1408-2.3961c.5579.2282,1.1165.463,1.6841.6972.1185.2259.3534.6772.4749.9.4949.3445.975.7031,1.45,1.0913a1.8753,1.8753,0,0,1,.7142,1.1025c1.5863,1.444.5475,3.586-.6335,4.9a7.1588,7.1588,0,0,1-1.2706,2.1938c-.3935.1711-1.1692.5157-1.5626.692l-.0578.6224c-.2638-.0756-.7987-.2231-1.0625-.2986l-.0926.4282c-.223-1.58-.5008-3.1511-.6224-4.74a3.4716,3.4716,0,0,1-.7179-1.696c-.55-.486-1.0736-.9869-1.5826-1.5077l-.1534.5816-.0526-.695c-.5408-.4742-1.25-.7928-1.6144-1.421-1.0425,1.1232-1.5544-1.5656-.223-.8417.6164-.2349,1.2329-.46,1.8493-.6831.2578-.0867.7757-.2638,1.0388-.3505.3534-.13,1.0624-.3816,1.4158-.506C84.7743,303.9787,85.284,303.7446,85.5419,303.6261Zm218.039-2.2346c.99,4.8885,1.9419,9.7882,2.9636,14.68q5.8869.7246,11.7531,1.5856c-.7928-4.0543-1.5626-8.1152-2.35-12.17l-.1155-.4289C311.8606,303.5046,307.6411,302.677,303.5809,301.3915ZM65.5077,299.2843c-4.0721,1.2677-8.3,2.0264-12.3147,3.4734l-.1475.4112c-.8565,4.0372-1.8174,8.0574-2.4746,12.1354,1.43-.183,2.8681-.3186,4.3069-.4579,2.2657-2.13,4.9634-3.9446,8.1382-4.2543Q64.1619,304.923,65.5077,299.2843Zm212.271-6.4711c.6342,3.3541,1.4507,6.6712,2.0782,10.0282,2.06,1.9479,4.26,3.8669,5.5917,6.4252,4.3558,7.8841,1.38,19.0407-6.5786,23.4113a74.9181,74.9181,0,0,1,3.9017,14.2277c.0377.2231.1067.6772.1415.9062,9.7941-5.34,21.3938-5.4472,32.1866-4.0491a11.139,11.139,0,0,1,5.079-4.8767c-.92-1.4559-1.8352-2.9118-2.8162-4.318a30.5666,30.5666,0,0,0-4.2543-5.1575,13.3845,13.3845,0,0,0-5.3746-.1711,63.8964,63.8964,0,0,0-4.4773,4.9922c-2.2-3.7127-4.9864-7.1164-6.8127-11.0233a54.1653,54.1653,0,0,1,3.8868-5.5946,41.6867,41.6867,0,0,0-8.6279-4.44c.33-1.96.6224-3.9194.8335-5.8932-.9372-3.7127-1.6959-7.4669-2.4916-11.2063C285.9583,294.9722,281.8744,293.87,277.7787,292.8132Zm-186.3273-1.56q-6.2426,1.3714-12.41,3.0851c-.7987,3.5912-1.62,7.1891-2.57,10.7544-.04.6512-.0719,1.3025-.1007,1.9656-1.5256.7061-3.0563,1.4033-4.57,2.1531-1.6211.7868-3.2215,1.6322-4.7989,2.5065a10.4433,10.4433,0,0,1,4.5818,8.3264c8.5553,4.3936,16.78,10.4046,21.4576,19.0177a55.113,55.113,0,0,1,6.703-8.92c-4.8078-2.874-6.3326-8.7316-6.24-13.9936-.2749-2.9347-.5794-5.9561.2171-8.8413a27.6536,27.6536,0,0,1,3.157-6.6452c-2.7117.57-5.3975,1.2447-8.0715,1.962.7787-3.632,1.6234-7.2469,2.51-10.85ZM216.269,217.4055c-4.095,1.62-7.9507,3.8639-12.2688,4.8937a59.4329,59.4329,0,0,1-35.4822-1.178c-2.9525-1.0158-5.6435-2.6651-8.602-3.6609-.1356,6.706,1.43,13.8165,6.0836,18.8814,4.1914,3.5193,9.6926,5.0478,14.9687,6.09a40.5877,40.5877,0,0,0,22.1554-2.1531,20.7722,20.7722,0,0,0,7.5188-4.4284C214.8939,230.7389,216.3846,223.9263,216.269,217.4055Zm49.5943,75.6478c-3.21,2.3709-6.9482,3.8727-10.3461,5.9421l.5876-.0319c3.9416-.4542,8.196-.1652,11.3937,2.4458C266.9725,298.622,266.2834,295.8576,265.8633,293.0533ZM187.51,0A157.09,157.09,0,0,0,58.452,246.6745a158.28,158.28,0,0,0,43.0854,41.9481c.7439.4742,1.4907.9462,2.24,1.427-.51,2.1412-.9958,4.2891-1.4358,6.4482a34.838,34.838,0,0,1,10.6765-.7617,24.3735,24.3735,0,0,1-5.6258-4.8937,60.9058,60.9058,0,0,1-9.4992-15.7214,72.0668,72.0668,0,0,1-5.7791-22.01c-2.1131-18.4361,1.8315-36.996,8.1612-54.2629a14.6475,14.6475,0,0,1-7.0528-2.359c-3.9016-2.6769-6.0488-7.16-7.3632-11.5709a52.0949,52.0949,0,0,1-1.6781-16.6356c.6683-6.6541,3.2674-13.5246,8.6182-17.8078,3.25-2.7006,7.3951-3.9446,11.5079-4.5529-.5994-9.0265-.1482-18.5257,4.06-26.7217,5.4961-11.0211,15.5421-19.1481,26.5453-24.2826,15.574-7.215,32.9246-9.4407,49.9278-9.7445a159.3713,159.3713,0,0,1,35.8416,3.2793,85.28,85.28,0,0,1,27.4307,10.8617,51.9708,51.9708,0,0,1,18.1,18.9859c4.5558,8.3871,5.2271,18.28,4.5351,27.6337a24.6534,24.6534,0,0,1,9.7015,3.2734,21.9615,21.9615,0,0,1,8.9606,12.17c2.6161,7.7447,1.6781,16.1926-.37,23.9462a23.6074,23.6074,0,0,1-4.3736,8.5494,14.5149,14.5149,0,0,1-9.8519,5.05,167.6654,167.6654,0,0,1,5.9043,20.0334c4.1706,18.2946,4.1565,38.14-3.3133,55.6032a68.5611,68.5611,0,0,1-11.5427,18.4939,32.5644,32.5644,0,0,0,4.0639-2.1761A157.0906,157.0906,0,0,0,187.51,0Z" style="fill: #e6f3fa"/>
          <path d="M201.387,362.427c10.2631-.7031,20.6092-1.7537,30.473-4.8478.8076-.2578,1.2069.8943,1.7826,1.2966-.7091.3356-1.3981.7-2.136.9758-9.9327,3.0155-20.3544,3.86-30.6582,4.6885a185.0961,185.0961,0,0,1-43.1025-2.405,84.5575,84.5575,0,0,1-14.6589-3.6268,7.22,7.22,0,0,1-1.4211-.7868,33.3131,33.3131,0,0,1,.9284-3.3868l.4519-.0459c.0408.469.1156,1.4092.1563,1.8842a73.3891,73.3891,0,0,0,9.3192,2.6391A195.7342,195.7342,0,0,0,201.387,362.427Zm-.55-6.6823c-4.2025-.0348-8.3871.3149-12.5925.3149-7.7448-.2282-15.4725-.9024-23.1653-1.7648a43.0354,43.0354,0,0,1-5.03-1.04q-4.25.0611-8.4827.4519c4.4455,1.8145,9.2525,2.2227,13.9588,2.8822,6.6015.8683,13.249,1.3025,19.8971,1.6759,6.4193.3527,12.8215-.3386,19.223-.7268,6.4429-.6046,12.9659-.9951,19.2377-2.7177-3.0325-.3267-6.0717-.6276-9.1109-.8187C210.272,355.4261,205.5087,355.5039,200.8373,355.7447ZM33.1247,346.1558A77.7866,77.7866,0,0,1,45.09,328.8978a82.6751,82.6751,0,0,1,8.9717-8.396c.0289-.6972.0786-1.3833.1593-2.0664-7.2646.4831-14.46,1.6441-21.6946,2.42.13,1.2907.26,2.5754.3646,3.872A196.0055,196.0055,0,0,1,33.1247,346.1558Zm112.5147-28.3717a2.3465,2.3465,0,0,0-2.0086-1.0476,3.19,3.19,0,0,0-1.3774.2867,2.5619,2.5619,0,0,0-1.32,2.57,90.0665,90.0665,0,0,0,2.3591,10.2076,11.3983,11.3983,0,0,0,1.5885,4.0579c1.4967,1.6752,4.9434.2164,4.4314-2.13-.6453-3.2244-1.7018-6.3562-2.3939-9.5711A17.7829,17.7829,0,0,0,145.6394,317.7841Zm-81.11,3.1926a5.8813,5.8813,0,0,0,.217-2.2753,2.586,2.586,0,0,0-2.136-1.1862,3.3676,3.3676,0,0,0-.8506.0726,2.69,2.69,0,0,0-.0755,3.649A7.27,7.27,0,0,0,64.53,320.9767Zm115.142,6.72a62.5473,62.5473,0,0,0,6.5007,2.0693c2.9289.88,5.8088-.6335,8.639-1.2358.8914-.3823,2.4169-.3127,2.4629-1.6033a33.09,33.09,0,0,0,.686-8.2975,12.8311,12.8311,0,0,0-5.69-1.3544c-1.7278-.1015-3.47-.1882-5.2093-.1911a32.0335,32.0335,0,0,0-8.6042.9958,39.0076,39.0076,0,0,0,.2571,7.8314C178.8152,326.5913,178.8441,327.48,179.6717,327.6968ZM85.86,184.918a52.0921,52.0921,0,0,1-1.6782-16.6356c.6683-6.6541,3.2674-13.5246,8.6182-17.8078,3.25-2.7006,7.3951-3.9446,11.5079-4.5529-.5994-9.0265-.1482-18.5257,4.06-26.7217,5.4961-11.0211,15.5421-19.1481,26.5453-24.2826,15.574-7.215,32.9246-9.4407,49.9278-9.7445.75-.0059,1.5018-.0119,2.2517-.0089a156.027,156.027,0,0,1,33.59,3.2882,85.2816,85.2816,0,0,1,27.4308,10.8617,51.9713,51.9713,0,0,1,18.1,18.9859c4.5559,8.3871,5.2271,18.28,4.5351,27.6337a24.6534,24.6534,0,0,1,9.7015,3.2734,21.9615,21.9615,0,0,1,8.9606,12.17c2.6161,7.7447,1.6781,16.1926-.37,23.9462a23.6058,23.6058,0,0,1-4.3736,8.5494,14.5149,14.5149,0,0,1-9.8518,5.05,167.7024,167.7024,0,0,1,5.9043,20.0334c4.1705,18.2946,4.1565,38.14-3.3134,55.6032-3.5341,2.7095-7.0883,5.4909-11.1374,7.398,6.6653-12.8156,10.3039-27.42,9.0821-41.8963a71.98,71.98,0,0,0-3.2326-16.8617,84.7227,84.7227,0,0,1-6.1214-33.2313c1.1314-12.5258,2.1531-25.1413,1.227-37.7168-.4394-6.6593-1.2789-13.4261-3.9128-19.6134-4.7781-11.5656-13.0815-21.93-24.1692-27.9612-7.3484,7.6928-16.9454,12.9748-27.0633,16.0777a86.7354,86.7354,0,0,1-35.1474,2.914c-15.2316-1.76-30.3165-7.91-41.1316-19.0088-11.9013,6.7171-20.7774,18.1953-25.22,31.0286-2.5532,7.927-2.9088,16.3519-3.0511,24.6146a237.0558,237.0558,0,0,0,1.0447,24.4849c1.3552,11.5885-.4393,23.4112-4.1906,34.4034-4.1128,9.8749-5.1863,20.7366-4.74,31.3494a80.0038,80.0038,0,0,0,2.645,15.3917,91.4585,91.4585,0,0,0,6.3267,15.71c-4.0662-1.2848-7.0068-4.567-10.72-6.5208a72.0675,72.0675,0,0,1-5.7791-22.01c-2.1131-18.4361,1.8316-36.996,8.1612-54.2629a14.6475,14.6475,0,0,1-7.0528-2.359C89.3213,193.812,87.1741,189.3287,85.86,184.918Zm135.59,251.7883c5.6265.0118,12.1065-1.2158,15.4665-6.22,1.2388-2.0715.6513-4.5-.217-6.5726l-.3038.37a28.4893,28.4893,0,0,1-9.6578,8.0574C224.6768,433.3752,221.9066,434.0494,221.4494,436.7063ZM322.6912,345.123a2.04,2.04,0,0,0-1.3892,3.05,2.0192,2.0192,0,0,0,3.5134.0548c.9-1.2528-.4142-3.2244-1.8382-3.1488A1.59,1.59,0,0,0,322.6912,345.123Zm-97.2971,65.9581c-2.7755-.1941-5.1049-1.8293-7.5825-2.8969,3.6608,3.3948,9.0561,4.055,13.7009,2.5524a71.1919,71.1919,0,0,0,4.0142,7.4351c-.9031-2.8881-2.6628-5.3946-3.8549-8.153A14.3793,14.3793,0,0,1,225.3941,411.0811Zm82.34-81.8417a13.3827,13.3827,0,0,1,5.3746.1711,30.5666,30.5666,0,0,1,4.2543,5.1575c.981,1.4062,1.896,2.8621,2.8162,4.318a9.7656,9.7656,0,0,1,6.2429.2223,8.6469,8.6469,0,0,1,5.2931,8.5094c-.0111,2.7147-1.7308,5.0041-3.6149,6.7927.7068,1.7389,1.4159,3.4933,2.0493,5.276,1.919-.0578,3.8379-.0408,5.768-.0289-.0348-.3216-.09-.9669-.1185-1.2855a174.1071,174.1071,0,0,1-.1882-30.2122c.1363-1.5425.3356-3.0651.5468-4.59-10.4913-1.67-21.0463-2.9436-31.5665-4.4a10.7943,10.7943,0,0,1-4.26-1.5567,54.1653,54.1653,0,0,0-3.8868,5.5946c1.8264,3.9069,4.6129,7.3106,6.8127,11.0233A63.8964,63.8964,0,0,1,307.7337,329.2394Zm-24.4908,21.6975c-.0837-1.0506-.1934-2.0893-.33-3.1252-.0348-.2289-.1037-.6831-.1415-.9061a74.9771,74.9771,0,0,0-3.9017-14.2277,19.8347,19.8347,0,0,1-13.0555,1.2966c-2.0405,1.1025-4.7641,2.9229-6.975,1.2618a52.291,52.291,0,0,1-5.5161,11.53A93.0752,93.0752,0,0,1,235.55,340.09a118.6816,118.6816,0,0,1-12.7978,3.3022,97.5934,97.5934,0,0,0,23.4891,11.09c1.6671-.8335,2.5873-2.7865,4.3359-3.4149,5.6546.0408,11.2433,1.4092,16.8987,1.473,5.2212.8335,10.5031,1.1551,15.7443,1.8174C283.2548,353.2152,283.3014,352.072,283.2429,350.9369Zm-22.1977,97.3343a8.3539,8.3539,0,0,1-5.479,4.8885c-5.5628,1.8-11.5071,1.8782-17.2988,1.8064-8.3323-.3157-16.9047-2.0057-23.9692-6.6364a6.8505,6.8505,0,0,1-2.7874-3.65c-.2459,1.3744-.3645,2.97.6861,4.0779,1.7249,1.8435,4.0891,2.9059,6.3526,3.9387,9.866,4.48,21.0093,4.9056,31.628,3.69,3.6379-.5008,7.51-1.4448,10.21-4.0958,1.467-1.4151,1.4789-3.5623,1.4092-5.4464C261.5372,447.305,261.2852,447.7851,261.0452,448.2712Zm-199.0858-74.25a19.3752,19.3752,0,0,0,4.8715,1.4611c-.3823-.6743-.73-1.3663-1.0795-2.0434C64.4889,373.6562,63.2271,373.8681,61.9594,374.0215ZM337.9666,387.54a9.0824,9.0824,0,0,0-3.4586-1.7486,111.918,111.918,0,0,0-36.0557-5.4842q-2.6182.0212-5.2241.15a123.0314,123.0314,0,0,0-16.9684,2.0316c-1.4181.3156-3.1348.51-3.9365,1.896a2.9249,2.9249,0,0,0,.8743,3.4059A36.2213,36.2213,0,0,0,283.73,393.29l-.0956-.6276a15.9609,15.9609,0,0,1-.2141-3.9653,2.3956,2.3956,0,0,1,2.1531-1.956,105.0216,105.0216,0,0,1,12.8792-.8424,116.641,116.641,0,0,1,27.5842,3.1977q-.1257,1.2848-.2631,2.5873c-.0378.1652-.1185.492-.1593.6572a15.7651,15.7651,0,0,1-2.0493,3.1955,73.16,73.16,0,0,0,13.3016-3.8527A2.6991,2.6991,0,0,0,337.9666,387.54Zm-171.761,67.5844a19.9077,19.9077,0,0,1-6.0028,6.6252,48.5035,48.5035,0,0,1-10.8329,6.2081c-1.9708.7869-3.9883,1.467-6.02,2.0894a63.2519,63.2519,0,0,1-14.4737,2.7814c-2.6369.0985-5.4872-.0349-7.7536-1.5426-1.32-.8395-1.8293-2.4021-2.3532-3.78a5.37,5.37,0,0,0,3.7164,6.3962c5.2613,1.8293,10.92.515,16.2075-.5238,3.626-.978,7.4609-1.6411,10.76-3.4964,3.9476-1.175,7.4121-3.49,10.7551-5.8376a26.8287,26.8287,0,0,0,6.39-6.1614c.84-1.1432.3557-2.5932.2171-3.8609C166.6628,454.297,166.359,454.85,166.2056,455.1246Zm124.971-59.9612-.4231.2571a25.3067,25.3067,0,0,0,6.1733,1.1669,37.6288,37.6288,0,0,1-3.7157-2.7035C292.5309,394.3121,291.856,394.7463,291.1766,395.1634ZM233.261,365.747c-.0407-1.1839-1.4388-1.4477-2.2175-2.0464-1.4789,1.5544-3.6609,1.936-5.6606,2.3472a186.461,186.461,0,0,1-71.3415-.1881c-3.5082-.6165-6.8712-1.8086-10.338-2.5814a22.1917,22.1917,0,0,0-2.4487-.1015c.6572,1.7078,2.39,2.4309,3.7972,3.4089l.2282.0178c4.2839.1593,8.3441,1.673,12.5636,2.2657,14.74,2.382,29.7728,3.5979,44.6717,2.1479a145.3547,145.3547,0,0,0,27.0381-3.9016A14.8221,14.8221,0,0,0,233.261,365.747ZM85.8946,370.5362a119.8228,119.8228,0,0,0-15.3561-10.1408A114.6886,114.6886,0,0,0,32.74,347.1338a19.75,19.75,0,0,0-2.3035-.17,7.1043,7.1043,0,0,0-1.378.1245,2.5555,2.5555,0,0,0-1.3663,4.0083c1.3314,1.82,3.097,3.2793,4.4773,5.0708.1245.1593.3883.492.5216.6572,1.6033,1.1255,3.1859,2.2865,4.8182,3.3682a27.05,27.05,0,0,1,0-3.14c.3941-1.0447.8513-2.0545,1.2914-3.07A117.3813,117.3813,0,0,1,68.744,365.8826c2.628,1.6181,5.4494,2.9925,7.7795,5.03.6683,2.0924-.6453,4.3707-2.0293,5.9362a34.5421,34.5421,0,0,0,11.5537-.0118,2.821,2.821,0,0,0,2.5266-3.2326C88.2188,372.2151,86.9281,371.3987,85.8946,370.5362Zm52.1883,75.2114c4.44,4.807,11.6745,4.5581,17.5069,2.9866-.8572-2.3812-3.5889-2.2775-5.6442-2.7517a26.6981,26.6981,0,0,1-12.3177-5.9651A19.5954,19.5954,0,0,0,138.0829,445.7476Zm-9.4437-93.0569a99.75,99.75,0,0,0,23.9344-10.3958,107.9044,107.9044,0,0,1-12.8155-3.6608c-5.5969,2.7406-11.6057,4.4484-17.5619,6.2192a48.0327,48.0327,0,0,1-5.0848-10.9974c-2.0723-.1392-4.3558-.1511-6.0636-1.5136a13.2174,13.2174,0,0,1-3.6609-5.0567,25.7771,25.7771,0,0,1-4.301-.512c-1.1373,1.1025-2.2627,2.2079-3.3422,3.3689a55.1194,55.1194,0,0,0-6.7031,8.92c-.8683,1.45-1.6848,2.9288-2.4168,4.4543-.732,1.5485-1.3863,3.1311-2.0057,4.7344-.4223,1.0914-.8453,2.1879-1.21,3.3082l.3705.4342c1.0973.489,2.3035.1593,3.45.1185,7.2157-.7409,14.4507-1.2677,21.6686-1.9849a117.089,117.089,0,0,0,11.8524-1.184C125.9415,350.2857,127.3537,351.4259,128.6392,352.6907Zm19.8913,70.5955c-3.2445,2.0256-7.2936,1.7915-10.8359.7639l-.53-.1245c.1711.0837.5008.2548.669.3475.33.17.998.5208,1.3337.6912-.7,2.9348-1.3915,5.8754-2.1472,8.8013.1215.1185.3616.3645.48.4868q.8736-4.5767,2.096-9.0651c3.0215.1364,6.2541.2171,8.94-1.4a17.399,17.399,0,0,0,6.7141-6.909,2.4068,2.4068,0,0,0-.0229-2.04,28.3,28.3,0,0,0-6.972-11.3071c.8276-1.5137,1.6611-3.0333,2.399-4.5936a45.2742,45.2742,0,0,1-3.5971,4.5358c.0059-.3534.0141-1.0565.02-1.41-.2489.3126-.4949.6512-.7409.9809,4.6774,2.7385,7.3106,7.9915,8.7027,13.0386C153.8643,419.1563,151.2659,421.55,148.5305,423.2862Zm6.15-30.939c-.7379-.0348-1.1372,1.3484-.217,1.3663C155.2046,393.7364,155.6039,392.3531,154.6807,392.3472Z" style="fill: #652d90"/>
          <path d="M179.3857,275.3788a7.8813,7.8813,0,0,0-1.08,11.3886c2.2864,2.2775,6.06,2.2027,8.8353.9461,2.5992-1.244,2.9089-4.9982,1.3781-7.1542-1.5655-1.7538-4.5818-.7031-5.056,1.5107,1.3367-.5816,3.0445-2.402,4.4277-.9291a4.4994,4.4994,0,0,1-.3326,5.276,7.6263,7.6263,0,0,1-7.3284.7032c-3.4267-1.7827-3.8638-6.8238-1.6493-9.7156,3.832-4.83,12.4333-4.35,15.7007.8624,2.1649,4.0721,1.6959,10.3728-2.7177,12.7778-1.4759.97-3.6.7179-4.7581,2.1419a10.2215,10.2215,0,0,0,7.3113-3.114c2.1613-2.3243,2.4539-5.7221,2.0894-8.7317a8.7987,8.7987,0,0,0-4.57-6.7237A11.5049,11.5049,0,0,0,179.3857,275.3788Zm-6.5845-26.4846c8.0026,6.8157,21.2523,7.9041,29.2808.5668-4.0987,1.5137-8.1878,3.3919-12.651,3.4156-5.8406.3994-11.313-1.913-16.63-3.9824m43.48-31.9518-.0118.4631c-4.095,1.62-7.9507,3.8639-12.2688,4.8937a59.4329,59.4329,0,0,1-35.4822-1.178c-2.9525-1.0158-5.6413-2.6651-8.602-3.6609l-.0052-.4512c-1.4677-.9409-2.8829-1.9567-4.31-2.9466-.4979,8.46,2.8939,17.773,10.3986,22.2792,4.1914,3.5193,9.6926,5.0478,14.9687,6.09a40.5877,40.5877,0,0,0,22.1554-2.1531,20.7722,20.7722,0,0,0,7.5188-4.4284l-.3127.4341c7.4647-4.6707,10.5758-13.8772,10.3935-22.34-1.4677,1.0276-2.9177,2.0723-4.4425,2.9984m24.7857-24.3811c-2.9347.1941-6.1969.8283-8.1737,3.21a2.915,2.915,0,0,0,.3156,4.1328c2.3413,2.1413,5.6554,2.7755,8.7376,2.7577,3.0851.0119,6.3963-.6335,8.7376-2.7754a2.988,2.988,0,0,0,.0348-4.3958c-2.4539-2.5643-6.2859-2.9926-9.6519-2.93m-107.3921.0059c-3.0962.1423-6.6185.7409-8.636,3.346-1.1692,1.3921-.489,3.4615.8683,4.4484,2.4569,1.8552,5.6724,2.3,8.6768,2.2835,2.7873-.05,5.7739-.5357,7.9878-2.362,1.6063-1.224,1.8463-4.06.1045-5.2672-2.53-1.9886-5.8725-2.5235-9.0014-2.4487m60.8073-10.0919c1.1025,7.6869,4.1358,15.1168,4.0143,22.9682.0637,2.6162-1.3981,4.8567-2.6717,7.0157a9.1313,9.1313,0,0,0,6.3844-6.22c.8684-3.2038-.35-6.4363-1.32-9.4637-1.6959-4.94-3.4556-9.9564-6.4074-14.3M175.64,195.6383c-1.1432,3.7246-3.1867,7.8492-1.2848,11.6864.9084,2.6139,3.3164,4.1676,5.8028,5.0878-1.4558-2.6621-2.9288-5.539-2.5931-8.6761.7579-7.4068,2.894-14.5781,4.335-21.8657-2.891,4.1676-4.4714,9.0613-6.26,13.7676m45.3578-32.2963a13.7385,13.7385,0,0,0-7.195,22.7949,14.01,14.01,0,0,0,9.8749,4.3669,13.727,13.727,0,1,0-2.68-27.1618m-71.3675.0578a13.708,13.708,0,1,0,16.0829,9.1487A13.7376,13.7376,0,0,0,149.6307,163.4m-15.8688-18.734a24.0219,24.0219,0,0,0-7.4091,11.2759c3.403-3.01,7.0408-6.2428,11.6863-7.0275,3.4327-.6046,6.35,1.7137,9.1488,3.326,4.6477,2.7,8.4627,6.7341,13.5009,8.7664a20.0268,20.0268,0,0,0,15.0879.3757c-7.7395-.4683-14.4767-5.18-19.7386-10.5632-3.4149-3.1926-7.172-6.2081-11.6256-7.7855a11.076,11.076,0,0,0-10.6506,1.6322m81.8906-4.4017a41.1107,41.1107,0,0,0-10.48,6.1147c6.2947,2.611,13.3075.9728,19.5274-1.0387a12.0355,12.0355,0,0,1,11.4611,1.913c5.099,3.8,7.6752,9.823,10.115,15.4843A30.0358,30.0358,0,0,0,241,144.0783a12.8653,12.8653,0,0,0-6.2658-5.1516c-6.1792-2.5124-13.1194-1.1373-19.0815,1.3374M110.58,135.6882c4.4425-12.8333,13.3186-24.3115,25.22-31.0286,10.818,11.0959,25.9,17.2492,41.1316,19.0058a86.6817,86.6817,0,0,0,35.1474-2.911c10.1179-3.1,19.7149-8.3849,27.0632-16.0777,11.0848,6.0317,19.3912,16.3985,24.1693,27.9634,2.6339,6.1851,3.4734,12.9519,3.9128,19.6112.9261,12.5755-.0956,25.191-1.227,37.7168a84.7209,84.7209,0,0,0,6.1214,33.2313,71.9864,71.9864,0,0,1,3.2326,16.8617c1.2218,14.4766-2.4168,29.0807-9.0791,41.8963a70.36,70.36,0,0,1-9.62,13.5535c-1.3166,1.4092-2.5584,2.888-3.82,4.35a72.9282,72.9282,0,0,1-9.817,4.2891,152.1335,152.1335,0,0,1-43.2685,9.5852c-2.9984.0318-5.9969.0726-8.9776.3652-4.7063.48-9.4007-.446-14.1121-.2986a150.4822,150.4822,0,0,1-37.6072-7.166,111.43,111.43,0,0,1-16.98-6.83c-5.03-5.62-9.9527-11.4293-13.4549-18.1641a91.4585,91.4585,0,0,1-6.3267-15.71,80.0024,80.0024,0,0,1-2.645-15.3917c-.4461-10.6128.6275-21.4745,4.74-31.3494,3.7512-10.9922,5.5457-22.8149,4.1906-34.4034a237.0558,237.0558,0,0,1-1.0447-24.4849c.1423-8.2627.4979-16.6876,3.0511-24.6146" style="fill: #ecc6a1"/>
          <path d="M252.3854,436.4255c-4.321,1.0417-8.6968,3.137-11.1685,6.9979-2.3272,3.3578-3.01,7.5284-2.95,11.5427,5.7917.0718,11.736-.006,17.2988-1.8064a8.3542,8.3542,0,0,0,5.479-4.8885C261.1749,442.9433,257.0769,438.39,252.3854,436.4255Zm-116.6646-3.8609a13.902,13.902,0,0,0-.5268,4.5988,9.5116,9.5116,0,0,0,2.4339,2.854,26.6981,26.6981,0,0,0,12.3177,5.9651c2.0553.4742,4.787.37,5.6442,2.7517-5.8324,1.5715-13.0674,1.82-17.5069-2.9866-.6165.3764-1.2218.7528-1.8323,1.14,2.2168,1.7945,4.6655,3.4734,7.54,3.9476,4.1735,1.0276,8.3552-.3646,12.4621-1.0507,1.7249,2.5125,4.9315,2.6829,7.6988,2.5354a7.8531,7.8531,0,0,1-2.0812,5.974c-4.9574,5.5072-11.9531,8.5664-18.6991,11.2782-1.3514-3.881-3.1637-7.8226-6.4978-10.4047-3.45-2.81-8.0745-3.3341-12.37-3.3341-2.9985,3.2156-5.4842,7.1261-5.5339,11.6724.5239,1.378,1.0336,2.9406,2.3532,3.78,2.2664,1.5077,5.1167,1.6411,7.7536,1.5426a63.2529,63.2529,0,0,0,14.4737-2.7814c2.0316-.6224,4.0491-1.3,6.02-2.0894a48.5035,48.5035,0,0,0,10.8329-6.2081,19.9077,19.9077,0,0,0,6.0028-6.6252c-.07-1.3307-.2749-2.651-.4579-3.9587l-.8676.5268c1.713-1.41,3.38-3.1985,3.6668-5.4931a8.701,8.701,0,0,0-2.5124-6.5467c-2.0057-1.1062-4.4248-1.7974-6.6653-.9928-2.0286.6334-3.29,2.44-4.5121,4.049a30.4263,30.4263,0,0,1-17.3566-8.4567c-.1185-.1223-.3586-.3683-.48-.4868C136.6966,433.4618,136.0454,432.8632,135.7208,432.5646Zm100.99-15.568a30.6386,30.6386,0,0,1-15.6117,13.9128c-1.4441-1.3692-2.9689-2.851-4.9952-3.2326-2.4221-.5705-4.8589.6046-6.5956,2.2339a7.758,7.758,0,0,0-1.2966,6.8764,8.4053,8.4053,0,0,0,4.1446,4.5469,7.5277,7.5277,0,0,0,8.4019-2.8162,20.7511,20.7511,0,0,0,14.5286-2.7925c1.8056-1.1143,2.8391-3.0273,3.8031-4.8448l.2082-.3823c-.8017-.0119-1.5893-.017-2.3821-.0119-3.36,5.0042-9.84,6.2318-15.4665,6.22.4572-2.6569,3.2274-3.3311,5.2879-4.3647a28.4893,28.4893,0,0,0,9.6578-8.0574,46.8487,46.8487,0,0,0,2.2168-4.1788C237.99,419.0608,237.362,418.0131,236.7107,416.9966Zm-82.03-24.6494c.9232.0059.5239,1.3892-.217,1.3663C153.5434,393.6956,153.9428,392.3124,154.6807,392.3472Zm61.5416-2.0256a54.2511,54.2511,0,0,1-13.1564,4.7522c.4283,1.8433.9462,3.67,1.5308,5.4753,1.644-1.3255,3.7334-1.7886,5.7042-2.3991,2.5125-.77,4.8308-2.0145,7.2528-3.0155-.0519.246-.1593.738-.2171.9839.55-.75,1.12-1.4788,1.6849-2.2168A9.0711,9.0711,0,0,0,216.2223,390.3216Zm-58.6824-.9032c-.5638.7868-1.1284,1.5714-1.7019,2.3583-.0718-.3934-.2282-1.1921-.3008-1.5885a15.74,15.74,0,0,0-2.1531,2.9607c-.8853,1.8782-1.8174,3.7393-2.7406,5.6057,1.3077-1.4611,2.5465-2.9807,3.8031-4.4825a40.4913,40.4913,0,0,0,14.3811,4.3351q.59-2.1006,1.1921-4.1817A45.5718,45.5718,0,0,1,157.54,389.4184Zm140.9124-3.5193a105.0216,105.0216,0,0,0-12.8792.8424,2.3955,2.3955,0,0,0-2.1531,1.956c9.5392-1.3981,19.2429-.7869,28.7621.4571,4.547.7039,9.1836,1.3025,13.432,3.1867.0408-.1652.1215-.492.1593-.6572q.1389-1.3014.263-2.5873A116.64,116.64,0,0,0,298.4523,385.8991Zm-126.878-13.455a14.4536,14.4536,0,0,0-1.0625,3.389c4.8048,1.1224,9.7185,1.6729,14.5463,2.7117a9.6249,9.6249,0,0,0,4.5988-.1334c4.6537-1.0676,9.4378-1.4441,14.0833-2.59a22.8294,22.8294,0,0,0-.9491-2.7606,7.7952,7.7952,0,0,0-3.1059-.206c-4.1877.2638-8.3783.4749-12.5778.4023C181.9233,373.205,176.7606,372.4611,171.5743,372.4441Zm62.0305-4.4514a17.2718,17.2718,0,0,0-4.6737.9c-8.4137,2.3413-17.1454,3.0793-25.8074,3.9009.2719,1.1292.5527,2.2605.8336,3.3978-5.6784,1.0855-11.5538,1.3752-17.0328,3.2993,1.0506.9728,1.9478,2.5762,3.6149,2.3472a167.7739,167.7739,0,0,0,18.7635-1.7626c8.5546-1.3655,17.2-3.4786,24.6813-8.0078,1.19-.958.9957-2.645,1.2187-3.9913A10.18,10.18,0,0,0,233.6048,367.9927Zm-93.0162-1.5315c-.24,0-.4771.0119-.7172.0319-1.4966.9817-.6631,3.323.4394,4.3358,12.897,7.6173,28.0249,10.329,42.8113,11.004,1.7649.3616,2.7229-1.3173,3.6149-2.5183-5.3346-1.7019-10.9922-2.0894-16.4882-3.1289.286-1.3255.5786-2.6451.8565-3.9646-8.6072-1.0914-17.3855-1.936-25.6252-4.7959A17.5037,17.5037,0,0,0,140.5886,366.4612ZM309.56,364.7683c-.2719.0059-.5468.0118-.8216.0237-1.6789.1823-3.8261.41-4.6426,2.13a49.7954,49.7954,0,0,0-3.3919,10.4965,108.6689,108.6689,0,0,1,27.2574,3.32,30.1031,30.1031,0,0,0-1.0736-10.6765c-.8224-2.0953-3.2415-2.7525-5.1663-3.4386A43.48,43.48,0,0,0,309.56,364.7683Zm-4.7351-21.7613c-7.5914-.0637-15.18,1.1343-21.9117,4.8048.1363,1.0358.246,2.0745.33,3.1251.1941,2.0086.3445,4.0261.423,6.0518,9.7038-4.2484,19.7727-8.2456,30.447-9.0036.3179-1.4121.6046-2.8273.9869-4.2224A85.7753,85.7753,0,0,0,304.8249,343.007ZM46.9738,335.1926a4.7042,4.7042,0,0,0-3.6031,1.181,30.1688,30.1688,0,0,0-5.4272,9.085,101.0442,101.0442,0,0,1,26.0712,8.6072c.6454-3.7912,1.6063-7.6114,1.3663-11.4782-.8225-2.13-3.1089-3.1866-5.0449-4.1187a44.7365,44.7365,0,0,0-12.0717-3.2156C47.848,335.2244,47.4139,335.1955,46.9738,335.1926ZM217.71,326.927a5.0646,5.0646,0,0,1,4.5847,2.7754,5.3109,5.3109,0,0,1-2.5354,7.1513c-2.891,1.5026-6.7119-.6364-7.2357-3.7705a5.2287,5.2287,0,0,1,3.3281-5.91A5.8319,5.8319,0,0,1,217.71,326.927Zm-146.127-6.8823a30.19,30.19,0,0,1-1.4737,4.06c7.7107,6.7119,13.58,15.2672,18.5087,24.1462.6194-1.6033,1.2737-3.1859,2.0057-4.7344.732-1.5255,1.5485-3.0044,2.4169-4.4543C88.3633,330.4493,80.1384,324.4383,71.5831,320.0447Zm93.2126-.24a2.8019,2.8019,0,0,1,2.5124,2.4687c.8972,4.1447,2.0434,8.2338,3.0881,12.3406.738,2.6221-3.4267,4.37-4.767,1.9649-1.6841-4.1876-2.5087-8.6879-3.5075-13.0785a2.7745,2.7745,0,0,1,1.8345-3.58,2.1837,2.1837,0,0,1,.5876-.1156A1.7947,1.7947,0,0,1,164.7957,319.8046Zm-10.3609-1.14a1.7275,1.7275,0,0,1,1.7715.9692c.9054,2.4946,1.1573,5.18,1.913,7.7277.5527,2.4338,1.6552,4.86,1.2966,7.4061a2.4135,2.4135,0,0,1-4.301-.1823,90.3925,90.3925,0,0,1-2.9984-11.2151c-.1653-1.5485-.79-3.7942,1.0157-4.61A10.5791,10.5791,0,0,1,154.4348,318.6643Zm-10.804-1.9278a2.34,2.34,0,0,1,2.0086,1.0476,17.7829,17.7829,0,0,1,1.2788,4.3736c.692,3.2149,1.7486,6.3467,2.3939,9.5711.512,2.3465-2.9347,3.8053-4.4314,2.13a11.3983,11.3983,0,0,1-1.5885-4.0579,90.0665,90.0665,0,0,1-2.3591-10.2076,2.5619,2.5619,0,0,1,1.32-2.57A3.19,3.19,0,0,1,143.6308,316.7365Zm-50.1271-.5876c-.0926,5.262,1.4322,11.12,6.24,13.9936,1.0795-1.161,2.2049-2.2664,3.3422-3.3689A16.3142,16.3142,0,0,1,93.5037,316.1489Zm-3.6386-8.7316c-.2512,1.6263-.4453,3.2615-.6335,4.9C90.4126,311.0033,91.4514,308.8613,89.8651,307.4173Zm-2.1642-2.1938c-.4231,3.3311-1.0743,6.6245-1.3025,9.9793.3934-.1763,1.1691-.5209,1.5626-.692.3274-2.7406.7787-5.4724,1.19-8.196C88.6759,305.9266,88.1958,305.568,87.7009,305.2235Zm-5.6324-.2719c-.6164.223-1.2329.4482-1.8493.6831.0548.2111.17.63.223.8417.3645.6282,1.0736.9468,1.6144,1.421C82.0166,306.9083,82.0166,305.9266,82.0685,304.9516Zm2.4546-.8565c-.3534.1244-1.0624.3756-1.4158.506-.312,1.1262-.57,2.2694-.8447,3.41.509.5208,1.0329,1.0217,1.5826,1.5077C84.103,307.7152,84.37,305.91,84.5231,304.0951Zm-61.157-.3853A5.9322,5.9322,0,0,0,18,306.9713c-2.0316,4.078-2.1412,8.8072-2.0427,13.2734a166.33,166.33,0,0,0,6.1555,34.2264c1.1662,3.7364,2.3013,7.5973,4.541,10.8558.5357.944,1.696,1.0017,2.634,1.2707A34.41,34.41,0,0,0,32.17,356.167c-1.38-1.7915-3.1459-3.25-4.4773-5.0708a2.5555,2.5555,0,0,1,1.3662-4.0083,12.1975,12.1975,0,0,1,3.6816.046c.0926-.246.2868-.7321.3846-.9781a195.98,195.98,0,0,0-.2342-21.4286c-.1044-1.2966-.2341-2.5813-.3645-3.872,7.235-.7757,14.43-1.9367,21.6946-2.42.1823-1.2069.4283-2.3932.6572-3.589-1.4388.1393-2.877.2749-4.3069.4579-4.1676.6216-8.3493,1.12-12.54,1.5478-1.9946.2348-3.9972.423-6.0029.53a36.2072,36.2072,0,0,0-2.4687-8.5264,10.5135,10.5135,0,0,0-4.0661-4.6188A4.9,4.9,0,0,0,23.3661,303.71Zm62.1758-.0837c-.3534,2.5235-.7906,5.0419-.9788,7.5884.1216,1.5892.3994,3.1607.6224,4.74l.0926-.4282c.8165-3.7046,1.01-7.5218,1.9479-11.2033C86.6584,304.0891,86.1,303.8543,85.5419,303.6261Zm33.5692-5.0908a16.2547,16.2547,0,0,0-2.894,3.93,12.0843,12.0843,0,0,0-.3327,4.541c1.4181,5.2938,2.3524,10.761,4.7055,15.75,1.76,3.6905,3.7076,7.6091,7.2528,9.8986a60.1584,60.1584,0,0,0,11.9154,5.9791,107.9237,107.9237,0,0,0,12.8155,3.6609,112.9427,112.9427,0,0,0,22.5689,2.113,8.6554,8.6554,0,0,0,5.1575-1.3025,56.332,56.332,0,0,0,7.392-7.0935,48.48,48.48,0,0,0,7.1483,7.3047c2.3532,1.8174,5.4843,1.4729,8.2686,1.5314a113.6644,113.6644,0,0,0,19.643-1.4559A118.6582,118.6582,0,0,0,235.55,340.09a55.5583,55.5583,0,0,0,12.1035-5.5976c3.9394-2.4546,6.1444-6.7489,8.0982-10.8039,2.2257-4.6426,3.0711-9.7593,4.8129-14.5693-.0955-1.8723.0408-3.855-.7927-5.5858a19.4454,19.4454,0,0,0-3.6668-4.57l-.5876.0319c-.9031.266-1.8063.5468-2.6858.8654a73.0893,73.0893,0,0,1-9.817,4.2891,152.0272,152.0272,0,0,1-43.2685,9.5822c-.3126,4.2462-.9054,8.4656-1.3573,12.7029-.246.92-.0926,2.3124-1.1892,2.7117a52.2151,52.2151,0,0,1-6.2022,1.7945c-4.4721,1.473-8.79-1.21-13.05-2.2316-.5986-4.9515-1.01-9.9267-1.2906-14.9079a150.4822,150.4822,0,0,1-37.6072-7.166,111.43,111.43,0,0,1-16.98-6.83C121.0878,299.3658,120.092,298.9635,119.1111,298.5353Zm177.4482-2.2116a2.9991,2.9991,0,0,0-2.185.9231c-.8046,3.3052-1.1432,6.703-1.8382,10.0342-.2111,1.9738-.503,3.9335-.8335,5.8932a41.7849,41.7849,0,0,1,8.6309,4.44,10.7641,10.7641,0,0,0,4.2573,1.5567c10.52,1.4559,21.0752,2.73,31.5665,4.4-.2112,1.5248-.4105,3.0474-.5468,4.59a174.106,174.106,0,0,0,.1882,30.2121,43.451,43.451,0,0,0,1.444,7.6121c.446,1.2907.9928,2.7925,2.3531,3.383a8.8811,8.8811,0,0,0,3.1141-3.832,61.5531,61.5531,0,0,0,4.11-11.2641,180.4058,180.4058,0,0,0,5.4842-26.5335c-2.8332.1882-5.9006.5268-8.5-.8624-1.82-1.1551-1.9856-3.5512-2.0664-5.4931-.0059-5.1345.0689-10.6076,2.8792-15.1138a10.7347,10.7347,0,0,0-5.4087,5.4212,43.7466,43.7466,0,0,0-2.6339,8.4968c-2.0027-.3179-4.0083-.6165-6.02-.8654-4.095-.4683-8.1848-1.0128-12.2569-1.6641q-5.8647-.8635-11.7531-1.5856-5.1144-.6212-10.1934-1.4129,1.2069-7.2539,2.2546-14.5344c.1674-1.1143.2052-2.4369-.77-3.2037A1.7423,1.7423,0,0,0,296.5593,296.3237ZM72.2455,294.5469a3.0545,3.0545,0,0,0-.8684.0956,3.4668,3.4668,0,0,0-.9431,3.3919c.4223,3.7305,1.0736,7.4291,1.3662,11.1774,1.5137-.75,3.0444-1.447,4.57-2.1531.0288-.6631.0607-1.3144.1007-1.9656-.7639-3.3023-1.221-6.6593-1.6611-10.01A12.4443,12.4443,0,0,0,72.2455,294.5469Z" style="fill: #87bc42"/>
          <path d="M171.5743,372.4441c5.1863.017,10.349.7609,15.5331.8128,4.2.0726,8.39-.1385,12.5748-.4023a7.8063,7.8063,0,0,1,3.1089.206,22.8294,22.8294,0,0,1,.9491,2.7606c-4.6455,1.1461-9.43,1.5226-14.0833,2.59a9.6249,9.6249,0,0,1-4.5988.1334c-4.8278-1.0388-9.7415-1.5893-14.5463-2.7117A14.4536,14.4536,0,0,1,171.5743,372.4441ZM145.28,366.6035l.2.8217c8.24,2.86,17.018,3.7045,25.6252,4.7959-.2779,1.32-.5705,2.6391-.8565,3.9646,5.496,1.0395,11.1536,1.427,16.4882,3.1289l.1875.1763c5.479-1.9241,11.3544-2.2138,17.0328-3.2993-.2809-1.1373-.5617-2.2686-.8336-3.3978,8.662-.8216,17.3937-1.56,25.8074-3.9009.2053-.5935.4105-1.19.6224-1.7774a145.3547,145.3547,0,0,1-27.0381,3.9016c-14.8989,1.45-29.9313.2341-44.6717-2.1479C153.6242,368.2765,149.564,366.7628,145.28,366.6035Zm-2.1931-8.0952c.1993,1.5893.4334,3.1778.6164,4.77,3.4667.7728,6.83,1.9649,10.3379,2.5814a186.4615,186.4615,0,0,0,71.3416.1881c2-.4112,4.1817-.7928,5.6606-2.3472.2289-1.2736.35-2.5643.4631-3.849-9.9327,3.0155-20.3544,3.86-30.6582,4.6885a185.0961,185.0961,0,0,1-43.1025-2.405A84.5575,84.5575,0,0,1,143.087,358.5083Zm8.48-4.8011c-2.8421.0948-5.6932.2489-8.52.5816.0408.469.1156,1.4092.1563,1.8842a73.3891,73.3891,0,0,0,9.3192,2.6391,195.7339,195.7339,0,0,0,48.8653,3.6149c10.2631-.7031,20.6092-1.7537,30.473-4.8478l-.1127-1.9878c-2.6168-.3186-5.2389-.6343-7.864-.7706-6.2718,1.7226-12.7948,2.1131-19.2377,2.7177-6.4015.3882-12.8037,1.0795-19.223.7268-6.6482-.3734-13.2956-.8076-19.8971-1.6759C160.8192,355.93,156.0122,355.5217,151.5667,353.7072Zm29.0052-.9091c-6.8446-.0148-13.6861.1245-20.5225.4572a43.0338,43.0338,0,0,0,5.03,1.04c7.6929.8624,15.4206,1.5366,23.1653,1.7648,4.2055,0,8.39-.35,12.5926-.3149,4.6714-.2408,9.4347-.3186,13.935-1.7426C203.39,353.2812,191.9812,352.824,180.5719,352.7981Zm-26.1371-34.1338a10.5791,10.5791,0,0,0-1.3026.0956c-1.8056.8158-1.181,3.0615-1.0157,4.61a90.3925,90.3925,0,0,0,2.9984,11.2151,2.4135,2.4135,0,0,0,4.301.1823c.3586-2.5465-.7439-4.9723-1.2966-7.4061-.7557-2.5473-1.0076-5.2331-1.913-7.7277A1.7275,1.7275,0,0,0,154.4348,318.6643Zm-65.2839-12.35c-.4112,2.7236-.8625,5.4554-1.19,8.196a7.1588,7.1588,0,0,0,1.2706-2.1938c.1882-1.6382.3823-3.2734.6335-4.9A1.8753,1.8753,0,0,0,89.1509,306.3148ZM79.802,305.51c-.7779.0111-.2719,1.9508.64.9662-.0526-.2112-.1682-.6306-.223-.8417A.8619.8619,0,0,0,79.802,305.51Zm3.3053-.9091c-.2631.0867-.781.2638-1.0388.3505-.0519.975-.0519,1.9567-.0119,2.9458l.0526.695.1534-.5816C82.5375,306.8705,82.7953,305.7273,83.1073,304.6011Zm4.1187-.2778c-.938,3.6815-1.1314,7.4987-1.9479,11.2033.2638.0755.7987.223,1.0625.2986l.0578-.6224c.2282-3.3548.8794-6.6482,1.3025-9.9793C87.5794,305.0005,87.3445,304.5492,87.226,304.3233Zm-1.6841-.6972c-.2579.1185-.7676.3526-1.0188.469-.1533,1.8145-.42,3.62-.6779,5.4234a3.4716,3.4716,0,0,0,.7179,1.696C84.7513,308.668,85.1885,306.15,85.5419,303.6261Zm173.5554-4.8389a25.7448,25.7448,0,0,0-2.9925.1763,19.4454,19.4454,0,0,1,3.6668,4.57c.8335,1.7308.6972,3.7135.7927,5.5858,2.4806,8.5953,1.3144,17.8248-1.7248,26.1171,2.2109,1.6611,4.9345-.1593,6.9749-1.2618,4.2143-4.4543,5.87-10.6854,6.1444-16.6705.1882-5.5568-.5875-11.6-4.46-15.8947A13.0431,13.0431,0,0,0,259.0973,298.7872Zm-144.5791-2.5065a13.1706,13.1706,0,0,0-7.0735,7.6143,35.2472,35.2472,0,0,0-.0578,23.3906,13.2174,13.2174,0,0,0,3.6609,5.0567c1.7078,1.3625,3.9912,1.3744,6.0636,1.5137-2.9-8.5961-3.8987-18.0657-1.227-26.85a12.0843,12.0843,0,0,1,.3327-4.541,16.2547,16.2547,0,0,1,2.894-3.93C117.5455,297.8521,116.0259,297.0675,114.5182,296.2807Zm71.6742-23.0638a10.6748,10.6748,0,0,0-6.8067,2.1619,7.8813,7.8813,0,0,0-1.08,11.3886c2.2864,2.2775,6.06,2.2027,8.8353.9461,2.5992-1.244,2.9089-4.9982,1.3781-7.1572-1.5655-1.7508-4.5818-.7-5.056,1.5137,1.3367-.5816,3.0445-2.402,4.4277-.9291a4.4994,4.4994,0,0,1-.3326,5.276,7.6213,7.6213,0,0,1-7.3254.7032c-3.4267-1.7827-3.8668-6.8238-1.6523-9.7156,3.832-4.83,12.4333-4.35,15.7007.8624,2.1649,4.0721,1.6959,10.3728-2.7177,12.7778-1.4759.97-3.6.7179-4.7581,2.1419a10.2215,10.2215,0,0,0,7.3113-3.114c2.1613-2.3243,2.4539-5.7221,2.0894-8.7317a8.7987,8.7987,0,0,0-4.57-6.7237A12.21,12.21,0,0,0,186.1924,273.2169ZM155.598,214.0625c-.4949,8.46,2.8969,17.773,10.4016,22.2792-4.6536-5.0649-6.2192-12.1754-6.0836-18.8814l-.0052-.4512C158.4431,216.0682,157.0279,215.0494,155.598,214.0625Zm65.1253-.1185c-1.4677,1.0276-2.9177,2.0723-4.4425,2.9984l-.0118.4631c.1156,6.5208-1.3751,13.3334-5.6265,18.4443l-.3127.4341C217.7945,231.6132,220.9086,222.4067,220.7233,213.944Zm3.1082-50.8828a13.5083,13.5083,0,0,0-2.8333.2808,13.7385,13.7385,0,0,0-7.195,22.7949,13.667,13.667,0,0,0,21.1649-1.3952,13.699,13.699,0,0,0-11.1366-21.68Zm-71.0349-.0259a12.3964,12.3964,0,0,0-3.1659.3645,13.708,13.708,0,1,0,16.0829,9.1487A13.8755,13.8755,0,0,0,152.7966,163.0353Zm-12.5318-20.6818a10.581,10.581,0,0,0-6.5029,2.3123,24.0219,24.0219,0,0,0-7.4091,11.2759c3.403-3.01,7.0408-6.2428,11.6834-7.0275,3.4326-.6046,6.3526,1.7167,9.1517,3.326,4.6477,2.7,8.4627,6.7341,13.5009,8.7664a20.0268,20.0268,0,0,0,15.0879.3757c-7.7395-.4683-14.4767-5.1775-19.7356-10.5632-3.4179-3.1926-7.175-6.2081-11.6286-7.7855A11.4892,11.4892,0,0,0,140.2648,142.3535Zm87.2883-4.7582a31.7488,31.7488,0,0,0-11.9006,2.6688,41.1107,41.1107,0,0,0-10.48,6.1147c6.2947,2.611,13.3075.9728,19.5274-1.0387a12.0355,12.0355,0,0,1,11.4611,1.913c5.099,3.8,7.6752,9.823,10.115,15.4843a30.02,30.02,0,0,0-5.279-18.6591,12.8455,12.8455,0,0,0-6.2629-5.1516A18.833,18.833,0,0,0,227.5531,137.5953Z" style="fill: #262120"/>
          <path d="M172.8012,248.8942c8.0026,6.8157,21.2523,7.907,29.283.5668-4.1009,1.5137-8.19,3.3919-12.6532,3.4156C183.59,253.276,178.118,250.9636,172.8012,248.8942Zm-39.1268-56.327c-3.0933.1423-6.6185.7409-8.636,3.346-1.1692,1.3921-.492,3.4615.8683,4.4484,2.4569,1.8552,5.6724,2.3,8.6768,2.2864,2.7873-.0526,5.7739-.5386,7.9878-2.3679,1.6063-1.221,1.8463-4.06.1045-5.2642C140.1463,193.0273,136.8033,192.4924,133.6744,192.5672Zm107.3921-.0059c-2.9347.1941-6.1969.8283-8.1737,3.2074a2.9183,2.9183,0,0,0,.3156,4.1357c2.3413,2.1413,5.6554,2.7755,8.7376,2.7577,3.0851.0119,6.3963-.6335,8.7376-2.7754a2.9881,2.9881,0,0,0,.0348-4.3958C248.2645,192.9266,244.43,192.4983,241.0665,192.5613Zm-46.5848-10.086c1.1025,7.6869,4.1328,15.1168,4.0143,22.9682.0637,2.6162-1.3981,4.8567-2.6717,7.0157a9.1273,9.1273,0,0,0,6.3844-6.22c.8684-3.2038-.3467-6.4363-1.32-9.4637C199.1932,191.8352,197.4335,186.8192,194.4817,182.4753ZM181.9,181.8677c-2.891,4.1706-4.4714,9.0643-6.26,13.7706-1.1432,3.7246-3.1867,7.8492-1.2848,11.6864.9084,2.6139,3.3164,4.1676,5.8028,5.0878-1.4558-2.6621-2.9288-5.539-2.5931-8.6761C178.3232,196.33,180.4593,189.1553,181.9,181.8677Z" style="fill: #f39e9e"/>
          <path d="M291.8678,358.1845a115.1157,115.1157,0,0,1-2.1182,12.69C294.4788,368.8173,295.2368,361.77,291.8678,358.1845Zm31.1094-13.1052c1.424-.0756,2.7384,1.896,1.8382,3.1488a2.0192,2.0192,0,0,1-3.5134-.0548,2.04,2.04,0,0,1,1.3892-3.05A1.5889,1.5889,0,0,1,322.9772,345.0793Zm.3505-6.5926a13.5019,13.5019,0,0,0-3.1489.3993,11.139,11.139,0,0,0-5.079,4.8767c-.3823,1.3951-.669,2.81-.9869,4.2224,1.01,2.39,2.0168,5.076,4.3959,6.4512,2.88,1.8811,6.6363,1.4588,9.5911-.0259,1.8841-1.7886,3.6038-4.078,3.6149-6.7927a8.6469,8.6469,0,0,0-5.2931-8.5094A7.5517,7.5517,0,0,0,323.3277,338.4867ZM62.6107,317.5152a2.5859,2.5859,0,0,1,2.136,1.1862,5.8813,5.8813,0,0,1-.217,2.2753,7.2706,7.2706,0,0,1-2.8451.26,2.69,2.69,0,0,1,.0755-3.649A3.3672,3.3672,0,0,1,62.6107,317.5152Zm.4053-6.9231c-3.1748.31-5.8725,2.1242-8.1382,4.2543-.2289,1.1958-.4749,2.3821-.6572,3.589-.0807.6831-.13,1.3692-.1593,2.0664.915,2.828,2.4895,5.8147,5.4642,6.8823a8.8142,8.8142,0,0,0,10.5839-3.2792,30.19,30.19,0,0,0,1.4737-4.06,10.4433,10.4433,0,0,0-4.5818-8.3264A27.488,27.488,0,0,0,63.016,310.5921ZM271.42,300.81a11.3719,11.3719,0,0,0-3.9217.5994c3.8728,4.295,4.6485,10.3379,4.46,15.8947-.2749,5.9851-1.93,12.2162-6.1444,16.6705a19.8343,19.8343,0,0,0,13.0556-1.2966c7.9589-4.3706,10.9344-15.5272,6.5786-23.4113-1.3314-2.5583-3.5312-4.4773-5.5917-6.4252A25.7586,25.7586,0,0,0,271.42,300.81ZM97.8936,275.121a60.9058,60.9058,0,0,0,9.4992,15.7214,24.3735,24.3735,0,0,0,5.6258,4.8937,34.838,34.838,0,0,0-10.6765.7617c-1.7916,1.421-3.62,2.8043-5.4643,4.1646a27.6536,27.6536,0,0,0-3.157,6.6452c-.7965,2.8852-.492,5.9066-.2171,8.8413a16.3142,16.3142,0,0,0,9.5822,10.6247,25.7771,25.7771,0,0,0,4.301.512,35.2472,35.2472,0,0,1,.0578-23.3906,13.1706,13.1706,0,0,1,7.0735-7.6143c1.5077.7868,3.0273,1.5714,4.5929,2.2546.9809.4282,1.9767.83,2.9577,1.2706-5.03-5.62-9.9527-11.4293-13.4549-18.1641C104.5477,280.357,101.6071,277.0748,97.8936,275.121Zm179.5124-.5616c-3.5342,2.7095-7.0883,5.4909-11.1374,7.398a70.1262,70.1262,0,0,1-9.617,13.5535c-1.3166,1.4092-2.5584,2.888-3.82,4.35.88-.3186,1.7827-.5994,2.6858-.8654,3.3979-2.0694,7.1365-3.5712,10.3461-5.9421A68.5611,68.5611,0,0,0,277.406,274.5594Z" style="fill: #9a98a0"/>
          <path d="M79.84,341.2562a1.2344,1.2344,0,0,0-.506.1652,6.7178,6.7178,0,0,0-1.7656,7.3106c2.1938.0059,2.8044-2.9148,3.1748-4.66C80.8445,343.2129,80.87,341.19,79.84,341.2562ZM217.71,326.927a5.8319,5.8319,0,0,0-1.8583.246,5.2287,5.2287,0,0,0-3.3281,5.91c.5238,3.1341,4.3447,5.2731,7.2357,3.7705a5.3109,5.3109,0,0,0,2.5354-7.1513A5.0646,5.0646,0,0,0,217.71,326.927Zm-53.1663-7.1224a2.1837,2.1837,0,0,0-.5876.1156,2.7745,2.7745,0,0,0-1.8345,3.58c.9988,4.3906,1.8234,8.8909,3.5075,13.0785,1.34,2.405,5.505.6572,4.767-1.9649-1.0447-4.1068-2.1909-8.1959-3.0881-12.3406A2.77,2.77,0,0,0,164.5438,319.8046ZM78.4077,308.173a2.9245,2.9245,0,0,0-1.2507.3068,3.4333,3.4333,0,0,0-.3038,6.0777c2.11,1.3921,5.1286-.469,5.12-2.9148A3.53,3.53,0,0,0,78.4077,308.173ZM345.532,306.26c-.31,0-.6164.0022-.915.0082-2.81,4.5062-2.8851,9.9793-2.8792,15.1138.0808,1.9419.246,4.338,2.0664,5.4931,2.5991,1.3892,5.6665,1.0506,8.5.8624a24.7976,24.7976,0,0,0,1.3693-6.6015c.3674-4.2721.3882-9.0939-2.2717-12.697C350.0471,306.5319,347.7022,306.2652,345.532,306.26Zm-29.6942-1.3084.11.5356c.7876,4.0543,1.5574,8.1152,2.35,12.17,4.0721.6513,8.1619,1.1958,12.2569,1.6641-.4571-3.5594-1.28-7.0616-1.96-10.578C324.5228,307.012,320.0921,306.1726,315.8378,304.9516ZM53.1589,302.677c-4.278,1.0157-8.5153,2.1879-12.7578,3.3452-.8276,3.6008-1.6292,7.21-2.37,10.83,4.1906-.4283,8.3723-.9262,12.54-1.5478.6572-4.078,1.6181-8.0982,2.4746-12.1354Zm245.4468-2.5532q-1.0425,7.2717-2.2546,14.5344,5.079.79,10.1934,1.4129c-1.0217-4.8914-1.9738-9.7911-2.9636-14.68A50.0371,50.0371,0,0,0,298.6057,300.1238ZM70.434,298.0344c-1.6441.4053-3.2823.8276-4.9263,1.25q-1.3449,5.6313-2.4917,11.3078a27.488,27.488,0,0,1,3.9853,1.1262c1.5774-.8743,3.1778-1.72,4.7989-2.5065C71.5076,305.4635,70.8563,301.7649,70.434,298.0344Zm219.6105-1.96c.7957,3.7394,1.5544,7.4936,2.4916,11.2063.695-3.3312,1.0336-6.729,1.8382-10.0342Q292.2083,296.6479,290.0445,296.0747Zm-211.0034-1.736c-1.4032.292-2.81.5639-4.2313.7439.44,3.3512.8972,6.7082,1.6611,10.01C77.4208,301.5278,78.2424,297.93,79.0411,294.3387Zm190.8861-3.4615a32.5644,32.5644,0,0,1-4.0639,2.1761c.42,2.8043,1.1092,5.5687,1.6352,8.356,4.1625-1.433,8.4338-.0408,12.3584,1.4321-.6275-3.357-1.444-6.6741-2.0782-10.0282A79.901,79.901,0,0,0,269.9272,290.8772Zm-168.39-2.2546c-3.3163,1.0329-6.8186,1.467-10.063,2.7347l-.1586.4171c-.8861,3.6031-1.7308,7.218-2.51,10.85,2.674-.7173,5.36-1.3922,8.0715-1.962,1.8442-1.36,3.6727-2.7436,5.4643-4.1646.44-2.1591.9261-4.307,1.4358-6.4482C103.0281,289.5688,102.2813,289.0968,101.5374,288.6226Z" style="fill: #d41d29"/>
        </g>
        <g>
          <path d="M162.432,540.1308a37.12,37.12,0,0,1-7.4572-.6093,12.62,12.62,0,0,1-9.7765-10.9233c-.9587-6.5416.6027-13.0174,2.1124-19.28.2116-.8776.4225-1.7524.6258-2.6243l.1321-.568s1.0961-.0108,1.3566-.0159c-.3252-.7018-.6457-1.4051-.9511-2.1127a8.9382,8.9382,0,0,1-.8216-.8864c-.4453-.5267-.95-1.1236-1.3537-1.1236a.7621.7621,0,0,0-.3918.14,25.71,25.71,0,0,0-2.5455,3.4947c-.2413.3741-.4829.7475-.73,1.1165l-.2185.327s-1.9452.0123-2.7263.0166c.3752.4429.7011.8473,1.0018,1.24l.3259.4276-.3046.4421c-1.4138,2.0563-2.888,4.1177-4.3138,6.1118-1.9043,2.6626-3.8652,5.4049-5.7156,8.18q1.8108.0118,3.6231.0116c2.4254,0,4.6673-.016,6.8531-.0492l.4153-.0065,1.7246,2.7-.1415.3524a60.8412,60.8412,0,0,1-7.255,13.1844l-.2167.2974-.3682.0072c-4.71.0869-9.6286.1288-15.0364.1288-4.6662,0-9.629-.0311-15.6181-.0969l-.369-.0044-.3169-.43c-.317-.43-.83-1.1265-1.1067-1.4883l-.3307-.4319.313-.445q4.3455-6.18,8.7013-12.3473,6.2515-8.8628,12.483-17.7334c-3.8413-.008-7.3313-.0362-10.61-.0847l-.49-.0072-.1848-.4537a7.9132,7.9132,0,0,1-.5586-4.4809q-5.5069-.0369-11.0138-.0311c-2.3866,0-11.9367.0116-14.3244.0116q-6.111,0-12.2225-.04l-.3647-.0029-.22-.2909C72.78,500.08,70.8861,499.85,69.0277,499.85c-.5268,0-1.0586.02-1.5864.0384-.5387.02-1.0734.04-1.5961.04-.1357,0-.2714-.0015-.4052-.0044-2.8685.0109-5.7544.0152-8.642.0152q-5.2041,0-10.4086-.0116-5.2041-.0086-10.4086-.0108c-6.9909,0-12.4566.0231-17.5883.0752l-.0239,1.9138-.3133.2178a7.8657,7.8657,0,0,1-4.4472,1.7481l-.0388-.0007c-.3625.0318-.7817.0636-1.2086.0636-2.5643,0-3.2426-1.319-3.36-2.4253-1.8863-10.76-3.6557-21.7787-5.3673-32.4344l-.9453-5.8817a15.3218,15.3218,0,0,0-1.2322-3.4361,11.2542,11.2542,0,0,1-1.4192-5.839c.0441-.7416.0745-1.5209.1053-2.3038.1295-3.2856.2633-6.6834,1.5871-9.8265.6146-1.2857,1.9894-2.7791,5.13-2.7791a12.98,12.98,0,0,1,2.4539.2554c2.5143.2634,4.4592,1.8053,6.34,3.2965.4569.3618.9105.7221,1.37,1.0585l.2442.18s.3068,1.9065.3592,2.2307c6.9349-1.4934,13.954-3.1077,20.75-4.6705l5.05-1.1591c.2457-1.0181.4957-2.0281.7464-3.04l.2941-1.1895,1.1866.0022c1.1468,0,2.2933-.0087,3.4394-.0167,1.15-.0086,2.2994-.0173,3.4484-.0173,2.8454,0,5.0189.055,7.0481.1794.2.0145.391.021.5817.021a17.8326,17.8326,0,0,0,4.2686-.71c.5661-.1411,1.1312-.2815,1.6967-.4016,19.272-4.5026,38.905-8.9756,57.8916-13.3017l8.0759-1.8385a28.52,28.52,0,0,0,5.4906-1.6178q5.6747-2.5994,11.35-5.2407,4.3846-2.0328,8.7734-4.0576c.23-.089.4117-.1665.5947-.2439a5.4576,5.4576,0,0,1,2.1319-.5694,3.0707,3.0707,0,0,1,.4432.0326l.1711.0253.1422.0984a53.2659,53.2659,0,0,1,6.17,5.2717c1.0354.98,2.1059,1.9941,3.1952,2.9355q1.914,1.6388,3.8211,3.2972c2.26,1.9579,4.5956,3.98,6.9319,5.928,2.6059-.0644,5.1886-.0731,7.1664-.0731,1.0267,0,5.1314.01,6.1566.01,2.3392,0,4.1546-.0137,5.8383-.0441,2.4731-2.0245,5.0171-4.0323,7.4793-5.9758,2.8819-2.2748,5.8614-4.627,8.7339-7.01.5832-.466,1.123-.963,1.6931-1.489a16.2459,16.2459,0,0,1,3.9745-2.9666l.21-.0991.2286.0383a17.1265,17.1265,0,0,1,4.7892,1.8183c.7836.3922,1.5245.7626,2.2907,1.07,2.2589,1.0014,4.5055,2.0658,6.6776,3.0961,3.6344,1.7228,7.3918,3.5041,11.1839,4.9794,10.4306,2.44,21.05,4.855,31.3208,7.19,13.0651,2.9709,26.5744,6.0431,39.8334,9.1977a23.6764,23.6764,0,0,0,5.4642.492c.4747,0,.9486-.0043,1.4232-.0094.4783-.0043.9559-.0094,1.4327-.0094.2409,0,1.15.0094,1.15.0094l1.086,1.9543.83.1787c1.568.3387,3.1836.6881,4.7863.9978q.7315-.9843,1.4681-1.963l.861-1.149.3646-.0043q3.2788-.04,6.5554-.0405c2.5519,0,5.0843.0195,7.5256.0586l.4819.0079.1881.4436c.2865.6729.5781,1.3574.8726,2.0389l.1751.4052-.2728.3466q-1.3555,1.7235-2.6873,3.468,2.1035.4753,4.2075.9456c3.473.7786,7.0574,1.5824,10.59,2.421q.24-.903.4877-1.8031l.1989-.7293.2251-.1534c.42-.2872.84-.5882,1.2618-.8907,2.3776-1.7025,4.8362-3.4629,7.9829-3.4629q.1943,0,.3907.0087a4.16,4.16,0,0,1,.7829-.0752c1.7061,0,3.0577,1.0578,4.2508,1.99l.508.3951.0861.3972c1.353,6.2587,2.8869,13.3523-.508,19.3592a7.8566,7.8566,0,0,0-.6056,2.0194q-1.2807,7.6581-2.5034,15.3247c-1.2677,7.8549-2.5788,15.9774-3.9774,23.9422l-.0441.251-.1889.17a4.74,4.74,0,0,1-3.2928,1.1461H370.45a12.1525,12.1525,0,0,1-3.66-.699c-1.4167-.5086-1.7546-1.83-2.026-2.8927-.0405-.1585-.08-.3126-.1208-.4587q-5.8011.0162-11.6028.0144c-3.6872,0-18.4388-.013-22.1275-.013-7.8888,0-13.9926.0152-19.7376.0485l-2.4362,2.1424h-.28q-3.6542-.0021-7.31-.0231-3.919-.0163-7.8381-.0225c-4.143,0-7.5719.03-10.728.0941-.3372,1.4616-.6838,2.9224-1.03,4.3832l-.1353.5709-1.4283-.0022c.2135.3987.8669,1.6157.8669,1.6157l-.0579.2663c-.7475,3.4607-1.6157,6.941-2.455,10.3069-.4913,1.9688-.9819,3.9383-1.4529,5.9135l-.1367.5745-.5905-.005q-1.7733-.0163-3.5135-.0362c1.0882,2.2806,2.0433,4.8022,1.0455,7.4554-.8892,3.3095-3.4549,6.8563-7.0075,6.8563a5.4853,5.4853,0,0,1-1.3371-.1686l-.0775-.0188-.0716-.0354a7.8184,7.8184,0,0,1-4.2682-7.69,12.5623,12.5623,0,0,1,2.7025-6.7188,14.7663,14.7663,0,0,1-1.4-1.7206l-.1679-.2533.0586-.2988c.7728-3.9433,1.78-7.8946,2.7546-11.7164.4023-1.5795.8046-3.1582,1.1917-4.7392l.14-.5687s1.0694.008,1.3111.0094l-1.0376-1.3957s.4841-1.91.6859-2.6938a22.7719,22.7719,0,0,0-2.6221.1245c-.73.84-1.3747,1.7408-2.0541,2.6908-.4834.6751-.9826,1.3733-1.5123,2.0419l-.2243.2829-.361-.0022q-2.8349-.0162-5.6712-.0492c-2.7986-.0289-5.5973-.0579-8.3953-.0579-1.4362,0-2.7871.008-4.0714.0239l.1173.2439c.2163.4529.4558.9536.607,1.26l.1512.3082-.1367.3147a22.3632,22.3632,0,0,0-1.9753,10.1847l.2952.1027a42.2231,42.2231,0,0,1,6.3238-11.8553l.1954-.2532.3183-.0311a58.0123,58.0123,0,0,1,5.8021-.24c1.0159,0,2.0325.013,3.05.0267,1.0108.0138,2.0216.0268,3.0316.0268,1.1664,0,2.183-.0188,3.1069-.0571l.5087-.0217.4949,1.1446c.2446.5673.49,1.1352.7424,1.71l.1049.241-.0688.2532c-1.756,6.4085-3.4216,12.9616-5.0322,19.2992q-1.2417,4.8861-2.4992,9.7686l-.1483.5723-.59-.0174c-.589-.0181-1.1823-.0246-1.78-.0246-.8871,0-1.7814.0145-2.6793.029-.9131.0144-1.8291.0289-2.7444.0289-4.3746,0-8.9792-.3357-13.0094-2.7741-3.0012-1.6779-4.9374-4.44-6.81-7.111-.2872-.4095-.5788-.8255-.8755-1.2387-.9977,2.7191-3.0953,4.7074-5.1335,6.6393q-.268.254-.5333.5072.7859,1.4022,1.5636,2.8073l.5962,1.0846-1.7358.02c-2.2842.0253-4.5663.0513-6.8491.0513-2.5649,0-4.8116-.034-6.8664-.1034l-.3719-.0123-.212-.3054c-.4009-.5781-.8082-1.1482-1.2156-1.7155-1.5983.0738-3.2133.08-4.779.0854a71.4118,71.4118,0,0,0-7.3288.2778c-.165.4182-.6722,1.69-.6722,1.69l-.49.0181c-1.7336.0449-3.4607.0507-4.7711.0507l-3.9994-.0066c-1.1844,0-2.37.0051-3.554.0254l-.4711.0079-.2073-.4232c-.39-.7974-.77-1.5868-1.1442-2.3769-1.2254-.0195-2.4471-.0318-3.6684-.0441l-.5894-.0065a12.629,12.629,0,0,1-7.4847,2.8319q-.1774,0-.3563-.0072c-.3441-.0051-.7051-.0073-1.0673-.0073-.8248,0-1.6514.0116-2.4792.0232C164.1045,540.1192,163.2677,540.1308,162.432,540.1308Z" style="fill: #110f0e"/>
          <path d="M210.8944,483.3926c-.226,2.4887-.489,4.9774-.7291,7.4669,2.7147.0141,5.4294.0089,8.1441.0748a43.4956,43.4956,0,0,0,4.06-7.4521Q216.6261,483.5167,210.8944,483.3926ZM368.072,459.2552c.1067,13.2727-.0607,26.5594.09,39.838-.1882,1.3981,1.6641,1.1,2.4976,1.5944,2.1819-12.2561,4.0461-24.5656,6.0977-36.8365A24.5728,24.5728,0,0,1,368.072,459.2552ZM15.0738,459.24a23.603,23.603,0,0,1-8.6908,4.558c1.933,12.2947,3.9705,24.5716,6.0228,36.8433.79-.48,2.668-.1652,2.55-1.45C15.1724,485.8753,14.9383,472.5568,15.0738,459.24Zm343.3545-2.7118c-6.3414-.0029-12.6822.023-19.0266.0119-.2489.286-.7461.8506-.9921,1.1373,9.57.3208,19.1593.24,28.73.2311a2.44,2.44,0,0,0-2.3672-1.3684Q361.5987,456.5272,358.4283,456.5286Zm-320.6641-.0229c-.5379-.003-1.0906.037-1.5974.0051-6.0376.0845-12.0776-.0429-18.1063.0527a2.2656,2.2656,0,0,0-2.15,1.3255c8.0663-.0927,16.1875.443,24.2189-.452A2.6921,2.6921,0,0,0,37.7642,456.5057Zm272.0937-1.1751c.4579.6623.0437,2.61,1.407,2.3235,2.9836.0844,5.9762.0526,8.9606-.1127-2.1331-2-5.4961-.6075-8.1419-1.0735C311.3456,456.0744,310.6018,455.6981,309.8579,455.3306ZM77.05,454.8875a2.0788,2.0788,0,0,0-.6483,2.7006C77.7275,458.0912,78.5,455.006,77.05,454.8875Zm45.1111-.1156q-2.205,0-4.4106.0171c-.0289.64-.0956,1.9337-.1275,2.5791,2.7525-.0059,5.5139-.0148,8.2634-.0437.2252-.8506.46-1.693.6854-2.5354Q124.3671,454.7722,122.1614,454.7719Zm140.6635-.0118c-2.0576,0-4.1158.0259-6.1733.1133-.1074.6165-.3327,1.8345-.446,2.4421q3.8808.0134,7.76.0467c.3008-.8654.6105-1.7308.92-2.5962C264.1963,454.763,263.5109,454.76,262.8249,454.76Zm20.34-.0171c-1.2418.0378-2.4687.0926-3.7016.1593-.1126.8654-.226,1.7308-.33,2.6014.8706-.0052,1.7448-.0141,2.625-.0141C282.2241,456.5723,282.69,455.6543,283.1651,454.743Zm-185.922-.0467c-1.3173-.0029-2.628.0319-3.9365.1534a21.774,21.774,0,0,0-1.7885,2.6628c4.06.0438,8.127-.07,12.1872-.0377.0378-.8884.0756-1.7678.1134-2.6481C101.6271,454.8179,99.434,454.7023,97.2431,454.6963Zm123.4854-3.0473c-1.78-.0089-3.5593.017-5.3368.0577.2779.4809.8284,1.45,1.1062,1.9331a16.474,16.474,0,0,0-3.2274,12.0376c.8884,3.7068,6.31,3.3541,8.399.9173,4.28-3.595,5.6553-9.4726,4.3995-14.7983C224.2916,451.7038,222.5089,451.6608,220.7285,451.649Zm2.4954-39.5432a.9044.9044,0,0,0-.712.3127,18.1373,18.1373,0,0,0-4.16,4.0083c-.9083,6.6534-1.5107,13.3534-2.2309,20.03,5.1657.1734,10.5491-.7,15.5273,1.0536,3.1052,1.0358,5.0908,3.7972,6.6015,6.5408,1.5567-3.82,2.405-7.8952,4.1588-11.6316,1.916-3.0681,2.156-6.7608,3.27-10.13-6.9253-3.2186-13.8661-6.39-20.7914-9.603A7.367,7.367,0,0,0,223.2239,412.1058Zm-63.1308-.2052c-6.5408,2.8473-12.94,5.99-19.4667,8.8791a11.4809,11.4809,0,0,0-2.9636,1.6322,65.7126,65.7126,0,0,0,1.8063,7.458,70.0843,70.0843,0,0,1,2.8651,6.5585c4.0809.0149,8.173.0289,12.2628-.017.3149,1.1373,1.2848,2.3324.5787,3.5134a61.5812,61.5812,0,0,1-5.27,9.7733,7.8971,7.8971,0,0,1-2.6251,2.4228,50.2312,50.2312,0,0,0,3.9009,10.1639c3.3489,7.6261,6.68,15.2672,10.312,22.7629,2.6458,6.2719,7.5862,11.2034,12.5926,15.6548-.5468-5.016-1.12-10.0312-1.6234-15.0524a10.778,10.778,0,0,0-1.181-3.9246c.6631-4.2573-.2778-8.5064-.6831-12.7407-1.8345-17.0291-3.7446-34.0471-5.5857-51.07C164.9061,415.0257,161.815,413.7929,160.0931,411.9006Z" style="fill: #87bc42"/>
          <path d="M198.7272,524.8547c-.8047,3.3311-1.6293,6.6563-2.451,9.9786,3.2556-.0141,6.5119,0,9.7763,0Q202.4184,529.8155,198.7272,524.8547ZM185.66,514.5975c-1.9849,6.732-3.3771,13.8136-7.2409,19.7935,1.12-.023,2.2346-.0378,3.3541-.0467,1.2707-5.9244,2.8658-11.776,4.24-17.6715A3.0781,3.0781,0,0,0,185.66,514.5975Zm21.3738-8.1063a43.77,43.77,0,0,0-5.8376.3179c1.421,1.5773,3.7972.5935,5.6465.8713,2.0145-.249,4.55.7239,6.0458-1.1114C210.9411,506.56,208.9843,506.4934,207.0335,506.4912Zm-41.7511-9.7741c-.8424,3.1956-1.43,6.4511-2.3531,9.6178-.3853.1734-1.1662.5031-1.5574.6683.3764.55.7587,1.1054,1.1344,1.6611-.8625,4.31-2.2309,8.5672-2.3613,12.986-.3009,2.9636,3.6319,2.5272,5.4612,1.8352,5.4583-3.7364,5.3368-11.024,7.3454-16.6853.46-.1267,1.3774-.3816,1.8434-.5179C171.8232,502.9052,168.4921,499.86,165.2824,496.7171Zm-14.0165-2.894c-.955,1.2847-1.873,2.6162-2.7814,3.9387q.6423,1.2414,1.3077,2.4976A65.6342,65.6342,0,0,0,151.2659,493.8231Zm23.94-10.3557c.2808,3.2044.732,6.3933,1.0477,9.5948.2926-.8713.5993-1.7426.932-2.5932-.1445-2.3242.2171-4.6307.2171-6.949C176.8532,483.5052,175.756,483.4763,175.2062,483.4674Zm30.5537-2.1731c-.0608,3.27.1711,6.5438.2171,9.8141.2867-.1215.8513-.3616,1.135-.4808.4513-2.7288.5876-5.4991.94-8.2427C207.2765,482.0174,206.5186,481.6559,205.76,481.2943Zm-34.0553-29.6194q1.0026,9.4077,2.06,18.8155c1.6382-6.2578,3.1111-12.5585,4.72-18.8155C176.222,451.6749,173.9674,451.669,171.7046,451.6749Zm-31.59-.0059c.3475.73.6624,1.4677.9462,2.2257-.6913,3.6379-1.7367,7.1949-2.6221,10.79,2.6021,8.6849,4.9634,17.4462,7.5106,26.1519,1.5137.023,3.0385.0459,4.5581.0689.2927.692.5846,1.384.88,2.0812.2023-.51.5987-1.5255.8046-2.0286,2.8711-.1741,5.7591-.0289,8.639-.0756q-3.89-8.11-7.6639-16.2652c-3.0215-7.6929-7.195-14.8938-9.2992-22.9334Q141.9841,451.6838,140.1144,451.669ZM309.543,449.51c-.0089.8135-.0178,1.6241-.0178,2.4457.3534-.0229,1.0625-.0607,1.4152-.0756C310.4662,451.09,309.9913,450.3005,309.543,449.51ZM34.9021,445.8262a44.2226,44.2226,0,0,0-6.1562,1.5248,74.3849,74.3849,0,0,0-4.9256,6.2947q2.8995,0,5.7969.0089C31.3072,450.9918,33.1973,448.4653,34.9021,445.8262Zm313.2609-.0289c1.8634,2.5872,3.4348,5.4294,5.562,7.8114,1.8812.1267,3.7683.0311,5.6465.0311-1.2848-1.6085-2.5087-3.2556-3.7445-4.8967C354.0636,446.2255,350.6576,446.6449,348.163,445.7973ZM7.52,442.5669a4.1254,4.1254,0,0,0-2.7036.9061A43.2122,43.2122,0,0,0,3.4941,453.24c-.2022,2.7525,1.34,5.1864,2.7614,7.4151,3.0355-1.2936,6.4889-2.79,7.9618-5.9184.046-2.88.4142-5.8954-.24-8.6939C12.27,444.5347,9.8734,442.6336,7.52,442.5669Zm368.4321-.02c-2.4688-.0348-4.8071,1.7885-6.6394,3.363-.706,2.9318-.4193,6.0369-.526,9.0443a16.5434,16.5434,0,0,0,8.1811,5.7161c1.4359-2.4976,3.1148-5.1893,2.6169-8.2107-.5127-3.2126.1645-7.1372-2.2486-9.6867A4.8225,4.8225,0,0,0,375.9524,442.5469Zm-83.2014-9.4725q.8891,1.6581,1.7826,3.3311c2.6769.0429,5.3539.0378,8.0315.0429-.2489-.33-.7616-.992-1.0106-1.3225C298.6227,434.4109,295.6769,433.78,292.751,433.0744Zm-202.3761,0c-3.363,1.2617-7.7389.6593-10.2046,3.6467.3238.9024,1.021,1.82.6683,2.8332-.8424,3.8721-1.9679,7.687-2.8281,11.5649-.5557.1445-2.3813-.0607-1.7567.9929,1.5026.5038,3.0222-.2549,4.4055-.79a20.6442,20.6442,0,0,0-.3912-3.3748,27.36,27.36,0,0,1,5.1145-7.0994C87.735,438.7668,88.7945,435.7134,90.3749,433.0744Zm28.3309-6.469c-2.917.715-5.8725,1.2507-8.7664,2.0605-1.8583,2.408-2.9778,5.2938-4.6389,7.8433a18.8987,18.8987,0,0,1,6.7371,2.611C114.24,434.9377,116.4749,430.7731,118.7058,426.6054Zm145.6527-.0288c1.8175,3.2325,3.5342,6.5348,5.262,9.82,2.2627.0837,4.94-.269,6.6793,1.5285,3.4964,3.4786,4.1647,8.6449,3.85,13.3534-.226.1564-.672.475-.8891.6313a46.1233,46.1233,0,0,0,6.9779-.3682c-4.338-7.5736-8.5723-15.1969-12.7889-22.829C270.4251,427.9517,267.38,427.3145,264.3585,426.5766Zm-129.1326-.1794c-1.6093,3.2993-2.97,6.7142-4.5092,10.0461,2.8044-.0089,5.6146.014,8.419-.0378-.735-1.7308-1.7419-3.3171-2.5028-5.03A34.2487,34.2487,0,0,0,135.2259,426.3972Zm112.5666-.2489c-.7816,2.8043-1.12,5.768-2.851,8.2019a146.0371,146.0371,0,0,0-4.7292,14.4974,10.998,10.998,0,0,1-.2171,3.4008c.9787,3.0155.1363,6.2162-.1267,9.2843-1.3174,8.04-5.3257,16.2653-12.6133,20.4469a2.8072,2.8072,0,0,0-1.4033,1.5026c-1.3781,2.6858-2.625,5.4383-3.9483,8.153,3.6757,3.91,4.9641,9.3014,4.9693,14.5345-.286.24-.8565.7149-1.1432.9461.3764.5357.7616,1.0684,1.1432,1.6093-.532,3.5712-1.7508,7.2127-4.4425,9.7444-2.3235,2.408-5.5939,3.4386-8.7546,4.22,2.4517,3.6089,4.8507,7.2557,7.2787,10.8788,3.7305-2.7955,5.1145-7.5188,5.5509-11.9554.8654-4.8048.5268-9.7741,2.0086-14.4656,1.404-.0607,2.81-.1592,4.2084-.3237a15.9529,15.9529,0,0,1-4.1128-1.7745,31.8348,31.8348,0,0,1,8.6479-12.3784c1.52-2.8481,2.1131-6.1355,3.2474-9.1658-1.178-.023-2.359-.0378-3.5393-.0519-.3386-.4142-1.0165-1.2477-1.3551-1.6611,2.385-10.0838,4.9781-20.115,7.43-30.184.48-.023,1.444-.0607,1.9242-.0837-.4653-.5238-.9314-1.0506-1.3892-1.5714,1.0217-4.5181,2.1938-9.0066,3.3-13.5047,1.8345-.0051,3.67-.0051,5.51-.02C250.8458,433.0047,249.3929,429.5461,247.7925,426.1483Zm-32.6956-7.924c-4.3588,3.45-8.6828,6.969-12.963,10.5172-2.18,0-4.3529.0089-6.5267-.0667,2.1071,2.2116,3.3548,5.0219,4.5959,7.7736,1.8352-.014,3.6756-.014,5.52-.0429.3438,1.03,1.3656,2.1042.7291,3.2237a48.761,48.761,0,0,1-6.7,11.739c-2.7147.6972-5.6783.1363-8.4827.2926.24.5409.7291,1.6323.9781,2.1731-.489,2.97-1.43,5.8347-2.0753,8.7665a17.9309,17.9309,0,0,1,8.8739,1.6559,40.6566,40.6566,0,0,1,2.3064-12.6711c1.1292,0,2.2546.0089,3.3919.023-.715-1.1143-1.82-2.15-1.7219-3.58a25.2157,25.2157,0,0,1,9.9475-10.9833C213.8262,430.796,214.3619,424.4931,215.0969,418.2243Zm-47.0627,0c.9032,8.616,1.8871,17.2173,2.8132,25.8185,1.6293-2.5465,2.8333-5.539,5.1575-7.5477,2.3154-.15,4.6307-.0289,6.949-.0667a28.0958,28.0958,0,0,1,4.4892-7.7447c-2.4747-.0985-5.1464.486-7.5047-.2956C175.8226,425.1933,172.0114,421.6072,168.0342,418.2243Z" style="fill: #e6f3fa"/>
          <path d="M359.456,448.4364c1.2239,1.7278,2.48,3.4437,3.7075,5.18.7061.0149,2.1182.0437,2.8184.0527-.0607-1.3174-.1037-2.6251-.1563-3.9336C363.69,449.3455,361.5683,448.8876,359.456,448.4364ZM23.76,448.3905c-2.2346.4423-4.4514.978-6.6482,1.5855q.0567,1.8494.1134,3.7075c.94-.023,1.8864-.0378,2.8273-.0518C21.1864,451.8113,22.46,450.0894,23.76,448.3905Zm322.1689-.232c-1.3314,2.02-2.8881,4.1269-5.6465,3.7743.2631.39.7958,1.1721,1.06,1.5566,2.7577.4142,5.5709.0667,8.3464.1333Q347.8173,450.8833,345.9284,448.1585ZM42.8728,443.9472c-1.2855.4431-3.03.2779-3.826,1.5863-1.9857,2.6162-3.7313,5.3975-5.6095,8.0752a46.76,46.76,0,0,0,6.8883-.1193c.1882-.4453.5645-1.3255.7527-1.7678.4342-.0667,1.3137-.1941,1.7567-.2638-.449-.5179-.9-1.03-1.3514-1.5426C41.9408,447.9244,42.4386,445.9388,42.8728,443.9472Zm23.8448-5.07a53.0911,53.0911,0,0,0-4.4136,6.8964c-.1793,2.4658.217,4.9641.1593,7.4529.7875-.6632,1.5485-1.34,2.3212-2-.1793-.4372-.5557-1.3255-.7438-1.7686C64.6571,445.8721,65.8989,442.4194,66.7176,438.8771Zm239.6647-2.66c1.444,1.8723,3.0014,3.6608,4.3758,5.5857,1.4677,1.9012.5816,4.5729,1.7686,6.5956,1.0306,1.7515,2.2345,3.4067,3.2185,5.1953.6772.0378,2.0375.1215,2.7147.1593.0229-.8595.0607-1.7078.0985-2.5584-2.0753-4.1506-2.7236-8.8191-4.1824-13.1889C311.7072,437.4272,309.0392,436.8567,306.3823,436.2173ZM277.6231,429.78c2.4339,4.533,5.073,8.9547,7.4958,13.5047a13.8122,13.8122,0,0,0,2.2109,3.3162c1.8871-2.54,2.97-5.5709,4.8507-8.12q-1.7926-3.1263-3.4756-6.3007C285.02,431.3436,281.36,430.3737,277.6231,429.78Zm-172.12-.0688c-3.5571.7379-7.1513,1.4062-10.6336,2.4827-1.3684,1.1055-1.9478,2.9089-2.9081,4.3618,3.2845-.1445,6.5786-.0986,9.8719-.1445C103.0889,434.1939,104.3307,431.9681,105.5028,429.7114ZM250.0412,423.35c1.8263,4.341,3.806,8.61,5.6028,12.957,3.4793.24,6.9756.1275,10.4653.1415-1.956-3.4956-3.609-7.1661-5.6983-10.5779C257.08,424.6146,253.4849,424.2093,250.0412,423.35Zm-116.9654-.0289c-3.4816.775-6.9461,1.6085-10.4276,2.39-2.7006,5.4154-5.6843,10.6855-8.46,16.069,1.8493,3.0851,3.5334,6.4362,3.5712,10.1208.2919-.0059.8794-.0148,1.1721-.0208-.6972-1.4-1.8553-3.0155-.9173-4.5958a64.7478,64.7478,0,0,1,5.5887-9.5652c.735-1.427,2.4739-1.224,3.82-1.5018C129.2786,431.9022,131.2635,427.6531,133.0758,423.321Z" style="fill: #d41d29"/>
          <path d="M268.049,495.6635a1.8467,1.8467,0,0,0-.73,2.5791C268.6366,498.8383,269.5019,495.8139,268.049,495.6635Zm82.3049-27.5811a3.5971,3.5971,0,0,1,3.3711,2.0693c2.7066,3.4727,1.204,8.0745-.1415,11.7761-1.3922,2.8043-3.1978,5.8258-6.1592,7.1661-3.1192-.692-4.1965-4.3381-4.2106-7.175-.203-4.7752.8654-10.6477,5.2879-13.3016A3.8291,3.8291,0,0,1,350.3539,468.0824Zm-158.8766-2.2257c-.5934-.003-1.1839.023-1.7567.07-1.3832,5.9851-2.9636,11.9176-4.3906,17.8945-1.6092.023-3.2126.0378-4.8129.07a52.3653,52.3653,0,0,0,.15,6.1732c2.871,1.0736,6.188.2312,9.2265.3675.5475,1.1055,1.0884,2.2109,1.63,3.3312.1126-1.0736.2193-2.1509.3468-3.2186,3.3837-.1044,6.7815.1883,10.15-.1652.95-.72.4838-2.24.6861-3.2785-.2023-3.4127.8424-7.2935-1.4581-10.2024-1.8441-2.5354-1.9568-5.7242-2.6547-8.6649A10.1079,10.1079,0,0,0,191.4773,465.8567Zm119.7039-4.9693c.4741,7.6781,1.6752,15.2872,2.2108,22.9564-4.1646.0378-8.3382-.0667-12.4969.09a12.2106,12.2106,0,0,1-1.8812-3.7593c-.9839,1.2706-1.45,3.6845-3.3978,3.6178-7.7766.1415-15.5591,0-23.3417.0667a2.5164,2.5164,0,0,1-2.8569-2.8192c.1593-4.292,3.6934-7.3313,5.0071-11.25-2.7725,4.527-5.8258,9.25-10.7373,11.6931-6.3237,3.4608-13.698,1.9331-20.5485,2.5346-.64,2.1509-1.2565,4.31-1.7685,6.4978,8.8591-.0089,17.7241.0668,26.5891-.0318.5408.8365,1.0824,1.6789,1.6322,2.5206.0519-.6106.1563-1.8286.2112-2.445,4.6536-.0527,9.3073.023,13.9617-.1134,1.4581,2.4658.5586,5.2182-.1045,7.7766q10.8747.0867,21.7524.0437c2.2865.1971,3.5571-2.5324,5.89-2.1879q26.7417,0,53.4841.0089c.0837-11.5945-.0608-23.1831.0837-34.7709-9.0761-.2638-18.1523-.1275-27.2225-.24-2.1272-.2779-2.7666,2.202-3.2385,3.7683-1.5567,6.3436-3.1978,12.6614-4.7233,19.0147-4.4974-.1423-9.0154.2489-13.4987-.1652-1.4729-1.2188-.9928-3.2475-.6076-4.8508,1.5486-5.9095,2.8711-11.8716,4.4655-17.7759C317.0907,460.9193,314.1359,460.8874,311.1812,460.8874ZM98.024,460.7629q-3.7675-.0222-7.5306.1934c.1971,1.9916,0,4.2024,1.181,5.9391,1.1054,1.3544,3.0533,1.2418,4.5959.9032,2.9-1.3922,4.7433-4.2113,6.2688-6.9349Q100.2819,460.777,98.024,460.7629Zm26.5921-.1911q-3.4519.0134-6.8942.2778c-1.1284,7.5188-4.3758,15.1828-10.4972,19.9728a13.2635,13.2635,0,0,1-8.648,3.0362c-4.4277-.0756-9.0006.4223-13.2786-1.0076-3.114-.998-5.34-3.6549-7.0386-6.3237-2.7058-4.587-2.0664-10.0979-2.4739-15.18-1.78,7.4958-3.7424,14.9486-5.502,22.4585-5.3168.0985-10.6336.0089-15.95.0467-2.46-4.4974-1.7826-9.9038-2.7895-14.8071-1.3692,4.9174-2.4946,9.8956-3.82,14.83-4.504-.1674-9.0214.1883-13.5135-.1822a3.8876,3.8876,0,0,1-.72-3.8639c1.4441-6.2481,3.2467-12.4162,4.5492-18.702-6.5207.0089-13.0378.0837-19.5585.0459-.472,11.6175-.0667,23.2579-.226,34.8835,18.0108.09,36.0179-.04,54.0287.0586,2.24-.0608,3.563,2.5406,5.8954,2.159,11.962-.0756,23.9263.1126,35.8823-.1045,1.54-2.5124,2.7725-5.279,4.8478-7.415,7.7011-.55,15.4606-.0607,23.1824-.24a152.2185,152.2185,0,0,0-5.3-17.1454c-.9691,3.5112-1.6929,7.0994-2.8043,10.5728-4.0691-.24-8.1352.023-12.2043-.0985a2.3272,2.3272,0,0,1-2.136-2.8422C121.1805,474.16,123.0009,467.39,124.6161,460.5718Zm131.2131-.0467c-.5639,2.1738-1.1255,4.3388-1.6,6.5356a19.9168,19.9168,0,0,0,7.4669-6.3674C259.74,460.61,257.7859,460.5629,255.8292,460.5251Zm41.26-.0578a28.244,28.244,0,0,0-3.9387,7.58q2.31,0,4.6448.014A47.2911,47.2911,0,0,0,297.089,460.4673Zm-17.8285-.0548c-2.0894,2.1738-2.8881,5.1663-3.9765,7.89A43.2859,43.2859,0,0,0,279.2605,460.4125ZM61.812,439.5543a2.3369,2.3369,0,0,0-.68.1445q-.5989,1.567,1.0218,1.0218C62.4633,439.9359,62.3506,439.5454,61.812,439.5543Zm129.8217-8.52c-2.4717.0259-3.389,3.1948-4.5292,4.98,2.9985.09,5.9992.0815,8.9917.0059-1.1432-1.7367-1.8493-4.15-3.9476-4.9463A3.2106,3.2106,0,0,0,191.6337,431.0339Z" style="fill: #652d90"/>
          <path d="M268.3758,524.8806a2.9091,2.9091,0,0,0-1.0477.1942,8.4759,8.4759,0,0,0-4.7,9.2784,3.0932,3.0932,0,0,0,4.2254,2.179c3.3311-1.4122,5.1375-5.4724,4.6107-8.931A3.154,3.154,0,0,0,268.3758,524.8806Zm-78.707-16.4852c-2.2435,9.348-4.6018,18.67-6.8364,28.0182q5.0311-.021,10.0779-.014c1.0587-4.4455,2.156-8.8739,3.2326-13.31a6.1093,6.1093,0,0,1,1.4729-2.9029c3.9476,5.3916,7.9389,10.76,11.8435,16.1956,3.6838.0237,7.3683.0467,11.061-.0059-3.58-5.58-7.3246-11.0381-10.85-16.6468,3.7416-.6861,7.7877-1.407,10.63-4.1736,2.113-1.8263,3.1666-4.4892,3.8668-7.1223-3.4438-.0438-6.8883-.006-10.3231-.0289-.2438.2778-.7239.8276-.9728,1.0965-3.1867.0148-6.3815-.0148-9.5711.0548-1.6523,2.6221-3.3171,5.2472-5.2183,7.7048-.1126-3.0452,1.0306-5.9162,1.6612-8.8421C196.3829,508.4124,193.02,508.4183,189.6688,508.3954Zm-30.1025,0c-3.366.0229-6.7438-.0208-10.1127.07-1.1951,6.8356-3.7883,13.7906-2.0375,20.7685a8.29,8.29,0,0,0,5.6554,6.1933c4.5092,1.3862,9.2932.912,13.9469.9491,4.4373.1511,8.1967-3.0066,10.1675-6.7608,3.586-6.5778,5.059-14.0166,6.8186-21.22-3.3163.0229-6.6245.0089-9.9326.017-1.6323,5.7887-1.9538,12.946-7.3076,16.7372-2.6777.9409-7.1372,1.5255-8.379-1.8264C156.6575,518.4206,158.718,513.2691,159.5663,508.3954Zm69.5093-.33c-1.9767,8.1353-1.91,18.2131,4.5877,24.3775,5.768,5.3168,14.1811,4.301,21.385,4.1876,2.5783-9.105,4.761-18.3464,7.1371-27.5122-4.5877.0148-9.1747-.037-13.7624.0289a83.1778,83.1778,0,0,0-5.8576,10.8595c2.15.0141,4.301.023,6.46.043-.4283,1.7915-.8483,3.5749-1.2388,5.3716-1.98-.0608-4.4077.472-5.768-1.3633-4.098-4.2862-4.1535-10.7751-1.9479-15.9844Q234.5662,508.0738,229.0756,508.0656Zm-103.6,0q-10.119,14.3-20.19,28.6407c9.5422.023,19.0755-.023,28.6177.023a49.169,49.169,0,0,0,6.46-11.2871c-5.0908-.0437-10.1735-.0148-15.2643-.0237,4.061-5.788,8.1649-11.533,12.211-17.33C133.3625,508.0509,129.4231,508.08,125.4755,508.0656Zm147.1894-.0059c-1.8175,0-3.6379.02-5.4583.1038q-1.68,7.1283-3.4734,14.2336,5.4579.091,10.9173.0318c1.1521-4.784,2.3561-9.55,3.4757-14.34C276.3057,508.08,274.4853,508.06,272.6649,508.06Zm-89.7428-15.3509q-2.4785,0-4.9545.017c-.8284,3.5431-1.7226,7.0624-2.5732,10.5958,3.3022.0207,6.6045.0378,9.9038-.0089.8424-3.5334,1.7307-7.0587,2.5872-10.5869Q185.4026,492.7092,182.9221,492.7088Zm70.9192-.0059c-3.8579-.0112-7.7129-.006-11.5678.0837-5.4442.8335-8.602,6.0229-11.0011,10.4653,9.1806.0467,18.4072.2868,27.573-.09,2.6858-3.134,4.564-6.8564,6.5638-10.4446C261.5572,492.7466,257.6992,492.7147,253.8413,492.7029Zm17.7033,0c-.9083,3.5371-1.7359,7.0853-2.6391,10.6246,3.3312.0089,6.6623.017,9.9934,0,.8943-3.51,1.7219-7.0446,2.648-10.555C278.2158,492.674,274.8765,492.7258,271.5446,492.7029ZM158.2408,492.7q-2.475,0-4.9433.0408c-.7987,3.5334-1.7078,7.0445-2.4517,10.5957,3.2852.0059,6.57-.0089,9.8578.0059.8046-3.5489,1.713-7.0734,2.4947-10.6246C161.546,492.7118,159.8931,492.7,158.2408,492.7Zm51.3978-.017c-5.3457,0-10.6914.09-16.0311.0289-.8854,3.5393-1.8056,7.0816-2.5784,10.6476,11.1189-.1593,22.2355-.0467,33.3551-.0319-.4194-3.7823-.6831-9.3081-5.1286-10.4972C216.0519,492.7147,212.8482,492.6829,209.6386,492.6829Zm-79.139-.006c-3.4119.003-6.8186.0549-10.2134.229-2.7,3.0614-4.347,6.8645-6.3526,10.3838,8.72.0927,17.4522.0089,26.1719.0378,2.4747-3.5393,5.0012-7.0446,7.4529-10.61C141.883,492.7984,136.1839,492.671,130.5,492.6769Zm219.8713-23.4313a3.06,3.06,0,0,0-1.9619.6653c-4.2921,3.1149-4.8715,9.2355-4.18,14.1011-.0171,1.5485,1.427,3.4059,3.0073,2.1182a17.9347,17.9347,0,0,0,6.2393-14.144A3.0739,3.0739,0,0,0,350.3709,469.2456Zm-216.96-15.8518q-2.4528,0-4.9056.006c-2.2257,8.9864-4.4891,17.9641-6.6941,26.9476q4.8967-.0076,9.8052-.0141c2.2027-8.9835,4.46-17.9559,6.709-26.9246C136.6848,453.4,135.05,453.3938,133.4114,453.3938Zm186.9815-.0022c.5935,2.9029,2.33,5.805,1.4818,8.8213-1.5048,6.0428-3.0681,12.0746-4.55,18.1294,3.2622,0,6.5326.014,9.7971-.0379,1.444-5.8146,2.9177-11.6263,4.3528-17.4373.5209-3.8728,3.7831-6.3933,5.8665-9.4525C331.6859,453.3768,326.0394,453.4,320.3929,453.3916Zm-24.3345,0c-3.36.0082-6.7141,0-10.0682.0141-4.8656,8.9487-9.6556,17.9352-14.4826,26.8987,7.5973.1127,15.1827-.0377,22.7771.0808,2.24-2.9407,3.6549-6.39,5.7161-9.4437.5639,3.0763.8654,6.1963,1.2181,9.3022,3.0451.1275,6.1036.1126,9.1576.0986-.9091-8.9866-1.9019-17.9649-2.851-26.9425-3.0155,0-6.0229-.0171-9.0384,0,.4979,5.6,1.2359,11.18,1.6093,16.789-4.0291-.0459-8.06,0-12.09-.0608C289.9,464.2185,293.4889,459.0144,296.0584,453.3916Zm-111.4863,0q-2.4528,0-4.9115.0082c-2.188,8.9835-4.4892,17.9411-6.6571,26.9246,3.2652.0179,6.5267.0378,9.7911-.02q3.3174-13.4586,6.6919-26.8987Q187.0294,453.3879,184.5721,453.3916Zm-94.7011-.0089c-3.3689.0171-6.7371,0-10.106.023a34.8866,34.8866,0,0,0-1.5574,16.3926c.6253,3.6379,2.55,7.3921,6.0377,9.0014,3.9705,1.9471,8.5286,1.5107,12.8126,1.5188,4.4743-.0459,8.3463-2.911,11.1366-6.1873,4.8359-5.754,6.8594-13.3483,7.1424-20.74-3.383-.0059-6.7579-.0148-10.1409.023.3357,4.1587-.0548,8.616-2.7376,12.0079-1.7515,2.1361-3.7742,4.9175-6.8653,4.7292-1.7686-.0755-3.9706.3527-5.2412-1.21C86.7659,464.566,87.1623,458.106,89.871,453.3827Zm-29.2052,0c-6.1762.0319-12.3547-.0059-18.528.023q-3.3607,13.4575-6.6919,26.9276c3.2623.009,6.5326,0,9.7971.0141,2.0894-8.1352,3.8779-16.3371,6.1792-24.4152a18.1416,18.1416,0,0,1,.94,3.9475c.8276,6.8276,1.7308,13.6491,2.6251,20.4677,4.24-.023,8.4827.0089,12.7318-.02q3.3118-13.4708,6.6822-26.9128c-3.2325-.0319-6.4562-.023-9.6925-.0148-.8943,3.0681-1.1951,6.3444-2.677,9.2184C61.3867,459.5649,61.0859,456.4679,60.6658,453.3827Zm211.3419-.0029c-1.7011-.003-3.406.0118-5.1078.017-.8943,3.8349-2.2346,7.7077-4.8886,10.7032-3.0533,3.383-7.1423,6.457-11.9471,6.1036,1.2388-5.6324,2.7147-11.2033,4.1039-16.7979-3.3312-.0141-6.6623-.0378-9.9935.0378-2.156,8.9776-4.4365,17.9263-6.6452,26.8988,6.0058-.1594,12.0746.3963,18.0538-.4461,5.8784-.88,10.7751-4.8937,13.9328-9.7822a63.7245,63.7245,0,0,0,7.6033-16.6328C275.4144,453.4087,273.7126,453.3857,272.0077,453.38Zm-59.4433-.0119c-3.383.0467-6.7608,0-10.1356.0526a36.1981,36.1981,0,0,0-1.5137,16.4156c.6164,3.6179,2.5443,7.2558,5.951,8.94,3.9527,1.9019,8.4938,1.58,12.7659,1.5484,4.6625-.0059,8.7-3.0154,11.5419-6.48,4.6625-5.73,6.5726-13.1683,6.8971-20.4388-3.3778-.023-6.7608-.0089-10.1386-.023.6023,5.302-.8424,10.9107-4.94,14.5345-2.1709,2.7006-6.1555,2.6858-9.1428,1.6989C209.3081,465.5559,209.783,458.3231,212.5644,453.3679ZM68.5617,438.2689c-.8743,3.3778-1.7915,6.7467-2.49,10.1586,3.1956.0237,6.3993.0148,9.5941.0148q1.2724-5.0833,2.5413-10.1646Q73.38,438.2645,68.5617,438.2689Zm202.1783-.0141q-11.3348.0088-22.6756.02c-.8424,3.3919-1.7159,6.7838-2.5643,10.1764,10.7951-.0378,21.602.0608,32.4008-.0607-.2726-2.857-.3475-6-2.2116-8.362C274.532,438.5178,272.5175,438.2081,270.74,438.2548Zm-94.0372,0a56.8647,56.8647,0,0,0-6.1414,10.1816c8.3464.0756,16.6994.0059,25.0458.0518.8943-.1066,2.1071.2171,2.6776-.7142,2.24-2.88,3.7594-6.24,5.4346-9.4585C194.7129,438.194,185.7123,438.3066,176.7028,438.2548Zm-124.3952-.006q-3.1775-.0043-6.3585.0119c-.8476,3.4008-1.713,6.79-2.5124,10.2046,5.52-.0378,11.0477.0289,16.5756-.0089-.4319-3.406-.8454-6.81-1.3492-10.1957q-3.1773-.0045-6.3555-.0089Zm274.8661-.0029c-3.6549.0519-7.3165-.023-10.9625.0519.9313,3.3926,1.8575,6.7845,2.8562,10.1586q11.0659.0356,22.1229-.0141c2.6169-3.4067,5.3079-6.7667,7.91-10.1875-3.5482-.0089-7.1053.0059-10.6535.0059-2.4828,3.1518-4.9026,6.3615-7.4062,9.5044-.1881.023-.5816.0837-.7757.1126C328.5288,444.9608,328.2881,441.4207,327.1737,438.2459Zm-191.4818-.0111c-3.363.0052-6.7289.04-10.089.1385-2.6628,2.9118-4.3847,6.5586-6.1532,10.0542,9.0332.0845,18.0715.0289,27.101.0378a49.9541,49.9541,0,0,0,5.971-10.19C146.9153,438.29,141.3036,438.2229,135.6919,438.2348Zm165.1973-.0089c-1.9968-.0089-3.9943.07-5.9881.0348-2.79,2.917-4.3906,6.6475-6.234,10.1757,6.1355-.0089,12.28.0756,18.4242-.023-.6335-3.3689-.5964-7.1224-2.6161-10.0252-1.1958-.1164-2.3909-.1534-3.586-.1593Zm-200.535,0c-1.6322.0059-3.2652.0637-4.8448.0378-6.2111-.0845-10.5958,5.2842-13.5046,10.15q16.5448.0779,33.092.0089c-.7438-2.9636-1.8115-6.1362-4.5032-7.8959-3.05-2.0486-6.6482-2.3064-10.2394-2.2975Zm123.518-.0059c-1.96-.0119-3.93.0837-5.8265.0259-6.1963-.0289-10.4884,5.3546-13.3705,10.2194,11.0322-.006,22.071.0467,33.1-.0141-.6016-3.0829-1.8263-6.31-4.607-8.0552C230.3722,438.5645,227.1367,438.24,223.8722,438.22Z" style="fill: #ffca00"/>
        </g>
      </g>
    </g>
  </g>
</svg>
