<?xml version="1.0" encoding="utf-8"?>
<!-- Generator: Adobe Illustrator 19.0.0, SVG Export Plug-In . SVG Version: 6.00 Build 0)  -->
<svg version="1.1" id="Layer_1" xmlns="http://www.w3.org/2000/svg" xmlns:xlink="http://www.w3.org/1999/xlink" x="0px" y="0px"
	 viewBox="0 0 600 600" style="enable-background:new 0 0 600 600;" xml:space="preserve">
<path id="XMLID_12_" d="M495,521.5c-1.2-14.5-2.3-29-3.6-43.4c-1.8-20.8-3.6-41.5-5.9-62.2c-0.6-5.7,1.1-8.7,6.1-11.1
	c2.1-1,4.4-3.3,4.8-5.3c1.8-9.1,3.1-18.4,4.3-27.6c0.1-1.1-1.4-3.1-2.6-3.4c-2.6-0.7-5.4-0.9-8.1-0.8c-3.6,0.1-5.4-1.5-6.7-4.8
	c-3.7-9.2-7.7-18.3-11.6-27.4c-1.2-2.7-1.7-4.6,1.1-7c3-2.6,2.3-7.7-0.6-10.3c-3-2.6-7.4-2.4-10.2,0.4c-3,3-3.1,7.3-0.1,10.4
	c0.8,0.8,1.7,1.6,2.6,2.5c-4.3,10.9-8.5,21.8-12.8,32.5c-0.5,1.2-2,2.4-3.3,2.7c-2.9,0.6-5.9,0.6-9.6,0.9c0.3-5.2,0.5-9.7,0.8-14.5
	c6.5-1.3,6.7-2,3.7-7.3c-5.9-10.6-12.1-21-17.3-31.9c-3-6.3-6.7-8.7-13.6-8.2c-7.9,0.6-7.9,0.1-8.5-7.5c-0.1-1.4-0.5-3-0.1-4.3
	c0.4-1.3,1.3-3,2.4-3.3c3-1,2.5-2.5,1.4-4.6c-1.3-2.4-2.5-4.8-3.5-7.4c-6.2-15.8-9.4-32.2-11.7-48.9c-0.5-3.4-0.5-6.3,2.6-8.8
	c3.2-2.6,3-7.1,0.2-10c-2.7-2.7-7.3-3-10.2-0.5c-2.8,2.3-3.7,7.1-1.1,9.7c2.9,2.8,3.3,5.8,2.7,9.4c-0.4,2.3-0.4,4.6-0.8,6.8
	c-3.4,16.2-6.6,32.3-10.4,48.4c-1.4,6-2,5.8,4.1,7c0,3.8,0,7.6,0,11.3c-3.5,0-6.6,0-9.6,0c-0.2-0.7-0.5-1.1-0.5-1.5
	c-0.2-33.6-0.5-67.3-0.6-100.9c0-1.2,0.7-2.4,1.2-3.5c0.8-1.8,2.1-3.5,2.5-5.3c1-5.6,1.3-11.4,2.5-17c0.7-3.1-0.9-3.5-3-3.9
	c-6.2-1.3-6.2-1.2-6.2-7.5c0-2.2-0.1-4.3,0-6.5c0-0.8,0.3-2.2,0.7-2.3c4.5-1.2,2.5-4.2,1.8-6.6c-6.8-24.9-12.8-50-16-75.6l-1.1-31.9
	l0,0c0-2.2,0-4.4-0.1-6.6c-0.2-3.3-1.8-4.2-4.9-2.7c-3.2,1.6-6.5,3-9.9,4.3c-6.5,2.5-13.2,3.8-20.5,1.6c0.3,4.3,1.9,8.1,4.2,11
	c2.1,3.2,5.3,5.9,9.7,5.7c1.3,0.1,2.7,0.1,4-0.3c1.1-0.3,2.1-0.6,3.1-0.9c3.9-1.1,7.3-2.8,9.8-4.2c0.7-0.3,1.4-0.6,2-0.9l-0.3,25.1
	l0,0c-0.7,6.1-1,12.3-2,18.4c-3.3,20.1-8.5,39.6-15.6,58.7c-0.4,1.1-0.7,3.3-0.3,3.5c4.7,2.2,2.6,6.4,3.1,9.8
	c0.7,4.5-1.2,6.7-5.6,6.9c-3.2,0.1-3.6,1.5-3,4.5c1.3,6.7,2,13.6,3,20.3c0.2,1,0.9,2.7,1.4,2.8c3.8,0.2,3,2.9,2.9,5
	c-0.3,12-0.6,23.9-1.1,35.9c0,1.2-1,2.3-1.6,3.5c-1.5-0.8-3.5-1.2-4.4-2.4c-1.3-1.7-1.9-3.9-2.6-5.9c-5.1-15-7.8-30.6-9.5-46.3
	c-0.2-1.5,1-3.5,2.2-4.7c3.5-3.6,3.9-7.9,0.8-11.1c-2.9-3-7.5-3-10.5-0.1c-3.1,3-2.7,7.7,0.6,11.2c1.1,1.2,1.9,3,2.1,4.7
	c0.2,1.6-0.4,3.4-0.6,5.1c-1.5,12.5-4.1,24.7-9,36.3c-0.8,1.8-2,3.4-3.1,5c-0.9-4.4-1.1-8.2-0.9-12.1c0.7-10.7-1-21.7,3.2-32.1
	c0.4-0.9-0.5-2.7-1.3-3.5c-2.3-2.4-2.9-8.8-0.2-10.8c2.3-1.7,2-3.1,1.1-5.1c-10.1-21.9-14.4-45.2-17.3-68.9c-0.9-7.8-1.1-19-1.1-19
	l0,0c0-2.6-1.3-2.9-4.1-2.1c-8.8,2.5-17.7,4.5-26.5,6.8c-1.2,0.3-2.4,0.6-3.5,1.5c0.9,1.4,0.8,2,2.7,3c7.1,3.7,14.8,5.6,22.8,5
	c3.4-0.2,5.4-0.5,6.7-1.3c-0.2,1.9-0.5,3.3-0.7,4.4c-0.1,0.3-0.2,0.6-0.2,0.9c0,0.3-0.1,0.5-0.1,0.8c0,0,0,0,0,0v0
	c-0.7,5.1-0.8,10.3-1.8,15.4c-3.4,17.9-7,35.8-10.5,53.7c-0.6,3-0.1,4.9,3.4,4.8c2.5-0.1,3.5,1,3.2,3.4c-0.3,2.8,1.3,6.2-2.7,7.9
	c-0.5,0.2-0.5,2.3-0.2,3.4c0.8,3,2.7,6,2.8,9c0.2,21.8,0.1,43.6,0.1,65.3c-2.4-5.6-3.9-11.3-5.1-17.1c-0.2-0.9,0.6-2.2,1.1-3.1
	c2.4-4,2.1-7.3-1.1-9.5c-2.8-1.9-5.7-1.7-8.3,0.7c-2.4,2.2-2.1,6.2,0.3,9.3c0.8,1.1,1.7,2.5,1.6,3.7c-0.1,2.9-0.5,5.7-1.2,8.5
	c-3,12.4-6.1,24.8-9,37.3c-0.3,1.4-0.6,4,0,4.3c3.4,1.8,2.6,4.8,2.6,7.6c0.1,4.8-0.3,9.6,0.1,14.3c0.4,4.9-2.4,4.8-5.9,4.9
	c-3.6,0.1-5.3-0.8-5.2-4.8c0.2-10.7,0-21.4,0.1-32.1c0-1.3,0-3,0.7-3.7c3-2.6,2.5-5.9,2.7-9.2c0.2-3.2-0.1-6.4,0.2-9.5
	c0.2-3-0.3-7.2,1.4-8.6c3.4-2.8,1.8-4.3,0.2-6.7c-11.9-17.5-22.4-35.6-25.6-56.8c0-1.3,0.1-11,0.1-18.2c0.4-1.9,0.3-4.6,0.1-8.6
	c0-0.3,0,0,0-0.8c0-0.8-0.8-3.1-3.2-2c-9.2,4.4-18.3,9.1-28.5,14.2c7.1,3.8,13.6,3.4,20.1,2.5c5-0.7,7.9-1.1,9.6-2.4
	c-0.3,7.2-0.7,17.4-0.6,19.3c0,0.4-0.1,0.7-0.1,1.1c-0.2,1.1-0.2,2.4-0.7,3.3c-5.3,9.6-10.4,19.3-16,28.6
	c-4.8,7.8-10.2,15.3-15.3,22.9c0.5,0,0.9,0,1.4-0.1c0.7,2.9,1.8,5.8,2,8.8c0.4,4.6,0.3,9.2,0.4,13.8c0,2.8-0.3,5.5,3.2,6.8
	c0.6,0.2,1,1.9,1,2.9c0,12,0.1,24-0.1,35.9c0,2.1-1.1,4.5-2.4,6.2c-5.8,7.5-11.9,14.8-17.8,22.3c-1.5,1.9-4.4,4.2,0,6.4
	c0.8,0.4,1,2.3,1.1,3.5c0.4,6.5,0.5,13,1,19.4c0.3,4.1-1.6,5-5.4,4.2c0-1.5-0.1-2.9,0-4.3c0.3-4.4,0.5-8.9,1-13.3
	c0.4-3.5-0.3-5.7-4.3-5.6c-1.3,0-2.6-0.5-3.8-0.5c-3,0.2-4.9-1.1-6.1-3.7c-3.6-7.7-7.3-15.3-10.8-23c-0.5-1,0.2-3.2,1.1-4.1
	c2.4-2.5,4.5-4.9,3.7-8.6c-0.9-4.2-3.6-6.7-7.7-7c-3.9-0.3-6.9,1.6-8.4,5.4c-1.6,4-0.4,7.3,2.9,9.5c3,2,2.7,3.8,1.1,6.4
	c-3.3,5.6-6.8,11-9.6,16.9c-2.9,5.9-6.7,9.4-13.7,8.5c-2.6-0.3-3.9,1.1-3.5,4c1.3,9.2,2.6,18.5,3.3,27.8c0.3,4.4,1.5,7.2,7,7
	c-0.4,6.9-0.9,13.5-1.3,20c-0.9,17.8-1.8,35.7-2.6,53.5c-0.9,19.8-1.8,39.7-2.6,59.5c-0.3,6.7,1.1,8.8,7.4,11.4
	c9.3,3.8,19,3.2,28.6,2.1c5.7-0.7,11.3-2.3,15.4-6.9c0.8-0.9,2.2-1.5,3.4-1.9c12.3-3.2,24.1-2.9,34.6,5.5c1.2,1,2.7,2,4.2,2.1
	c5.5,0.4,11.2,1.1,16.6,0.4c6.6-0.9,13-3.8,19.7-4.5l93.3-1.7c9.2,0,18.5,0.4,27.7,0.7c1.5,0.1,3.4,0.2,4.6,1
	c9,6.9,19.4,6.9,29.8,5.9c8-0.8,15.8-2.4,22.1-8.5c4.7-4.5,13.4-3.2,18.7,1.1c3.4,2.7,7.4,5.4,11.5,6.4c6.8,1.6,13.9,2.7,20.9,2.6
	c6-0.1,12.1-1.8,18-3.5c3.9-1.1,5.3-4.4,4.5-8.6C495.6,530.7,495.4,526,495,521.5z M327.2,171.9C327.2,172,327.2,171.9,327.2,171.9
	C327.2,171.9,327.2,172,327.2,171.9z M306.2,522c-55.8,0-101-45.2-101-101s45.2-101,101-101s101,45.2,101,101S361.9,522,306.2,522z"
	/>
</svg>
