<?xml version="1.0" encoding="utf-8"?>
<!-- Generator: Adobe Illustrator 19.0.0, SVG Export Plug-In . SVG Version: 6.00 Build 0)  -->
<svg version="1.1" id="Layer_1" xmlns="http://www.w3.org/2000/svg" xmlns:xlink="http://www.w3.org/1999/xlink" x="0px" y="0px"
	 viewBox="0 0 600 600" style="enable-background:new 0 0 600 600;" xml:space="preserve">
<style type="text/css">
	.st0{fill:#EE2524;}
	.st1{fill:#FCEF46;}
	.st2{fill:#7264AC;}
</style>
<g id="XMLID_1_">
	<path id="XMLID_10_" d="M177.6,361.2c-4,10.4-10.2,12.8-18.7,8c-2.3-1.3-4.6-2.8-6.5-4.5c-10.2-9.3-13.9-21.4-13.9-34.7
		c0-7.3,1.4-14.6,2.2-22c-11.5-5.3-23.7-11.2-36.2-16.4c-3.8-1.6-8.2-1.5-12.4-2.1c-9.9-1.5-13-8.4-7.3-16.5c0.4-0.5,0.9-1.1,1-1.7
		c1.6-8.5,8.1-10.8,15.4-11.6c8.7-1,17.4-1.4,26.1-2.4c3.5-0.4,6.9-1.6,10.3-2.5c2.4-0.7,2.7-2.2,1.6-4.3c-2.4-4.7-3.2-9.7-1.2-14.7
		c2.2-5.7,6.5-9.3,12.6-10c6-0.7,9.2,2.3,9.2,8.4c0.1,6.1-0.2,12.2,0.1,18.3c0.1,2.2,0.8,4.8,2.1,6.4c5.5,6.6,5.7,14,4.9,22
		c-0.2,1.8,0.5,3.7,1.1,5.5c1.1,3,2.4,6,3.8,9c0.5,1.1,1.3,2.3,2.2,3.1c4.6,4.5,9.6,8.5,13.8,13.4c3.8,4.4,8.6,6.2,13.9,7.9
		c-1.9-2.3-3.9-4.6-5.8-6.9c-4.9-6.2-7.6-13.2-6.9-21.3c0.2-1.7,0.3-3.8,1.2-5.1c2.4-3.4,1.5-6.3,0.1-9.8
		c-4.2-10.7,3.9-21.4,15.1-20.4c6.7,0.6,10.6,6.4,8.4,12.8c-1,3-2.4,5.9-3.6,8.9c0.4,0.3,0.6,0.5,0.9,0.6c2.4,0.6,5.2,2.1,7,1.3
		c1.6-0.7,2.1-4,2.9-6.2c2-5.8,5.7-10.4,10.7-14.3c-1.4-1.2-2.7-2.1-3.8-3.3c-3.2-3.8-5.3-8.1-3.3-13.1c1.9-5,6.1-7.8,11.2-8.3
		c4.9-0.6,9.9-0.5,14.8,0.1c3.6,0.4,5.8-0.4,8.2-3.2c11.3-12.8,24.5-23.4,38.9-32.3c4.1-2.6,8.3-5.1,12.3-7.9
		c1.5-1.1,2.9-2.8,3.5-4.4c1.5-4,3-7.7,7.5-9.5c1.3-0.5,2.2-2.4,3-3.8c3.3-6.6,6.3-13.5,9.9-19.9c1.7-3,4.2-5.8,7-7.8
		c5.8-4.2,11.7-2.3,13.4,4.6c1.3,5.5,2,11.5,1.3,17c-1.5,11.2-3.8,22.2-6.3,33.2c-5.6,24.7-12.8,48.9-21.8,72.8
		c0.7,0.5,1.2,0.9,1.8,1.2c17.5,8.2,22.5,25.9,11.9,42c-7.9,12.1-20.5,15.2-33.2,8.2c-2.5-1.4-3.9-1.5-5.6,1.1
		c-3.4,5.1-7.3,9.7-13.4,11.9c-0.7,0.3-1.5,2.7-1.3,2.8c2.3,1.8,4.9,4.8,7.1,4.5c6.6-0.8,13.1-3,19.6-4.6c4.5-1.1,7.9-3.4,10.4-7.5
		c3.1-4.9,7.7-7.1,13.6-6.5c1.1,0.1,2.5-0.6,3.4-1.4c1.8-1.7,3.4-3.8,5.1-5.6c3.9-4.1,8.8-6.1,14.4-6.9c2.1-0.3,4.4-1.1,5.9-2.4
		c4.6-3.8,8.9-7.9,13.3-12c6.7-6.2,13.5-4.1,15.7,4.8c2.1,8.5-1.6,16-9.8,19.4c-1.8,0.8-3.7,1.4-5.7,2.2c0.8,5,3.3,9,6.3,12.7
		c5.1,6.4,10.5,12.6,15.2,19.3c2.4,3.4,4,7.6,5.1,11.6c0.5,2-0.8,4.6-1.5,6.9c-0.4,1.5-1.4,2.8-1.6,4.3c-1.3,7.5-8.3,10.7-14.7,6.7
		c-0.3-0.2-0.6-0.3-0.8-0.6c-7-7-16.7-7.7-25.3-10.9c-0.3-0.1-0.6,0.1-1,0.2c3.2,7,6.5,13.8,9.5,20.8c5.1,12.1-2.5,23.3-15.5,22.7
		c-3.8-0.2-7.7-1.8-11.2-3.4c-2.7-1.3-5.1-3.5-7.4-5.6c-7.8-6.9-17.4-10.9-26.7-15.3c-1.2-0.6-3-0.4-4.5-0.2
		c-11.8,1.7-23.6,3.7-35.4,5c-5.3,0.6-10.8-0.2-16.2-0.6c-4.2-0.3-5.9,1.3-5.5,5.6c0.1,1.2-0.2,2.5,0.1,3.6c0.4,2,0.6,4.3,1.7,5.7
		c7.3,9,9.6,19.2,10,30.8c0.3,7.1,0.9,15.3,5.1,21.8c3.2,5,7.2,9.6,11.2,13.9c6,6.5,12.2,12.8,18.8,18.7c2.2,2,5.6,3.2,8.6,3.5
		c15.5,1.6,31.2,2.4,46.2,7.1c3.9,1.2,7.7,3.3,11.2,5.6c4.6,3,5.5,7.4,3.2,12.5c-3.6,7.9-9.8,12.6-18.4,13.3
		c-16.2,1.3-32.5,2.1-48.7,3.4c-3.4,0.3-7,1.2-10,2.8c-12.9,6.6-26.1,12-40.6,13.8c-2.8,0.3-5.8,0.7-8.6,0.2
		c-3.1-0.6-5.6,0.3-8.3,1.3c-7,2.6-14.2,4.9-21.7,2.8c-3.5-1-7.1-2.7-9.9-5c-5-4-5-10.5-0.6-15.2c0.9-1,1.7-1.9,2.8-3.1
		c-5.4,1.5-10.4,3.2-15.5,4.1c-7.2,1.3-14.5,1.4-21.7-0.6c-1.3-0.4-2.9-0.2-4.2,0.1c-8.8,2.1-17.2,1.2-25-3.5
		c-1.9-1.2-3.8-2.8-5-4.7c-3.3-5.1-1.5-10.3,4.3-12c3.7-1.1,6.1-2.9,7.9-6.6c4-8.3,12-11.3,20.4-13.2c1.6-0.4,3.2-0.7,5.2-1.1
		c-0.9-1.6-1.7-3-2.6-4.4c-2.5-3.9-3.5-8.1-2-12.7c3.2-9.4,5.7-19.1,9.7-28.1c2.8-6.4,4.7-12.3,3.6-19.4c-1.1-7.4-0.1-14.8,3.4-21.6
		c0.4-0.8,0.5-2,0.1-2.8c-2.9-6.7-0.7-13,1.3-19.3c0.3-0.9,1.5-1.8,2.5-2c2.8-0.4,3.5-2.3,3.8-4.6c0-0.2,0.1-0.4,0.2-0.6
		c0.7-3.6,3.1-8.1,1.8-10.7C186.6,371.7,181.9,366.9,177.6,361.2z"/>
</g>
<g id="XMLID_3_">
	<g id="XMLID_134_">
		<path id="XMLID_138_" class="st0" d="M463.2,158.8c0,0,0.6,0,1,1c0.4,0.9,0.4,2.8-0.8,6.6c-0.6,1.9-2.1,5.7-4.1,10.3
			c-2,4.6-4.7,10-7.4,15c-2.7,5-5.5,9.7-7.7,13.1c-0.5,0.8-1,1.6-1.5,2.3c-0.4,0.7-0.8,1.3-1.2,1.7c-0.6,1-1,1.5-1,1.5
			s0.3-0.6,0.8-1.6c0.3-0.5,0.6-1.1,0.9-1.9c0.4-0.7,0.8-1.6,1.2-2.5c1.7-3.6,4-8.6,6.1-13.8c2.1-5.2,4.2-10.8,5.7-15.4
			c1.6-4.7,2.7-8.5,3.3-10.3c1.2-3.6,2.3-5.2,3.1-5.8C462.6,158.5,463.2,158.8,463.2,158.8z"/>
	</g>
	<g id="XMLID_129_">
		<path id="XMLID_133_" class="st0" d="M499.4,170.8c0,0,0.5,0.4,0,1.5c-0.5,1.1-1.9,2.8-5.6,5.5c-1.9,1.3-5.9,4-10.8,7.3
			c-4.9,3.3-10.8,7.2-16.4,11c-5.6,3.8-11,7.4-15,10.2c-4,2.7-6.5,4.5-6.5,4.5s2.4-2,6.1-5.1c3.7-3.1,8.7-7.3,14-11.6
			c5.3-4.3,10.8-8.8,15.5-12.5c4.7-3.7,8.6-6.7,10.5-8c3.8-2.7,5.9-3.4,7-3.4C499.2,170.2,499.4,170.8,499.4,170.8z"/>
	</g>
	<g id="XMLID_38_">
		<g id="XMLID_518_">
			<g id="XMLID_561_">
				<path id="XMLID_562_" class="st0" d="M396.7,136.7c0,0,0.3-0.6,1.6-0.2c0.7,0.2,1.6,0.8,2.9,1.8c0.2,0.1,0.3,0.3,0.5,0.4
					c0.2,0.1,0.3,0.3,0.5,0.5c0.4,0.3,0.7,0.7,1.1,1.1c0.4,0.4,0.8,0.9,1.3,1.4c0.2,0.2,0.5,0.5,0.7,0.8c0.2,0.3,0.5,0.6,0.7,0.9
					c0.5,0.6,1.1,1.4,1.8,2.3c0.2,0.2,0.4,0.5,0.6,0.7c0.2,0.3,0.4,0.5,0.6,0.8c0.4,0.5,0.8,1.1,1.2,1.7c0.4,0.6,0.9,1.2,1.4,1.9
					c0.5,0.7,0.9,1.4,1.4,2.1c0.2,0.4,0.5,0.7,0.7,1.1c0.3,0.4,0.5,0.8,0.8,1.2c0.5,0.8,1,1.6,1.5,2.5c0.3,0.4,0.5,0.9,0.8,1.3
					c0.3,0.4,0.5,0.9,0.8,1.3c0.5,0.9,1,1.8,1.6,2.8c0.3,0.5,0.5,0.9,0.8,1.4c0.3,0.5,0.5,1,0.8,1.5c0.5,1,1.1,2,1.5,3
					c0.5,1,1,2,1.5,3.1c0.3,0.5,0.5,1,0.7,1.6c0.2,0.5,0.5,1,0.7,1.6c1,2.1,1.8,4.2,2.7,6.3c3.5,8.4,6,16.8,7.6,23.1
					c0.2,0.8,0.4,1.5,0.6,2.2c0.2,0.7,0.3,1.4,0.5,2c0.3,1.3,0.5,2.4,0.7,3.3c0.2,0.9,0.3,1.6,0.4,2.1c0.1,0.5,0.1,0.7,0.1,0.7
					s-0.1-0.3-0.2-0.7c-0.1-0.5-0.3-1.2-0.5-2.1c-0.2-0.9-0.5-2-0.9-3.2c-0.2-0.6-0.4-1.3-0.6-2c-0.2-0.7-0.5-1.4-0.7-2.2
					c-2-6.1-5.1-14.2-9.1-22.2c-1-2-2-4-3.1-6c-0.3-0.5-0.5-1-0.8-1.5c-0.3-0.5-0.5-1-0.8-1.5c-0.6-1-1.1-1.9-1.7-2.9
					c-0.5-1-1.1-1.9-1.7-2.8c-0.3-0.5-0.6-0.9-0.8-1.4c-0.3-0.5-0.6-0.9-0.8-1.3c-0.6-0.9-1.2-1.7-1.7-2.6c-0.3-0.4-0.6-0.8-0.8-1.3
					c-0.3-0.4-0.6-0.8-0.8-1.2c-0.6-0.8-1.1-1.6-1.6-2.3c-0.3-0.4-0.5-0.7-0.8-1.1c-0.3-0.4-0.5-0.7-0.8-1.1c-0.5-0.7-1-1.4-1.5-2
					c-0.5-0.6-1-1.2-1.4-1.8c-0.4-0.6-0.9-1.1-1.3-1.6c-0.2-0.3-0.4-0.5-0.6-0.7c-0.2-0.2-0.4-0.5-0.6-0.7c-0.7-0.9-1.3-1.6-1.8-2.2
					c-0.2-0.3-0.5-0.6-0.7-0.9c-0.2-0.3-0.4-0.5-0.6-0.8c-0.4-0.5-0.8-1-1.1-1.4s-0.6-0.9-0.9-1.3c-0.3-0.4-0.5-0.8-0.7-1.1
					c-0.9-1.4-1.3-2.3-1.5-3C396,137,396.7,136.7,396.7,136.7z"/>
			</g>
			<g id="XMLID_559_">
				<path id="XMLID_560_" class="st0" d="M360.6,240.7c0,0-0.5-0.4,0.1-1.6c0.3-0.6,0.9-1.3,2-2.3c1.1-1,2.7-2.2,4.9-3.6
					c2.3-1.4,7.2-4.2,13.4-7.2c3.1-1.5,6.6-2.9,10.2-4.3c0.9-0.3,1.8-0.7,2.8-1c0.5-0.2,0.9-0.3,1.4-0.5c0.5-0.1,0.9-0.3,1.4-0.4
					l0.7-0.2l0.7-0.2l1.4-0.4c0.5-0.1,0.9-0.2,1.4-0.4l0.7-0.2l0.7-0.2c3.8-0.9,7.5-1.5,11-1.7c3.5-0.3,6.6-0.3,9.3-0.1
					c0.3,0,0.7,0,1,0.1c0.3,0,0.6,0.1,0.9,0.1c0.6,0.1,1.2,0.1,1.7,0.2c1.1,0.1,2,0.3,2.7,0.5c0.7,0.2,1.3,0.4,1.7,0.6
					c0.2,0.1,0.3,0.1,0.4,0.2c0.1,0,0.1,0.1,0.1,0.1s0,0-0.1-0.1c-0.1,0-0.2-0.1-0.4-0.2c-0.4-0.1-1-0.3-1.7-0.4
					c-0.7-0.1-1.7-0.2-2.7-0.2c-0.5,0-1.1,0-1.7,0c-0.3,0-0.6,0-0.9,0c-0.3,0-0.6,0-1,0c-2.7,0.1-5.8,0.4-9.1,1
					c-3.4,0.6-7,1.5-10.6,2.6l-0.7,0.2l-0.7,0.2c-0.5,0.2-0.9,0.3-1.4,0.5l-1.3,0.5l-0.7,0.2l-0.7,0.3c-0.4,0.2-0.9,0.4-1.3,0.5
					c-0.4,0.2-0.9,0.4-1.3,0.6c-0.9,0.4-1.7,0.8-2.6,1.1c-3.4,1.6-6.7,3.3-9.6,4.9c-5.9,3.3-10.5,6.3-12.7,7.7
					c-2.2,1.4-3.9,2.3-5.2,2.9c-1.3,0.6-2.2,0.8-2.8,0.8C360.8,241.3,360.6,240.7,360.6,240.7z"/>
			</g>
			<g id="XMLID_557_">
				<path id="XMLID_558_" class="st0" d="M477.2,281.2c0,0-0.5,0.4-1.4-0.4c-0.4-0.4-1-1.1-1.5-2.3c-0.6-1.2-1.3-2.8-2.1-5.2
					c-0.1-0.3-0.2-0.6-0.3-1c-0.1-0.4-0.3-0.8-0.4-1.2c-0.3-0.9-0.6-1.9-1-3c-0.2-0.6-0.4-1.1-0.6-1.8c-0.2-0.6-0.5-1.2-0.7-1.9
					c-0.3-0.7-0.5-1.3-0.8-2c-0.3-0.7-0.6-1.4-0.9-2.1c-1.2-2.9-2.6-6.1-4.3-9.2c-1.6-3.2-3.4-6.4-5.3-9.4
					c-3.8-6.1-7.8-11.7-11.3-15.3c-1.7-1.8-3.4-3.1-4.5-4c-0.6-0.4-1.1-0.7-1.4-0.9c-0.3-0.2-0.5-0.3-0.5-0.3s0.2,0.1,0.5,0.3
					c0.3,0.2,0.8,0.4,1.5,0.8c1.2,0.7,3,1.9,4.9,3.5c1.9,1.6,4.1,3.8,6.2,6.2c2.2,2.5,4.4,5.2,6.6,8.1c2.2,2.9,4.3,6,6.2,9.1
					c1.9,3.1,3.6,6.2,5.1,9.1c0.4,0.7,0.7,1.4,1.1,2.1c0.3,0.7,0.6,1.4,1,2c0.3,0.7,0.6,1.3,0.9,1.9c0.3,0.6,0.5,1.2,0.8,1.8
					c0.5,1.1,0.9,2.2,1.2,3.1c0.2,0.4,0.3,0.9,0.5,1.2c0.1,0.4,0.2,0.7,0.4,1c0.8,2.4,1.2,4.3,1.4,5.6c0.1,1.4,0.1,2.3-0.1,2.9
					C477.9,281.2,477.2,281.2,477.2,281.2z"/>
			</g>
			<g id="XMLID_555_">
				<path id="XMLID_556_" class="st0" d="M365.6,185.9c0,0-0.2-0.7,1-1.3c0.6-0.3,1.5-0.6,2.9-0.8c0.4,0,0.7-0.1,1.2-0.1
					c0.4,0,0.9,0,1.4,0c1,0,2.1,0,3.4,0.2c0.7,0.1,1.5,0.2,2.5,0.3c1,0.1,2.1,0.3,3.3,0.6c0.6,0.1,1.3,0.3,2,0.4
					c0.3,0.1,0.7,0.1,1,0.2c0.2,0,0.4,0.1,0.5,0.1c0.2,0,0.4,0.1,0.5,0.1c0.7,0.2,1.5,0.4,2.2,0.6c0.4,0.1,0.8,0.2,1.2,0.3
					c0.2,0.1,0.4,0.1,0.6,0.2c0.2,0.1,0.4,0.1,0.6,0.2c3.2,1,6.7,2.1,10.1,3.6c0.9,0.4,1.7,0.7,2.6,1.1c0.9,0.4,1.7,0.8,2.6,1.2
					l1.3,0.6l0.3,0.2l0.3,0.2l0.6,0.3c0.8,0.5,1.7,0.9,2.5,1.3c6.6,3.6,12.4,8,16.4,11.5c1,0.9,1.9,1.7,2.7,2.4
					c0.4,0.3,0.7,0.7,1.1,1c0.3,0.3,0.6,0.6,0.9,0.9c1.1,1.1,1.7,1.7,1.7,1.7s-0.7-0.5-1.8-1.5c-0.3-0.2-0.6-0.5-1-0.8
					c-0.4-0.3-0.7-0.6-1.2-0.9c-0.8-0.6-1.8-1.4-2.9-2.1c-4.3-3.1-10.3-6.8-17-9.8c-0.8-0.4-1.7-0.7-2.5-1.1l-0.6-0.3l-0.3-0.1
					l-0.3-0.1l-1.3-0.5c-0.9-0.3-1.7-0.7-2.6-1c-0.9-0.3-1.7-0.6-2.6-0.9c-3.5-1.1-6.9-2-10-2.7c-0.2,0-0.4-0.1-0.6-0.1
					c-0.2,0-0.4-0.1-0.6-0.1c-0.4-0.1-0.8-0.1-1.1-0.2c-0.8-0.1-1.5-0.3-2.2-0.4c-0.2,0-0.4-0.1-0.5-0.1c-0.2,0-0.3-0.1-0.5-0.1
					c-0.3,0-0.7-0.1-1-0.1c-0.7-0.1-1.3-0.2-1.9-0.3c-1.2-0.2-2.3-0.3-3.2-0.4c-0.9-0.1-1.7-0.2-2.3-0.3c-1.2-0.1-2.3-0.2-3.2-0.4
					c-0.5-0.1-0.9-0.1-1.3-0.2c-0.4-0.1-0.8-0.1-1.1-0.2c-1.3-0.3-2.1-0.6-2.7-1C365.4,186.5,365.6,185.9,365.6,185.9z"/>
			</g>
			<g id="XMLID_553_">
				<path id="XMLID_554_" class="st0" d="M512.4,261.7c0,0-0.3,0.6-1.6,0.1c-0.6-0.3-1.5-0.8-2.7-1.9c-1.2-1.1-2.7-2.6-4.7-4.9
					c-2-2.2-5.9-7.1-11.3-12.4c-2.7-2.7-5.8-5.4-9.1-8c-3.4-2.6-7.1-4.9-10.9-7c-3.8-2-7.7-3.7-11.4-4.9c-3.7-1.3-7.2-2.2-10.3-2.8
					c-1.5-0.3-2.9-0.5-4.1-0.7c-1.2-0.2-2.3-0.3-3.2-0.4c-1.8-0.2-2.8-0.2-2.8-0.2s1,0,2.8,0c0.9,0,2,0.1,3.2,0.1
					c1.3,0.1,2.7,0.2,4.2,0.4c3.1,0.4,6.7,1,10.6,2c3.9,1,8,2.4,12.1,4.2c4.1,1.8,8.1,3.9,11.8,6.4c3.7,2.4,7.1,5.1,10,7.7
					c5.9,5.2,10.2,9.9,12.2,12.1c2,2.3,3.3,4.1,4.2,5.5c0.9,1.4,1.3,2.4,1.4,3.1C513.1,261.4,512.4,261.7,512.4,261.7z"/>
			</g>
			<g id="XMLID_551_">
				<path id="XMLID_552_" class="st0" d="M521.5,231.2c0,0-0.1,0.7-1.3,0.9c-1.2,0.2-3.5-0.2-7.9-2.1c-2.2-0.9-6.8-3-12.5-5.3
					c-0.7-0.3-1.5-0.6-2.2-0.8c-0.8-0.3-1.5-0.6-2.3-0.8c-1.6-0.5-3.2-1.1-4.8-1.6c-0.8-0.3-1.7-0.5-2.5-0.8
					c-0.8-0.2-1.7-0.5-2.6-0.7c-1.7-0.5-3.4-0.9-5.1-1.3c-6.9-1.6-13.6-2.4-18.7-2.6c-1.3,0-2.4,0-3.4-0.1c-0.5,0-1,0-1.4,0
					c-0.4,0-0.8,0-1.2,0c-1.5,0-2.3,0.1-2.3,0.1s0.8-0.1,2.3-0.3c0.4,0,0.8-0.1,1.2-0.2c0.4-0.1,0.9-0.1,1.4-0.2
					c1-0.1,2.2-0.2,3.5-0.3c5.1-0.3,12.1-0.2,19.2,0.8c1.8,0.3,3.6,0.5,5.4,0.9c0.9,0.2,1.8,0.3,2.7,0.5c0.9,0.2,1.8,0.4,2.6,0.6
					c1.7,0.4,3.4,0.8,5.1,1.3c0.8,0.2,1.6,0.4,2.4,0.7c0.8,0.2,1.6,0.5,2.3,0.7c6,1.8,10.8,3.7,13.1,4.6c4.5,1.9,6.3,3.5,6.9,4.5
					C521.9,230.7,521.5,231.2,521.5,231.2z"/>
			</g>
			<g id="XMLID_549_">
				<path id="XMLID_550_" class="st0" d="M376.8,169.8c0,0,0-0.7,1.2-1c0.6-0.1,1.4-0.2,2.7,0c1.3,0.2,2.9,0.6,5.1,1.4
					c1.1,0.4,2.8,1.1,4.8,2c2.1,0.9,4.5,2.1,7.2,3.5c2.7,1.4,5.5,3.1,8.4,4.9c2.9,1.8,5.7,3.9,8.4,6.1c0.7,0.5,1.3,1.1,2,1.7
					c0.6,0.6,1.3,1.1,1.9,1.7c0.6,0.6,1.2,1.1,1.8,1.7c0.6,0.6,1.1,1.1,1.7,1.7c2.1,2.3,4,4.5,5.4,6.5c1.5,2,2.5,3.7,3.2,4.9
					c0.7,1.2,1.1,1.9,1.1,1.9s-0.5-0.6-1.3-1.8c-0.8-1.1-2-2.7-3.7-4.5c-1.6-1.8-3.6-3.8-5.9-5.8c-0.6-0.5-1.2-1-1.8-1.5
					c-0.6-0.5-1.2-1-1.9-1.5c-0.7-0.5-1.3-1-2-1.5c-0.7-0.5-1.3-1-2.1-1.4c-2.8-1.9-5.7-3.6-8.7-5.1c-2.9-1.5-5.8-2.9-8.5-4
					c-2.7-1.2-5.2-2.1-7.3-2.9c-2.1-0.8-3.7-1.4-4.8-1.8c-4.3-1.6-6.1-2.9-6.8-3.8C376.4,170.3,376.8,169.8,376.8,169.8z"/>
			</g>
			<g id="XMLID_547_">
				<path id="XMLID_548_" class="st0" d="M451.4,270.3c0,0-0.6,0.2-1.3-0.3c-0.7-0.6-1.5-1.9-1.9-5c-0.2-1.5-0.5-4.8-1.1-8.8
					c-0.5-4-1.3-8.7-2.3-13.2c-1-4.5-2.1-8.8-3.1-11.9c-0.2-0.8-0.5-1.5-0.7-2.1c-0.2-0.6-0.4-1.2-0.5-1.6c-0.3-0.9-0.5-1.4-0.5-1.4
					s0.2,0.5,0.7,1.3c0.2,0.4,0.5,0.9,0.8,1.5c0.3,0.6,0.6,1.3,1,2c1.4,2.9,3.1,7,4.7,11.3c1.6,4.4,3,9,4.1,13c1,4,1.7,7.3,1.9,8.9
					c0.4,3.2-0.1,4.8-0.6,5.6C452,270.3,451.4,270.3,451.4,270.3z"/>
			</g>
			<g id="XMLID_545_">
				<path id="XMLID_546_" class="st0" d="M486,255.5c0,0-0.5,0.5-1.4,0.2c-0.5-0.1-1-0.4-1.7-1.1c-0.2-0.2-0.3-0.3-0.5-0.5
					c-0.2-0.2-0.4-0.4-0.6-0.7c-0.4-0.5-0.8-1.1-1.3-1.8c-0.2-0.3-0.5-0.8-0.9-1.3c-0.4-0.5-0.7-1.1-1.2-1.8c-0.2-0.3-0.5-0.7-0.7-1
					c-0.3-0.4-0.5-0.8-0.8-1.1c-0.3-0.4-0.6-0.8-0.9-1.2c-0.2-0.2-0.3-0.4-0.5-0.6c-0.1-0.1-0.2-0.2-0.2-0.3
					c-0.1-0.1-0.2-0.2-0.3-0.3c-1.4-1.7-2.9-3.5-4.6-5.2c-0.4-0.4-0.9-0.9-1.3-1.3c-0.5-0.4-0.9-0.8-1.4-1.3
					c-0.9-0.9-1.9-1.7-2.8-2.5c-3.8-3.2-7.8-5.8-10.8-7.6c-0.8-0.4-1.5-0.8-2.1-1.2c-0.3-0.2-0.6-0.3-0.9-0.5
					c-0.3-0.1-0.5-0.3-0.8-0.4c-0.9-0.5-1.4-0.7-1.4-0.7s0.5,0.2,1.5,0.5c0.2,0.1,0.5,0.2,0.8,0.3c0.3,0.1,0.6,0.2,0.9,0.3
					c0.7,0.3,1.4,0.5,2.3,0.9c3.3,1.3,7.7,3.4,12,6.2c1.1,0.7,2.2,1.4,3.2,2.2c0.5,0.4,1,0.8,1.6,1.1c0.5,0.4,1,0.8,1.5,1.2
					c2,1.6,3.8,3.3,5.4,4.8c0.1,0.1,0.2,0.2,0.3,0.3c0.1,0.1,0.2,0.2,0.3,0.3c0.2,0.2,0.4,0.4,0.6,0.6c0.4,0.4,0.7,0.8,1.1,1.1
					c0.4,0.4,0.7,0.7,1,1.1c0.3,0.4,0.6,0.7,0.9,1c0.6,0.6,1,1.3,1.4,1.8c0.4,0.5,0.7,1,1,1.3c0.5,0.7,0.9,1.4,1.2,2
					c0.2,0.3,0.3,0.6,0.4,0.8c0.1,0.3,0.2,0.5,0.3,0.8c0.3,1,0.3,1.6,0.2,2.1C486.6,255.3,486,255.5,486,255.5z"/>
			</g>
			<g id="XMLID_543_">
				<path id="XMLID_544_" class="st0" d="M514.4,184.5c0,0,0.3,0.6-0.2,1.4c-0.5,0.8-1.7,1.9-4.8,3c-3.1,1.1-13,3.9-22.2,6.6
					c-9.1,2.7-17.5,5.2-17.5,5.2s2-0.9,5.1-2.4c3.1-1.4,7.3-3.3,11.7-5.3c8.8-3.9,18.4-8,21.5-9.1c3.1-1.1,4.7-1,5.5-0.6
					C514.4,183.8,514.4,184.5,514.4,184.5z"/>
			</g>
			<g id="XMLID_541_">
				<path id="XMLID_542_" class="st0" d="M397.8,263.6c0,0-0.6-0.3-0.6-1.2c-0.1-1,0.4-2.6,2.5-5.4c1-1.4,3.3-4.2,6.2-7.6
					c2.9-3.4,6.4-7.4,9.7-11.1c3.4-3.8,6.6-7.4,9.1-10c2.4-2.6,4-4.3,4-4.3s-1.3,1.9-3.4,4.8c-2.1,2.9-4.9,6.9-7.7,11.1
					c-2.9,4.2-5.9,8.5-8.4,12.2c-2.5,3.7-4.6,6.6-5.6,8c-2.1,2.8-3.5,3.7-4.4,3.9C398.2,264.1,397.8,263.6,397.8,263.6z"/>
			</g>
			<g id="XMLID_539_">
				<path id="XMLID_540_" class="st0" d="M411.9,134.7c0,0,0.4-0.5,1.3-0.3c0.9,0.2,2.4,1.1,4.3,4c0.9,1.5,2.8,4.6,4.8,8.6
					c2,4,4.1,8.9,5.9,13.7c1.8,4.8,3.2,9.5,4.2,13c0.2,0.9,0.4,1.7,0.6,2.4c0.2,0.7,0.3,1.3,0.4,1.8c0.2,1,0.4,1.6,0.4,1.6
					s-0.2-0.5-0.6-1.5c-0.2-0.5-0.4-1.1-0.7-1.7c-0.3-0.7-0.6-1.4-0.9-2.2c-1.4-3.3-3.4-7.7-5.7-12.1c-2.3-4.4-5-8.9-7.3-12.5
					c-2.3-3.6-4.4-6.5-5.3-7.9c-1.9-2.8-2.2-4.4-2.1-5.4C411.3,135,411.9,134.7,411.9,134.7z"/>
			</g>
			<g id="XMLID_537_">
				<path id="XMLID_538_" class="st0" d="M453.8,140.4c0,0,0.6-0.1,1.2,0.5c0.6,0.6,1,1.9,0.7,4.6c-0.2,1.3-0.7,4.1-1.4,7.6
					c-0.7,3.4-1.6,7.5-2.6,11.3c-0.9,3.9-1.9,7.6-2.6,10.3c-0.4,1.4-0.7,2.5-0.9,3.2c-0.2,0.8-0.3,1.2-0.3,1.2s0.2-1.8,0.5-4.6
					c0.3-2.8,0.6-6.5,0.9-10.5c0.3-3.9,0.6-8,0.8-11.4c0.2-3.4,0.4-6.2,0.6-7.5c0.3-2.7,1.1-3.8,1.7-4.4
					C453.2,140.3,453.8,140.4,453.8,140.4z"/>
			</g>
			<g id="XMLID_535_">
				<path id="XMLID_536_" class="st0" d="M490.1,153.6c0,0,0.6,0.3,0.5,1.3c0,1-0.7,2.7-3,5.4c-1.2,1.4-3.7,4.2-6.9,7.6
					c-3.1,3.4-6.8,7.5-10.4,11.5c-3.5,4-6.9,7.8-9.3,10.7c-2.4,2.9-4,4.7-4,4.7s0.3-0.5,0.9-1.4c0.6-0.9,1.4-2.2,2.5-3.8
					c2.1-3.2,4.9-7.4,8-11.8c3.1-4.4,6.3-8.9,9.1-12.7c2.8-3.8,5.2-6.8,6.3-8.2c2.4-2.8,3.9-3.6,4.9-3.8
					C489.8,153.1,490.1,153.6,490.1,153.6z"/>
			</g>
			<g id="XMLID_533_">
				<path id="XMLID_534_" class="st0" d="M435.8,280.7c0,0-0.6,0-1.1-0.8c-0.4-0.8-0.7-2.2,0-5.1c0.3-1.4,1.1-4.4,1.9-8.2
					c0.8-3.7,1.5-8.2,2-12.6c0.5-4.3,0.6-8.5,0.6-11.6c0-0.8,0-1.5,0-2.1c0-0.6,0-1.2,0-1.6c0-0.9,0-1.4,0-1.4s0.1,0.5,0.3,1.4
					c0.1,0.4,0.2,1,0.3,1.6c0.1,0.6,0.2,1.3,0.3,2.1c0.5,3.1,0.9,7.3,1.1,11.7c0.2,4.4,0.1,9.1-0.3,13c-0.3,3.9-0.9,7.1-1.2,8.6
					c-0.7,3-1.7,4.3-2.4,4.7C436.3,281,435.8,280.7,435.8,280.7z"/>
			</g>
			<g id="XMLID_531_">
				<path id="XMLID_532_" class="st0" d="M477.6,148.4c0,0,0.6,0.1,1,0.8c0.4,0.6,0.6,1.8-0.2,3.8c-0.4,1-1.4,3.1-2.7,5.5
					c-1.3,2.5-3,5.3-4.7,8c-1.7,2.7-3.4,5.2-4.6,7.1c-0.6,0.9-1.2,1.7-1.5,2.2c-0.4,0.5-0.6,0.8-0.6,0.8s0.1-0.3,0.4-0.9
					c0.3-0.6,0.6-1.4,1-2.5c0.9-2.1,2-4.9,3.1-7.8c1.1-2.9,2.2-6,3.1-8.6c0.9-2.6,1.6-4.7,2-5.7c0.8-2,1.7-2.7,2.4-2.9
					C477.1,148.1,477.6,148.4,477.6,148.4z"/>
			</g>
			<g id="XMLID_529_">
				<path id="XMLID_530_" class="st0" d="M401.9,280.8c0,0-0.6-0.2-0.6-1.3c0-1.1,0.6-2.9,2.8-6.2c1.1-1.6,3.5-5,6.4-9.2
					c2.9-4.2,6.1-9.4,9.1-14.4c3-5,5.6-10,7.5-13.7c0.5-0.9,0.9-1.8,1.3-2.5c0.4-0.8,0.7-1.4,0.9-1.9c0.5-1.1,0.8-1.7,0.8-1.7
					s-0.2,0.6-0.6,1.8c-0.2,0.6-0.4,1.3-0.7,2c-0.3,0.8-0.6,1.7-1,2.7c-1.5,3.9-3.5,9.2-6,14.5c-2.4,5.4-5.2,10.9-7.7,15.5
					c-2.5,4.6-4.8,8.2-5.9,9.9c-2.3,3.4-3.9,4.5-4.9,4.8C402.3,281.3,401.9,280.8,401.9,280.8z"/>
			</g>
			<g id="XMLID_527_">
				<path id="XMLID_528_" class="st0" d="M359.4,200.3c0,0-0.2-0.6,0.4-1.4c0.6-0.7,2-1.6,5.2-2c1.6-0.2,4.9-0.5,9.1-0.6
					c4.1-0.1,9.1-0.1,13.7,0.4c4.7,0.4,9.1,1.4,12.2,2.3c0.8,0.2,1.5,0.5,2.1,0.7c0.3,0.1,0.6,0.2,0.9,0.3c0.3,0.1,0.5,0.2,0.7,0.3
					c0.9,0.3,1.4,0.5,1.4,0.5s-0.5-0.1-1.4-0.3c-0.2,0-0.5-0.1-0.8-0.2c-0.3-0.1-0.6-0.1-0.9-0.2c-0.6-0.1-1.4-0.2-2.2-0.3
					c-3.2-0.4-7.6-0.7-12.2-0.5c-9.2,0.3-19.1,2.4-22.2,2.7c-3.1,0.4-4.6,0-5.4-0.6C359.4,201,359.4,200.3,359.4,200.3z"/>
			</g>
			<g id="XMLID_525_">
				<path id="XMLID_526_" class="st0" d="M498.5,259.6c0,0-0.5,0.4-1.2,0.5c-0.7,0-1.7-0.3-2.7-1.8c-0.5-0.7-1.4-2.4-2.6-4.4
					c-1.2-2-2.6-4.4-4.1-6.6c-1.5-2.2-3-4.3-4.1-5.8c-0.6-0.8-1-1.4-1.4-1.8c-0.3-0.4-0.5-0.7-0.5-0.7s0.2,0.2,0.7,0.5
					c0.4,0.3,1.1,0.8,1.8,1.4c1.5,1.2,3.5,2.8,5.5,4.6c2,1.8,4,3.8,5.6,5.6c1.6,1.8,2.8,3.3,3.3,4.1c1,1.6,0.9,2.7,0.6,3.4
					C499.1,259.3,498.5,259.6,498.5,259.6z"/>
			</g>
			<g id="XMLID_523_">
				<path id="XMLID_524_" class="st0" d="M464.2,279.5c0,0-0.6,0.1-1.3-0.1c-0.7-0.3-1.3-0.9-1.5-2.5c-0.1-0.8-0.1-2.5-0.2-4.6
					c-0.1-2.1-0.3-4.6-0.6-7.1c-0.3-2.4-0.7-4.7-1-6.4c-0.2-0.9-0.3-1.6-0.4-2c-0.1-0.5-0.2-0.8-0.2-0.8s0.1,0.2,0.4,0.7
					c0.2,0.4,0.6,1.1,1,1.8c0.8,1.5,1.8,3.7,2.7,6c0.9,2.3,1.8,4.8,2.4,6.9c0.6,2.1,1,3.9,1.1,4.8c0.2,1.7-0.4,2.6-1,3
					C464.8,279.5,464.2,279.5,464.2,279.5z"/>
			</g>
			<g id="XMLID_521_">
				<path id="XMLID_522_" class="st0" d="M522,248.4c0,0-0.3,0.6-1.3,0.6c-0.5,0-1.1-0.2-1.9-0.6c-0.2-0.1-0.4-0.2-0.7-0.4
					c-0.2-0.1-0.5-0.3-0.7-0.5c-0.5-0.4-1.1-0.8-1.7-1.4c-1.3-1.1-3.9-3.5-7.3-6.3c-3.4-2.7-7.7-5.8-12-8.4
					c-4.3-2.6-8.6-4.8-11.9-6.2c-0.8-0.4-1.6-0.7-2.2-1c-0.7-0.3-1.2-0.5-1.7-0.7c-1-0.4-1.5-0.6-1.5-0.6s0.6,0.1,1.6,0.4
					c0.5,0.1,1.1,0.3,1.8,0.5c0.7,0.2,1.5,0.4,2.4,0.7c3.5,1,8.1,2.6,12.8,4.7c4.7,2.1,9.4,4.6,13.3,7.1c3.8,2.4,6.8,4.7,8.1,5.8
					c0.7,0.6,1.2,1.1,1.7,1.6c0.2,0.2,0.4,0.5,0.6,0.7c0.2,0.2,0.3,0.4,0.5,0.7c0.5,0.8,0.7,1.5,0.8,2
					C522.5,248,522,248.4,522,248.4z"/>
			</g>
			<g id="XMLID_519_">
				<path id="XMLID_520_" class="st0" d="M374.3,247.1c0,0-0.5-0.4-0.5-1.3c0-0.9,0.6-2.3,2.9-4.4c1.1-1,3.6-3,6.8-5.1
					c3.2-2.1,7.1-4.4,11-6.3c3.9-1.9,7.7-3.4,10.5-4.4c0.7-0.2,1.4-0.5,1.9-0.7c0.6-0.2,1.1-0.3,1.5-0.5c0.8-0.3,1.3-0.4,1.3-0.4
					s-0.4,0.2-1.2,0.6c-0.4,0.2-0.9,0.4-1.4,0.7c-0.5,0.3-1.1,0.6-1.8,1c-2.6,1.4-6.1,3.5-9.6,5.9c-3.5,2.4-7,5.1-9.8,7.6
					c-2.8,2.4-5,4.5-6,5.5c-2.1,1.9-3.5,2.4-4.3,2.3C374.6,247.7,374.3,247.1,374.3,247.1z"/>
			</g>
		</g>
	</g>
</g>
<g id="XMLID_6_">
	<g id="XMLID_198_">
		<path id="XMLID_199_" class="st1" d="M312.4,37.3c0,0,0.6,0,0.9,0.8c0.3,0.8,0.4,2.5-0.7,5.7c-0.6,1.6-1.8,5-3.6,9
			c-1.8,4-4.1,8.7-6.5,13.1c-2.4,4.4-4.8,8.5-6.7,11.5c-0.5,0.7-0.9,1.4-1.3,2c-0.4,0.6-0.7,1.1-1,1.5c-0.6,0.8-0.9,1.3-0.9,1.3
			s0.3-0.5,0.7-1.4c0.2-0.5,0.5-1,0.8-1.6c0.3-0.6,0.7-1.4,1.1-2.1c1.5-3.2,3.5-7.5,5.4-12.1c1.9-4.6,3.6-9.4,5-13.5
			c1.4-4.1,2.4-7.4,2.9-9c1.1-3.2,2-4.5,2.7-5C311.9,37,312.4,37.3,312.4,37.3z"/>
	</g>
	<g id="XMLID_196_">
		<path id="XMLID_197_" class="st1" d="M344.1,47.8c0,0,0.4,0.4,0,1.3c-0.4,1-1.6,2.5-4.9,4.8c-1.6,1.2-5.2,3.5-9.5,6.4
			c-4.3,2.9-9.5,6.3-14.4,9.6c-4.9,3.3-9.6,6.5-13.1,8.9c-3.5,2.4-5.7,3.9-5.7,3.9s2.1-1.8,5.3-4.5c3.2-2.7,7.6-6.4,12.2-10.1
			c4.6-3.8,9.5-7.7,13.6-10.9c4.1-3.2,7.5-5.8,9.1-7c3.3-2.4,5.1-3,6.1-3C343.9,47.2,344.1,47.8,344.1,47.8z"/>
	</g>
	<g id="XMLID_7_">
		<g id="XMLID_563_">
			<g id="XMLID_606_">
				<path id="XMLID_607_" class="st1" d="M254.3,18c0,0,0.3-0.6,1.4-0.1c0.6,0.2,1.4,0.7,2.5,1.6c0.1,0.1,0.3,0.2,0.4,0.4
					c0.1,0.1,0.3,0.3,0.4,0.4c0.3,0.3,0.6,0.6,1,1c0.3,0.4,0.7,0.8,1.1,1.2c0.2,0.2,0.4,0.4,0.6,0.7c0.2,0.2,0.4,0.5,0.6,0.8
					c0.4,0.5,1,1.2,1.6,2c0.2,0.2,0.3,0.4,0.5,0.6c0.2,0.2,0.3,0.5,0.5,0.7c0.3,0.5,0.7,1,1.1,1.5c0.4,0.5,0.8,1.1,1.2,1.7
					c0.4,0.6,0.8,1.2,1.2,1.9c0.2,0.3,0.4,0.7,0.7,1c0.2,0.3,0.4,0.7,0.7,1c0.4,0.7,0.9,1.4,1.3,2.2c0.2,0.4,0.5,0.7,0.7,1.1
					c0.2,0.4,0.4,0.8,0.7,1.2c0.5,0.8,0.9,1.6,1.4,2.4c0.2,0.4,0.5,0.8,0.7,1.2c0.2,0.4,0.5,0.8,0.7,1.3c0.5,0.9,0.9,1.7,1.4,2.6
					c0.4,0.9,0.9,1.8,1.3,2.7c0.2,0.4,0.4,0.9,0.6,1.4c0.2,0.5,0.4,0.9,0.6,1.4c0.9,1.8,1.6,3.7,2.4,5.5c3,7.4,5.2,14.7,6.6,20.2
					c0.2,0.7,0.3,1.3,0.5,2c0.1,0.6,0.3,1.2,0.4,1.8c0.2,1.1,0.4,2.1,0.6,2.9c0.2,0.8,0.3,1.4,0.3,1.8c0.1,0.4,0.1,0.7,0.1,0.7
					s-0.1-0.2-0.2-0.6c-0.1-0.4-0.3-1-0.5-1.8c-0.2-0.8-0.5-1.7-0.8-2.8c-0.2-0.5-0.3-1.1-0.5-1.7c-0.2-0.6-0.4-1.2-0.6-1.9
					c-1.7-5.3-4.5-12.4-7.9-19.4c-0.9-1.7-1.8-3.5-2.7-5.2c-0.2-0.4-0.5-0.9-0.7-1.3c-0.2-0.4-0.5-0.9-0.7-1.3
					c-0.5-0.8-1-1.7-1.5-2.5c-0.5-0.8-1-1.6-1.5-2.4c-0.2-0.4-0.5-0.8-0.7-1.2c-0.2-0.4-0.5-0.8-0.7-1.2c-0.5-0.8-1-1.5-1.5-2.3
					c-0.2-0.4-0.5-0.7-0.7-1.1c-0.2-0.4-0.5-0.7-0.7-1c-0.5-0.7-1-1.4-1.4-2c-0.2-0.3-0.5-0.6-0.7-1c-0.2-0.3-0.5-0.6-0.7-0.9
					c-0.5-0.6-0.9-1.2-1.3-1.7c-0.4-0.6-0.8-1.1-1.2-1.6c-0.4-0.5-0.8-1-1.1-1.4c-0.2-0.2-0.3-0.4-0.5-0.6c-0.2-0.2-0.3-0.4-0.5-0.6
					c-0.6-0.8-1.2-1.4-1.6-1.9c-0.2-0.3-0.4-0.5-0.6-0.7c-0.2-0.2-0.4-0.5-0.6-0.7c-0.4-0.4-0.7-0.9-1-1.3c-0.3-0.4-0.6-0.8-0.8-1.1
					c-0.2-0.3-0.4-0.7-0.7-1c-0.8-1.2-1.2-2-1.3-2.6C253.8,18.2,254.3,18,254.3,18z"/>
			</g>
			<g id="XMLID_604_">
				<path id="XMLID_605_" class="st1" d="M222.8,108.8c0,0-0.4-0.4,0.1-1.4c0.3-0.5,0.8-1.2,1.7-2c0.9-0.9,2.3-1.9,4.3-3.1
					c2-1.2,6.2-3.7,11.7-6.3c2.7-1.3,5.8-2.6,8.9-3.7c0.8-0.3,1.6-0.6,2.4-0.8c0.4-0.1,0.8-0.3,1.2-0.4c0.4-0.1,0.8-0.2,1.2-0.4
					l0.6-0.2l0.6-0.2l1.2-0.3c0.4-0.1,0.8-0.2,1.2-0.3l0.6-0.2l0.6-0.1c3.3-0.8,6.6-1.3,9.6-1.5c3-0.3,5.8-0.3,8.1-0.1
					c0.3,0,0.6,0,0.9,0c0.3,0,0.5,0,0.8,0.1c0.5,0,1,0.1,1.5,0.1c0.9,0.1,1.7,0.3,2.4,0.4c0.6,0.2,1.1,0.4,1.5,0.5
					c0.2,0.1,0.3,0.1,0.4,0.2c0.1,0,0.1,0.1,0.1,0.1s0,0-0.1,0c-0.1,0-0.2-0.1-0.4-0.1c-0.3-0.1-0.8-0.2-1.5-0.3
					c-0.7-0.1-1.5-0.2-2.4-0.2c-0.5,0-1,0-1.5,0c-0.3,0-0.5,0-0.8,0c-0.3,0-0.6,0-0.9,0c-2.3,0.1-5.1,0.3-8,0.8
					c-2.9,0.5-6.1,1.3-9.2,2.3l-0.6,0.2l-0.6,0.2c-0.4,0.1-0.8,0.3-1.2,0.4l-1.2,0.4l-0.6,0.2l-0.6,0.2c-0.4,0.2-0.8,0.3-1.2,0.5
					c-0.4,0.2-0.8,0.3-1.2,0.5c-0.8,0.3-1.5,0.7-2.3,1c-3,1.4-5.8,2.8-8.4,4.3c-5.1,2.9-9.1,5.5-11.1,6.7c-2,1.2-3.4,2-4.6,2.5
					c-1.1,0.5-1.9,0.7-2.5,0.7C222.9,109.4,222.8,108.8,222.8,108.8z"/>
			</g>
			<g id="XMLID_602_">
				<path id="XMLID_603_" class="st1" d="M324.7,144.2c0,0-0.5,0.3-1.3-0.4c-0.4-0.3-0.8-1-1.3-2c-0.5-1-1.1-2.5-1.8-4.5
					c-0.1-0.3-0.2-0.5-0.3-0.9c-0.1-0.3-0.2-0.7-0.4-1.1c-0.3-0.8-0.5-1.7-0.9-2.6c-0.2-0.5-0.4-1-0.6-1.5c-0.2-0.5-0.4-1.1-0.6-1.7
					c-0.2-0.6-0.4-1.2-0.7-1.8c-0.2-0.6-0.5-1.2-0.8-1.9c-1.1-2.5-2.3-5.3-3.7-8.1c-1.4-2.8-3-5.6-4.6-8.2
					c-3.3-5.3-6.8-10.2-9.9-13.4c-1.5-1.6-2.9-2.7-3.9-3.5c-0.5-0.4-0.9-0.6-1.2-0.8c-0.3-0.2-0.4-0.3-0.4-0.3s0.2,0.1,0.5,0.2
					c0.3,0.1,0.7,0.4,1.3,0.7c1.1,0.6,2.6,1.6,4.3,3.1c1.7,1.4,3.6,3.3,5.5,5.4c1.9,2.2,3.9,4.5,5.8,7.1c1.9,2.6,3.7,5.2,5.4,7.9
					c1.7,2.7,3.2,5.4,4.5,7.9c0.3,0.6,0.6,1.3,0.9,1.9c0.3,0.6,0.6,1.2,0.8,1.8c0.3,0.6,0.5,1.1,0.8,1.7c0.2,0.5,0.5,1.1,0.7,1.6
					c0.4,1,0.8,1.9,1.1,2.7c0.1,0.4,0.3,0.8,0.4,1.1c0.1,0.3,0.2,0.6,0.3,0.9c0.7,2.1,1,3.7,1.2,4.9c0.1,1.2,0.1,2-0.1,2.6
					C325.2,144.2,324.7,144.2,324.7,144.2z"/>
			</g>
			<g id="XMLID_600_">
				<path id="XMLID_601_" class="st1" d="M227.2,60.9c0,0-0.2-0.6,0.8-1.1c0.5-0.3,1.3-0.5,2.5-0.7c0.3,0,0.6-0.1,1-0.1
					c0.4,0,0.8,0,1.2,0c0.9,0,1.9,0,3,0.1c0.6,0.1,1.3,0.2,2.1,0.3c0.9,0.1,1.8,0.3,2.9,0.5c0.5,0.1,1.1,0.2,1.7,0.3
					c0.3,0.1,0.6,0.1,0.9,0.2c0.2,0,0.3,0.1,0.5,0.1c0.2,0,0.3,0.1,0.5,0.1c0.6,0.2,1.3,0.3,2,0.5c0.3,0.1,0.7,0.2,1,0.3
					c0.2,0,0.3,0.1,0.5,0.1c0.2,0.1,0.3,0.1,0.5,0.2c2.8,0.8,5.8,1.9,8.8,3.1c0.8,0.3,1.5,0.6,2.3,1c0.7,0.4,1.5,0.7,2.2,1.1
					l1.1,0.5l0.3,0.1l0.3,0.1l0.5,0.3c0.7,0.4,1.5,0.8,2.2,1.2c5.8,3.2,10.8,7,14.3,10c0.9,0.8,1.6,1.5,2.3,2.1
					c0.4,0.3,0.7,0.6,0.9,0.9c0.3,0.3,0.5,0.5,0.8,0.8c0.9,0.9,1.5,1.5,1.5,1.5s-0.6-0.5-1.6-1.3c-0.3-0.2-0.5-0.4-0.8-0.7
					c-0.3-0.3-0.6-0.5-1-0.8c-0.7-0.6-1.6-1.2-2.5-1.9c-3.7-2.7-9-6-14.9-8.6c-0.7-0.3-1.5-0.6-2.2-1l-0.6-0.2L262,70l-0.3-0.1
					l-1.1-0.4c-0.8-0.3-1.5-0.6-2.3-0.9c-0.8-0.3-1.5-0.5-2.3-0.7c-3-1-6-1.7-8.8-2.4c-0.2,0-0.3-0.1-0.5-0.1
					c-0.2,0-0.3-0.1-0.5-0.1c-0.3-0.1-0.7-0.1-1-0.2c-0.7-0.1-1.3-0.2-1.9-0.4c-0.2,0-0.3-0.1-0.5-0.1c-0.2,0-0.3,0-0.5-0.1
					c-0.3,0-0.6-0.1-0.9-0.1c-0.6-0.1-1.1-0.2-1.6-0.2c-1-0.2-2-0.2-2.8-0.3c-0.8-0.1-1.5-0.2-2.1-0.2c-1.1-0.1-2-0.2-2.8-0.3
					c-0.4-0.1-0.8-0.1-1.1-0.2c-0.3-0.1-0.7-0.1-0.9-0.2c-1.2-0.2-1.9-0.6-2.3-0.8C227,61.5,227.2,60.9,227.2,60.9z"/>
			</g>
			<g id="XMLID_598_">
				<path id="XMLID_599_" class="st1" d="M355.5,127.1c0,0-0.3,0.5-1.4,0.1c-0.6-0.2-1.3-0.7-2.4-1.6c-1.1-0.9-2.4-2.3-4.1-4.2
					c-1.7-1.9-5.2-6.2-9.9-10.8c-2.4-2.3-5-4.7-8-7c-2.9-2.3-6.2-4.3-9.5-6.1c-3.3-1.8-6.7-3.2-10-4.3c-3.2-1.1-6.3-1.9-9-2.4
					c-1.3-0.3-2.5-0.5-3.6-0.6c-1.1-0.1-2-0.3-2.8-0.4c-1.6-0.1-2.4-0.2-2.4-0.2s0.9,0,2.5,0c0.8,0,1.7,0.1,2.8,0.1
					c1.1,0.1,2.3,0.2,3.7,0.4c2.7,0.3,5.9,0.9,9.3,1.7c3.4,0.9,7,2.1,10.5,3.6c3.6,1.5,7.1,3.4,10.3,5.6c3.2,2.1,6.2,4.4,8.8,6.7
					c5.1,4.5,8.9,8.6,10.6,10.6c1.7,2,2.9,3.6,3.6,4.8c0.8,1.2,1.1,2.1,1.3,2.7C356,126.9,355.5,127.1,355.5,127.1z"/>
			</g>
			<g id="XMLID_596_">
				<path id="XMLID_597_" class="st1" d="M363.4,100.5c0,0-0.1,0.6-1.1,0.7c-1,0.2-3-0.1-6.9-1.8c-1.9-0.8-5.9-2.6-10.9-4.6
					c-0.6-0.2-1.3-0.5-1.9-0.7c-0.7-0.2-1.3-0.5-2-0.7c-1.4-0.5-2.8-1-4.2-1.4c-0.7-0.2-1.5-0.5-2.2-0.7c-0.7-0.2-1.5-0.4-2.2-0.6
					c-1.5-0.4-3-0.8-4.5-1.2c-6-1.4-11.9-2.1-16.3-2.2c-1.1,0-2.1,0-3-0.1c-0.4,0-0.9,0-1.2,0c-0.4,0-0.7,0-1.1,0
					c-1.3,0-2,0.1-2,0.1s0.7-0.1,2-0.3c0.3,0,0.7-0.1,1.1-0.1c0.4,0,0.8-0.1,1.3-0.1c0.9-0.1,1.9-0.1,3-0.2
					c4.5-0.3,10.5-0.2,16.8,0.7c1.6,0.2,3.1,0.4,4.7,0.8c0.8,0.1,1.6,0.3,2.3,0.4c0.8,0.2,1.5,0.3,2.3,0.5c1.5,0.3,3,0.7,4.4,1.1
					c0.7,0.2,1.4,0.4,2.1,0.6c0.7,0.2,1.4,0.4,2,0.6c5.3,1.6,9.5,3.2,11.4,4c3.9,1.7,5.5,3,6,3.9
					C363.8,100.1,363.4,100.5,363.4,100.5z"/>
			</g>
			<g id="XMLID_594_">
				<path id="XMLID_595_" class="st1" d="M237,46.9c0,0,0-0.6,1-0.8c0.5-0.1,1.2-0.2,2.3,0c1.1,0.2,2.6,0.5,4.5,1.3
					c1,0.4,2.4,1,4.2,1.8c1.8,0.8,4,1.8,6.3,3.1c2.3,1.2,4.8,2.7,7.4,4.3c2.5,1.6,5,3.4,7.3,5.3c0.6,0.5,1.1,1,1.7,1.5
					c0.6,0.5,1.1,1,1.6,1.5c0.5,0.5,1.1,1,1.5,1.5c0.5,0.5,1,1,1.5,1.5c1.9,2,3.5,3.9,4.7,5.7c1.3,1.7,2.2,3.2,2.8,4.3
					c0.6,1.1,0.9,1.7,0.9,1.7s-0.4-0.6-1.1-1.5c-0.7-1-1.8-2.4-3.2-3.9c-1.4-1.6-3.1-3.3-5.1-5.1c-0.5-0.4-1-0.9-1.6-1.3
					c-0.5-0.4-1.1-0.9-1.6-1.3c-0.6-0.4-1.1-0.9-1.7-1.3c-0.6-0.4-1.2-0.8-1.8-1.2c-2.4-1.6-5-3.2-7.6-4.5c-2.6-1.3-5.1-2.5-7.5-3.5
					c-2.4-1-4.5-1.8-6.3-2.5c-1.8-0.7-3.3-1.2-4.2-1.6c-3.7-1.4-5.3-2.5-5.9-3.4C236.6,47.4,237,46.9,237,46.9z"/>
			</g>
			<g id="XMLID_592_">
				<path id="XMLID_593_" class="st1" d="M302.1,134.7c0,0-0.5,0.2-1.1-0.3c-0.6-0.5-1.3-1.6-1.6-4.4c-0.2-1.3-0.5-4.2-0.9-7.7
					c-0.5-3.5-1.2-7.6-2-11.6c-0.8-3.9-1.9-7.6-2.7-10.4c-0.2-0.7-0.4-1.3-0.6-1.8c-0.2-0.5-0.3-1-0.5-1.4c-0.3-0.8-0.4-1.2-0.4-1.2
					s0.2,0.4,0.6,1.1c0.2,0.4,0.4,0.8,0.7,1.3c0.2,0.5,0.5,1.1,0.8,1.7c1.2,2.6,2.7,6.1,4.1,9.9c1.4,3.8,2.7,7.9,3.6,11.4
					c0.9,3.5,1.4,6.4,1.7,7.8c0.4,2.8,0,4.2-0.5,4.9C302.7,134.7,302.1,134.7,302.1,134.7z"/>
			</g>
			<g id="XMLID_590_">
				<path id="XMLID_591_" class="st1" d="M332.3,121.8c0,0-0.4,0.4-1.2,0.2c-0.4-0.1-0.9-0.4-1.5-0.9c-0.1-0.1-0.3-0.3-0.5-0.5
					c-0.2-0.2-0.3-0.4-0.5-0.6c-0.4-0.4-0.7-0.9-1.1-1.5c-0.2-0.3-0.5-0.7-0.8-1.1c-0.3-0.5-0.7-1-1.1-1.6c-0.2-0.3-0.4-0.6-0.7-0.9
					c-0.2-0.3-0.5-0.7-0.7-1c-0.3-0.3-0.5-0.7-0.8-1c-0.1-0.2-0.3-0.4-0.4-0.5c-0.1-0.1-0.1-0.2-0.2-0.3c-0.1-0.1-0.1-0.2-0.2-0.3
					c-1.2-1.5-2.5-3-4-4.5c-0.4-0.4-0.8-0.8-1.1-1.2c-0.4-0.4-0.8-0.7-1.2-1.1c-0.8-0.8-1.6-1.5-2.4-2.2c-3.3-2.8-6.8-5.1-9.5-6.6
					c-0.7-0.4-1.3-0.7-1.8-1c-0.3-0.2-0.5-0.3-0.8-0.4c-0.2-0.1-0.5-0.2-0.7-0.3c-0.8-0.4-1.2-0.6-1.2-0.6s0.5,0.2,1.3,0.4
					c0.2,0.1,0.4,0.1,0.7,0.2c0.3,0.1,0.5,0.2,0.8,0.3c0.6,0.2,1.2,0.5,2,0.8c2.9,1.2,6.7,3,10.5,5.4c0.9,0.6,1.9,1.2,2.8,1.9
					c0.5,0.3,0.9,0.7,1.4,1c0.4,0.3,0.9,0.7,1.3,1c1.7,1.4,3.3,2.8,4.8,4.2c0.1,0.1,0.2,0.2,0.3,0.3c0.1,0.1,0.2,0.2,0.3,0.3
					c0.2,0.2,0.3,0.3,0.5,0.5c0.3,0.3,0.6,0.7,0.9,1c0.3,0.3,0.6,0.7,0.9,1c0.3,0.3,0.5,0.6,0.8,0.9c0.5,0.6,0.9,1.1,1.3,1.6
					c0.4,0.5,0.7,0.9,0.9,1.2c0.4,0.6,0.8,1.2,1,1.8c0.1,0.3,0.3,0.5,0.4,0.7c0.1,0.2,0.2,0.5,0.2,0.7c0.3,0.8,0.3,1.4,0.2,1.9
					C332.9,121.6,332.3,121.8,332.3,121.8z"/>
			</g>
			<g id="XMLID_588_">
				<path id="XMLID_589_" class="st1" d="M357.2,59.7c0,0,0.3,0.5-0.2,1.2c-0.4,0.7-1.5,1.7-4.2,2.6c-2.7,0.9-11.4,3.4-19.4,5.8
					c-8,2.3-15.3,4.6-15.3,4.6s1.7-0.8,4.4-2.1c2.7-1.2,6.4-2.9,10.2-4.6c7.7-3.4,16.1-7,18.8-7.9c2.7-0.9,4.1-0.8,4.8-0.5
					C357.2,59.1,357.2,59.7,357.2,59.7z"/>
			</g>
			<g id="XMLID_586_">
				<path id="XMLID_587_" class="st1" d="M255.3,128.9c0,0-0.5-0.2-0.5-1.1c0-0.8,0.4-2.3,2.2-4.7c0.9-1.2,2.9-3.7,5.4-6.6
					c2.5-3,5.6-6.4,8.5-9.7c2.9-3.3,5.8-6.4,7.9-8.7c2.1-2.3,3.5-3.8,3.5-3.8s-1.2,1.7-3,4.2c-1.8,2.6-4.2,6-6.8,9.7
					c-2.5,3.7-5.1,7.5-7.3,10.6c-2.2,3.2-4,5.8-4.9,7c-1.8,2.4-3.1,3.2-3.9,3.4C255.7,129.3,255.3,128.9,255.3,128.9z"/>
			</g>
			<g id="XMLID_584_">
				<path id="XMLID_585_" class="st1" d="M267.6,16.2c0,0,0.4-0.5,1.2-0.3c0.8,0.2,2.1,0.9,3.7,3.5c0.8,1.3,2.4,4,4.2,7.5
					c1.7,3.5,3.6,7.8,5.2,12c1.6,4.2,2.8,8.3,3.6,11.3c0.2,0.8,0.4,1.5,0.5,2.1c0.2,0.6,0.3,1.2,0.4,1.6c0.2,0.9,0.3,1.4,0.3,1.4
					s-0.2-0.5-0.5-1.3c-0.2-0.4-0.4-0.9-0.6-1.5c-0.2-0.6-0.5-1.2-0.8-2c-1.2-2.9-2.9-6.7-5-10.6c-2-3.9-4.3-7.7-6.4-10.9
					c-2-3.2-3.8-5.7-4.6-6.9c-1.6-2.4-2-3.9-1.9-4.7C267.1,16.5,267.6,16.2,267.6,16.2z"/>
			</g>
			<g id="XMLID_582_">
				<path id="XMLID_583_" class="st1" d="M304.2,21.2c0,0,0.6-0.1,1,0.5c0.5,0.5,0.9,1.6,0.6,4c-0.1,1.2-0.6,3.6-1.2,6.6
					c-0.6,3-1.4,6.5-2.2,9.9c-0.8,3.4-1.7,6.6-2.3,9c-0.3,1.2-0.6,2.2-0.8,2.8c-0.2,0.7-0.3,1.1-0.3,1.1s0.2-1.6,0.4-4
					c0.2-2.4,0.6-5.7,0.8-9.1c0.3-3.4,0.5-7,0.7-10c0.2-3,0.4-5.4,0.5-6.6c0.3-2.3,0.9-3.4,1.5-3.8
					C303.7,21.1,304.2,21.2,304.2,21.2z"/>
			</g>
			<g id="XMLID_580_">
				<path id="XMLID_581_" class="st1" d="M336,32.8c0,0,0.5,0.3,0.4,1.1c0,0.9-0.6,2.3-2.6,4.7c-1,1.2-3.3,3.6-6,6.6
					c-2.7,3-6,6.6-9.1,10.1c-3.1,3.5-6,6.8-8.1,9.3c-2.1,2.5-3.5,4.1-3.5,4.1s0.3-0.4,0.8-1.2c0.5-0.8,1.3-1.9,2.2-3.3
					c1.8-2.8,4.3-6.5,7-10.3c2.7-3.8,5.5-7.8,8-11.1c2.4-3.3,4.5-5.9,5.5-7.1c2.1-2.4,3.4-3.2,4.3-3.3C335.7,32.3,336,32.8,336,32.8
					z"/>
			</g>
			<g id="XMLID_578_">
				<path id="XMLID_579_" class="st1" d="M288.5,143.8c0,0-0.6,0-0.9-0.7c-0.4-0.7-0.6-1.9,0-4.4c0.3-1.3,1-3.9,1.6-7.1
					c0.7-3.3,1.3-7.2,1.7-11c0.4-3.8,0.5-7.5,0.5-10.2c0-0.7,0-1.3,0-1.8c0-0.5,0-1,0-1.4c0-0.8,0-1.2,0-1.2s0.1,0.4,0.2,1.2
					c0.1,0.4,0.2,0.8,0.2,1.4c0.1,0.5,0.2,1.1,0.3,1.8c0.4,2.7,0.8,6.3,1,10.2c0.2,3.9,0,8-0.2,11.4c-0.3,3.4-0.7,6.2-1,7.6
					c-0.6,2.6-1.5,3.7-2.1,4.1C289,144,288.5,143.8,288.5,143.8z"/>
			</g>
			<g id="XMLID_576_">
				<path id="XMLID_577_" class="st1" d="M325,28.2c0,0,0.5,0.1,0.9,0.7c0.4,0.6,0.6,1.6-0.1,3.3c-0.4,0.9-1.2,2.7-2.4,4.8
					c-1.2,2.2-2.6,4.7-4.1,7c-1.5,2.4-2.9,4.6-4,6.2c-0.6,0.8-1,1.5-1.3,1.9c-0.3,0.5-0.5,0.7-0.5,0.7s0.1-0.3,0.3-0.8
					c0.2-0.5,0.5-1.3,0.9-2.2c0.8-1.8,1.7-4.2,2.7-6.8c1-2.6,1.9-5.2,2.7-7.5c0.8-2.3,1.4-4.1,1.7-5c0.7-1.7,1.5-2.3,2.1-2.5
					C324.5,27.9,325,28.2,325,28.2z"/>
			</g>
			<g id="XMLID_574_">
				<path id="XMLID_575_" class="st1" d="M258.9,143.9c0,0-0.5-0.2-0.5-1.1c0-0.9,0.5-2.5,2.5-5.4c1-1.4,3.1-4.4,5.6-8.1
					c2.5-3.7,5.4-8.2,7.9-12.6c2.6-4.4,4.9-8.7,6.5-12c0.4-0.8,0.8-1.6,1.1-2.2c0.3-0.7,0.6-1.2,0.8-1.7c0.5-0.9,0.7-1.5,0.7-1.5
					s-0.2,0.6-0.5,1.5c-0.2,0.5-0.4,1.1-0.6,1.8c-0.3,0.7-0.5,1.5-0.8,2.3c-1.3,3.4-3.1,8-5.2,12.7c-2.1,4.7-4.6,9.5-6.8,13.5
					c-2.2,4-4.2,7.1-5.1,8.6c-2,2.9-3.4,3.9-4.3,4.2C259.2,144.3,258.9,143.9,258.9,143.9z"/>
			</g>
			<g id="XMLID_572_">
				<path id="XMLID_573_" class="st1" d="M221.8,73.5c0,0-0.2-0.5,0.4-1.2c0.5-0.6,1.8-1.4,4.5-1.7c1.4-0.2,4.3-0.4,7.9-0.5
					c3.6-0.1,7.9-0.1,12,0.4c4.1,0.4,7.9,1.2,10.7,2c0.7,0.2,1.3,0.4,1.9,0.6c0.3,0.1,0.5,0.2,0.8,0.3c0.2,0.1,0.4,0.2,0.6,0.2
					c0.8,0.3,1.2,0.4,1.2,0.4s-0.5-0.1-1.3-0.3c-0.2,0-0.4-0.1-0.7-0.1c-0.2,0-0.5-0.1-0.8-0.2c-0.6-0.1-1.2-0.2-1.9-0.3
					c-2.8-0.4-6.6-0.6-10.7-0.4c-8,0.3-16.7,2.1-19.4,2.4c-2.7,0.4-4.1,0-4.7-0.5C221.7,74.1,221.8,73.5,221.8,73.5z"/>
			</g>
			<g id="XMLID_570_">
				<path id="XMLID_571_" class="st1" d="M343.3,125.4c0,0-0.4,0.4-1.1,0.4c-0.6,0-1.5-0.2-2.3-1.5c-0.4-0.6-1.2-2.1-2.2-3.8
					c-1-1.7-2.3-3.8-3.6-5.7c-1.3-1.9-2.6-3.7-3.6-5.1c-0.5-0.7-0.9-1.2-1.2-1.6c-0.3-0.4-0.5-0.6-0.5-0.6s0.2,0.2,0.6,0.4
					c0.4,0.3,0.9,0.7,1.6,1.2c1.3,1,3,2.4,4.8,4c1.7,1.6,3.5,3.3,4.9,4.9c1.4,1.5,2.5,2.9,2.9,3.6c0.9,1.4,0.8,2.3,0.5,2.9
					C343.8,125.1,343.3,125.4,343.3,125.4z"/>
			</g>
			<g id="XMLID_568_">
				<path id="XMLID_569_" class="st1" d="M313.3,142.7c0,0-0.5,0.1-1.1-0.1c-0.6-0.2-1.2-0.8-1.3-2.2c-0.1-0.7-0.1-2.2-0.2-4.1
					c-0.1-1.8-0.3-4.1-0.5-6.2c-0.3-2.1-0.6-4.1-0.9-5.6c-0.2-0.7-0.3-1.4-0.4-1.8c-0.1-0.4-0.2-0.7-0.2-0.7s0.1,0.2,0.3,0.6
					c0.2,0.4,0.5,0.9,0.9,1.6c0.7,1.3,1.6,3.2,2.4,5.2c0.8,2,1.5,4.2,2.1,6c0.5,1.9,0.8,3.4,0.9,4.2c0.2,1.5-0.3,2.3-0.9,2.7
					C313.9,142.7,313.3,142.7,313.3,142.7z"/>
			</g>
			<g id="XMLID_566_">
				<path id="XMLID_567_" class="st1" d="M363.8,115.5c0,0-0.3,0.5-1.1,0.5c-0.4,0-1-0.1-1.7-0.5c-0.2-0.1-0.4-0.2-0.6-0.3
					c-0.2-0.1-0.4-0.3-0.6-0.4c-0.5-0.3-1-0.7-1.5-1.2c-1.1-1-3.4-3.1-6.4-5.5c-3-2.4-6.7-5-10.5-7.3c-3.7-2.3-7.5-4.2-10.4-5.4
					c-0.7-0.3-1.4-0.6-2-0.8c-0.6-0.2-1.1-0.4-1.5-0.6c-0.8-0.3-1.3-0.5-1.3-0.5s0.5,0.1,1.4,0.3c0.4,0.1,1,0.2,1.6,0.4
					c0.6,0.2,1.3,0.4,2.1,0.6c3,0.9,7.1,2.3,11.2,4.1c4.1,1.8,8.2,4,11.6,6.2c3.4,2.1,5.9,4.1,7.1,5.1c0.6,0.5,1.1,1,1.5,1.4
					c0.2,0.2,0.4,0.4,0.5,0.6c0.2,0.2,0.3,0.4,0.4,0.6c0.5,0.7,0.6,1.3,0.7,1.7C364.3,115.2,363.8,115.5,363.8,115.5z"/>
			</g>
			<g id="XMLID_564_">
				<path id="XMLID_565_" class="st1" d="M234.8,114.5c0,0-0.4-0.3-0.4-1.1c0-0.8,0.5-2,2.5-3.8c1-0.9,3.1-2.6,6-4.4
					c2.8-1.9,6.2-3.9,9.6-5.5c3.4-1.7,6.7-3,9.2-3.9c0.6-0.2,1.2-0.4,1.7-0.6c0.5-0.2,0.9-0.3,1.3-0.4c0.7-0.2,1.1-0.4,1.1-0.4
					s-0.4,0.2-1.1,0.5c-0.3,0.2-0.7,0.4-1.2,0.6c-0.5,0.2-1,0.5-1.6,0.8c-2.3,1.3-5.4,3.1-8.4,5.2c-3.1,2.1-6.1,4.5-8.5,6.6
					c-2.5,2.1-4.3,4-5.3,4.8c-1.9,1.7-3,2.1-3.8,2C235.1,114.9,234.8,114.5,234.8,114.5z"/>
			</g>
		</g>
	</g>
</g>
<g id="XMLID_4_">
	<g id="XMLID_148_">
		<path id="XMLID_149_" class="st2" d="M171.1,96.7c0,0,0.6,0,1,0.9c0.3,0.9,0.4,2.8-0.8,6.4c-0.6,1.8-2,5.5-4,10
			c-2,4.5-4.5,9.7-7.2,14.6c-2.6,4.9-5.4,9.5-7.5,12.8c-0.5,0.8-1,1.6-1.4,2.2c-0.4,0.7-0.8,1.2-1.1,1.7c-0.6,0.9-1,1.5-1,1.5
			s0.3-0.6,0.8-1.6c0.3-0.5,0.6-1.1,0.9-1.8c0.3-0.7,0.7-1.5,1.2-2.4c1.7-3.5,3.9-8.3,6-13.4c2.1-5.1,4-10.5,5.6-15
			c1.5-4.6,2.6-8.3,3.2-10c1.2-3.5,2.2-5,3-5.6C170.6,96.4,171.1,96.7,171.1,96.7z"/>
	</g>
	<g id="XMLID_146_">
		<path id="XMLID_147_" class="st2" d="M206.4,108.4c0,0,0.5,0.4,0,1.5c-0.4,1.1-1.8,2.8-5.5,5.4c-1.8,1.3-5.7,3.9-10.5,7.1
			c-4.8,3.2-10.5,7-16,10.7c-5.5,3.7-10.7,7.2-14.5,9.9c-3.8,2.6-6.3,4.4-6.3,4.4s2.3-2,5.9-5c3.6-3,8.5-7.1,13.6-11.3
			c5.1-4.2,10.5-8.5,15.1-12.1c4.6-3.6,8.3-6.5,10.2-7.8c3.7-2.6,5.7-3.3,6.8-3.3C206.2,107.7,206.4,108.4,206.4,108.4z"/>
	</g>
	<g id="XMLID_5_">
		<g id="XMLID_473_">
			<g id="XMLID_516_">
				<path id="XMLID_517_" class="st2" d="M106.5,75.2c0,0,0.3-0.6,1.6-0.2c0.6,0.2,1.5,0.8,2.8,1.8c0.2,0.1,0.3,0.3,0.5,0.4
					c0.2,0.1,0.3,0.3,0.5,0.5c0.3,0.3,0.7,0.7,1.1,1.1c0.4,0.4,0.8,0.8,1.2,1.3c0.2,0.2,0.4,0.5,0.7,0.8c0.2,0.3,0.4,0.6,0.7,0.8
					c0.5,0.6,1.1,1.3,1.7,2.2c0.2,0.2,0.4,0.5,0.5,0.7c0.2,0.2,0.4,0.5,0.6,0.8c0.4,0.5,0.8,1.1,1.2,1.7c0.4,0.6,0.9,1.2,1.3,1.9
					c0.4,0.7,0.9,1.4,1.4,2.1c0.2,0.4,0.5,0.7,0.7,1.1c0.2,0.4,0.5,0.7,0.7,1.1c0.5,0.8,1,1.6,1.5,2.4c0.3,0.4,0.5,0.8,0.8,1.3
					c0.2,0.4,0.5,0.9,0.8,1.3c0.5,0.9,1,1.8,1.5,2.7c0.3,0.4,0.5,0.9,0.8,1.4c0.2,0.5,0.5,0.9,0.8,1.4c0.5,1,1,1.9,1.5,2.9
					c0.5,1,1,2,1.5,3c0.3,0.5,0.5,1,0.7,1.5c0.2,0.5,0.5,1,0.7,1.5c1,2,1.8,4.1,2.7,6.1c3.4,8.2,5.8,16.4,7.3,22.5
					c0.2,0.8,0.4,1.5,0.5,2.2c0.2,0.7,0.3,1.4,0.5,2c0.3,1.2,0.5,2.3,0.7,3.2c0.2,0.9,0.3,1.6,0.4,2.1c0.1,0.5,0.1,0.7,0.1,0.7
					s-0.1-0.2-0.2-0.7c-0.1-0.5-0.3-1.1-0.5-2c-0.2-0.9-0.5-1.9-0.9-3.1c-0.2-0.6-0.4-1.2-0.6-1.9c-0.2-0.7-0.5-1.4-0.7-2.1
					c-1.9-5.9-5-13.8-8.8-21.6c-1-1.9-2-3.9-3-5.8c-0.3-0.5-0.5-1-0.8-1.4c-0.3-0.5-0.5-1-0.8-1.4c-0.5-0.9-1.1-1.9-1.6-2.8
					c-0.5-0.9-1.1-1.8-1.7-2.7c-0.3-0.4-0.6-0.9-0.8-1.3c-0.3-0.4-0.5-0.9-0.8-1.3c-0.6-0.8-1.1-1.7-1.7-2.5
					c-0.3-0.4-0.5-0.8-0.8-1.2c-0.3-0.4-0.6-0.8-0.8-1.2c-0.5-0.8-1.1-1.5-1.6-2.3c-0.3-0.4-0.5-0.7-0.8-1.1c-0.3-0.3-0.5-0.7-0.8-1
					c-0.5-0.7-1-1.3-1.4-1.9c-0.5-0.6-0.9-1.2-1.4-1.8c-0.4-0.6-0.9-1.1-1.2-1.6c-0.2-0.2-0.4-0.5-0.6-0.7c-0.2-0.2-0.4-0.4-0.5-0.7
					c-0.7-0.8-1.3-1.6-1.7-2.1c-0.2-0.3-0.4-0.6-0.7-0.8c-0.2-0.3-0.4-0.5-0.6-0.8c-0.4-0.5-0.8-1-1.1-1.4c-0.3-0.4-0.6-0.8-0.9-1.2
					c-0.3-0.4-0.5-0.7-0.7-1.1c-0.9-1.3-1.3-2.3-1.5-2.9C105.9,75.4,106.5,75.2,106.5,75.2z"/>
			</g>
			<g id="XMLID_514_">
				<path id="XMLID_515_" class="st2" d="M71.5,176.2c0,0-0.5-0.4,0.1-1.5c0.3-0.6,0.9-1.3,1.9-2.3c1.1-1,2.6-2.1,4.8-3.5
					c2.2-1.4,7-4.1,13-7c3-1.4,6.4-2.9,9.9-4.2c0.9-0.3,1.8-0.6,2.7-0.9c0.5-0.1,0.9-0.3,1.4-0.4c0.5-0.1,0.9-0.3,1.4-0.4l0.7-0.2
					l0.7-0.2l1.4-0.4c0.5-0.1,0.9-0.2,1.4-0.3l0.7-0.2l0.7-0.2c3.7-0.8,7.3-1.4,10.7-1.7c3.4-0.3,6.4-0.3,9-0.1c0.3,0,0.6,0,1,0.1
					c0.3,0,0.6,0.1,0.9,0.1c0.6,0.1,1.1,0.1,1.7,0.2c1,0.1,1.9,0.3,2.7,0.5c0.7,0.2,1.3,0.4,1.6,0.5c0.2,0.1,0.3,0.1,0.4,0.2
					c0.1,0,0.1,0.1,0.1,0.1s0,0-0.1-0.1c-0.1,0-0.2-0.1-0.4-0.1c-0.4-0.1-0.9-0.3-1.7-0.4c-0.7-0.1-1.6-0.2-2.7-0.2
					c-0.5,0-1.1,0-1.7,0c-0.3,0-0.6,0-0.9,0c-0.3,0-0.6,0-0.9,0c-2.6,0.1-5.6,0.4-8.9,0.9c-3.3,0.6-6.8,1.4-10.3,2.6l-0.7,0.2
					l-0.7,0.2c-0.4,0.1-0.9,0.3-1.3,0.4l-1.3,0.5l-0.7,0.2l-0.7,0.3c-0.4,0.2-0.9,0.3-1.3,0.5c-0.4,0.2-0.9,0.4-1.3,0.5
					c-0.9,0.3-1.7,0.7-2.5,1.1c-3.3,1.5-6.5,3.2-9.4,4.8c-5.7,3.2-10.2,6.1-12.4,7.5c-2.2,1.3-3.8,2.2-5.1,2.8
					c-1.3,0.5-2.1,0.8-2.7,0.8C71.6,176.9,71.5,176.2,71.5,176.2z"/>
			</g>
			<g id="XMLID_512_">
				<path id="XMLID_513_" class="st2" d="M184.8,215.6c0,0-0.5,0.4-1.4-0.4c-0.4-0.4-0.9-1.1-1.5-2.2c-0.6-1.1-1.2-2.8-2-5
					c-0.1-0.3-0.2-0.6-0.3-1c-0.1-0.4-0.3-0.7-0.4-1.2c-0.3-0.8-0.6-1.8-1-2.9c-0.2-0.5-0.4-1.1-0.6-1.7c-0.2-0.6-0.5-1.2-0.7-1.8
					c-0.2-0.6-0.5-1.3-0.8-2c-0.3-0.7-0.6-1.4-0.8-2.1c-1.2-2.8-2.6-5.9-4.1-9c-1.6-3.1-3.3-6.2-5.1-9.2c-3.7-5.9-7.6-11.4-11-14.9
					c-1.7-1.8-3.3-3-4.4-3.9c-0.6-0.4-1-0.7-1.3-0.9c-0.3-0.2-0.5-0.3-0.5-0.3s0.2,0.1,0.5,0.3c0.3,0.2,0.8,0.4,1.4,0.8
					c1.2,0.7,2.9,1.8,4.8,3.4c1.9,1.6,4,3.7,6.1,6.1c2.1,2.4,4.3,5,6.4,7.9c2.1,2.8,4.1,5.8,6,8.8c1.9,3,3.5,6,5,8.8
					c0.4,0.7,0.7,1.4,1,2.1c0.3,0.7,0.6,1.3,0.9,2c0.3,0.6,0.6,1.3,0.8,1.9c0.3,0.6,0.5,1.2,0.7,1.7c0.5,1.1,0.9,2.1,1.2,3
					c0.2,0.4,0.3,0.8,0.5,1.2c0.1,0.4,0.2,0.7,0.3,1c0.8,2.3,1.2,4.1,1.3,5.5c0.1,1.3,0.1,2.2-0.1,2.8
					C185.4,215.6,184.8,215.6,184.8,215.6z"/>
			</g>
			<g id="XMLID_510_">
				<path id="XMLID_511_" class="st2" d="M76.3,123c0,0-0.2-0.6,0.9-1.2c0.5-0.3,1.4-0.6,2.8-0.8c0.3,0,0.7-0.1,1.1-0.1
					c0.4,0,0.9,0,1.3,0c1,0,2.1,0,3.3,0.2c0.6,0.1,1.4,0.2,2.4,0.3c0.9,0.1,2,0.3,3.3,0.5c0.6,0.1,1.2,0.3,1.9,0.4
					c0.3,0.1,0.7,0.1,1,0.2c0.2,0,0.3,0.1,0.5,0.1c0.2,0,0.3,0.1,0.5,0.1c0.7,0.2,1.4,0.4,2.2,0.6c0.4,0.1,0.8,0.2,1.1,0.3
					c0.2,0.1,0.4,0.1,0.6,0.2c0.2,0.1,0.4,0.1,0.6,0.2c3.1,0.9,6.5,2.1,9.8,3.5c0.8,0.4,1.7,0.7,2.5,1.1c0.8,0.4,1.7,0.8,2.5,1.2
					l1.3,0.6l0.3,0.2l0.3,0.2l0.6,0.3c0.8,0.4,1.6,0.9,2.4,1.3c6.4,3.5,12,7.8,15.9,11.2c1,0.9,1.8,1.7,2.6,2.3c0.4,0.3,0.7,0.7,1,1
					c0.3,0.3,0.6,0.6,0.9,0.9c1,1,1.6,1.6,1.6,1.6s-0.6-0.5-1.8-1.5c-0.3-0.2-0.6-0.5-0.9-0.8c-0.3-0.3-0.7-0.6-1.1-0.9
					c-0.8-0.6-1.8-1.3-2.8-2.1c-4.2-3-10-6.6-16.6-9.5c-0.8-0.4-1.6-0.7-2.5-1.1l-0.6-0.3l-0.3-0.1l-0.3-0.1l-1.3-0.5
					c-0.8-0.3-1.7-0.6-2.5-1c-0.9-0.3-1.7-0.6-2.5-0.8c-3.4-1.1-6.7-1.9-9.7-2.6c-0.2,0-0.4-0.1-0.6-0.1c-0.2,0-0.4-0.1-0.6-0.1
					c-0.4-0.1-0.7-0.1-1.1-0.2c-0.7-0.1-1.4-0.3-2.1-0.4c-0.2,0-0.3-0.1-0.5-0.1c-0.2,0-0.3,0-0.5-0.1c-0.3,0-0.7-0.1-1-0.1
					c-0.6-0.1-1.3-0.2-1.8-0.3c-1.2-0.2-2.2-0.3-3.1-0.4c-0.9-0.1-1.7-0.2-2.3-0.3c-1.2-0.1-2.3-0.2-3.2-0.4
					c-0.5-0.1-0.9-0.1-1.2-0.2c-0.4-0.1-0.7-0.1-1.1-0.2c-1.3-0.3-2.1-0.6-2.6-0.9C76.1,123.6,76.3,123,76.3,123z"/>
			</g>
			<g id="XMLID_508_">
				<path id="XMLID_509_" class="st2" d="M219.1,196.7c0,0-0.3,0.6-1.6,0.1c-0.6-0.3-1.5-0.8-2.7-1.8c-1.2-1-2.7-2.5-4.6-4.7
					c-1.9-2.2-5.8-6.9-11-12.1c-2.6-2.6-5.6-5.3-8.9-7.8c-3.3-2.5-6.9-4.8-10.6-6.8c-3.7-2-7.5-3.6-11.1-4.8c-3.6-1.2-7-2.1-10-2.7
					c-1.5-0.3-2.8-0.5-4-0.7c-1.2-0.2-2.2-0.3-3.1-0.4c-1.7-0.2-2.7-0.2-2.7-0.2s1,0,2.7,0c0.9,0,1.9,0.1,3.2,0.1
					c1.2,0.1,2.6,0.2,4.1,0.4c3,0.4,6.6,1,10.3,1.9c3.8,1,7.8,2.3,11.7,4c4,1.7,7.9,3.8,11.4,6.2c3.6,2.4,6.9,4.9,9.7,7.4
					c5.7,5,9.9,9.6,11.8,11.8c1.9,2.2,3.2,4,4,5.3c0.8,1.4,1.2,2.3,1.4,3C219.7,196.4,219.1,196.7,219.1,196.7z"/>
			</g>
			<g id="XMLID_506_">
				<path id="XMLID_507_" class="st2" d="M227.8,167c0,0-0.1,0.7-1.3,0.8c-1.2,0.2-3.4-0.2-7.7-2c-2.2-0.9-6.6-2.9-12.2-5.1
					c-0.7-0.3-1.4-0.5-2.1-0.8c-0.7-0.3-1.5-0.6-2.2-0.8c-1.5-0.5-3.1-1.1-4.7-1.6c-0.8-0.3-1.6-0.5-2.4-0.8
					c-0.8-0.2-1.7-0.5-2.5-0.7c-1.7-0.5-3.3-0.9-5-1.3c-6.7-1.6-13.3-2.3-18.2-2.5c-1.2,0-2.3,0-3.3-0.1c-0.5,0-1,0-1.4,0
					c-0.4,0-0.8,0-1.2,0c-1.4,0-2.2,0.1-2.2,0.1s0.8-0.1,2.2-0.3c0.4,0,0.7-0.1,1.2-0.2c0.4-0.1,0.9-0.1,1.4-0.2
					c1-0.1,2.1-0.2,3.4-0.3c5-0.3,11.7-0.2,18.7,0.8c1.7,0.3,3.5,0.5,5.2,0.8c0.9,0.2,1.7,0.3,2.6,0.5c0.9,0.2,1.7,0.4,2.6,0.6
					c1.7,0.4,3.3,0.8,4.9,1.2c0.8,0.2,1.6,0.4,2.4,0.7c0.8,0.2,1.5,0.4,2.3,0.7c5.9,1.8,10.5,3.6,12.7,4.5c4.4,1.9,6.1,3.4,6.7,4.4
					C228.3,166.5,227.8,167,227.8,167z"/>
			</g>
			<g id="XMLID_504_">
				<path id="XMLID_505_" class="st2" d="M87.2,107.3c0,0,0-0.7,1.2-0.9c0.6-0.1,1.4-0.2,2.6,0c1.2,0.2,2.8,0.6,5,1.4
					c1.1,0.4,2.7,1.1,4.7,2c2,0.9,4.4,2.1,7,3.4c2.6,1.4,5.4,3,8.2,4.8c2.8,1.8,5.6,3.8,8.2,5.9c0.7,0.5,1.3,1.1,1.9,1.6
					c0.6,0.5,1.2,1.1,1.8,1.6c0.6,0.6,1.2,1.1,1.7,1.7c0.5,0.6,1.1,1.1,1.6,1.7c2.1,2.2,3.8,4.4,5.2,6.3c1.4,1.9,2.4,3.6,3.1,4.7
					c0.7,1.2,1.1,1.9,1.1,1.9s-0.4-0.6-1.2-1.7c-0.8-1.1-2-2.6-3.6-4.4c-1.6-1.7-3.5-3.7-5.7-5.6c-0.5-0.5-1.1-1-1.7-1.5
					c-0.6-0.5-1.2-1-1.8-1.5c-0.6-0.5-1.3-1-1.9-1.4c-0.7-0.5-1.3-0.9-2-1.4c-2.7-1.8-5.6-3.5-8.4-5c-2.9-1.5-5.7-2.8-8.3-3.9
					c-2.6-1.1-5-2.1-7.1-2.8c-2-0.8-3.6-1.3-4.7-1.7c-4.2-1.6-5.9-2.8-6.6-3.7C86.8,107.9,87.2,107.3,87.2,107.3z"/>
			</g>
			<g id="XMLID_502_">
				<path id="XMLID_503_" class="st2" d="M159.7,205.1c0,0-0.6,0.2-1.3-0.3c-0.7-0.5-1.4-1.8-1.8-4.8c-0.2-1.5-0.5-4.7-1-8.6
					c-0.5-3.9-1.3-8.5-2.3-12.9c-0.9-4.4-2.1-8.5-3-11.5c-0.2-0.8-0.4-1.4-0.6-2.1c-0.2-0.6-0.4-1.1-0.5-1.6
					c-0.3-0.9-0.4-1.4-0.4-1.4s0.2,0.5,0.6,1.3c0.2,0.4,0.5,0.9,0.7,1.5c0.3,0.6,0.6,1.2,0.9,1.9c1.3,2.9,3.1,6.8,4.6,11
					c1.6,4.2,3,8.8,4,12.6c1,3.9,1.6,7.1,1.8,8.7c0.4,3.1-0.1,4.7-0.6,5.4C160.3,205.1,159.7,205.1,159.7,205.1z"/>
			</g>
			<g id="XMLID_500_">
				<path id="XMLID_501_" class="st2" d="M193.3,190.7c0,0-0.5,0.5-1.3,0.2c-0.4-0.1-1-0.4-1.6-1c-0.2-0.2-0.3-0.3-0.5-0.5
					c-0.2-0.2-0.4-0.4-0.6-0.6c-0.4-0.5-0.8-1-1.3-1.7c-0.2-0.3-0.5-0.8-0.9-1.3c-0.3-0.5-0.7-1.1-1.2-1.7c-0.2-0.3-0.5-0.7-0.7-1
					c-0.3-0.3-0.5-0.7-0.8-1.1c-0.3-0.4-0.6-0.8-0.9-1.1c-0.2-0.2-0.3-0.4-0.5-0.6c-0.1-0.1-0.2-0.2-0.2-0.3
					c-0.1-0.1-0.2-0.2-0.3-0.3c-1.3-1.6-2.8-3.4-4.5-5.1c-0.4-0.4-0.8-0.9-1.3-1.3c-0.4-0.4-0.9-0.8-1.3-1.2
					c-0.9-0.8-1.8-1.6-2.7-2.4c-3.7-3.1-7.6-5.7-10.5-7.4c-0.8-0.4-1.4-0.8-2-1.1c-0.3-0.2-0.6-0.3-0.9-0.4
					c-0.3-0.1-0.5-0.3-0.7-0.4c-0.9-0.4-1.4-0.7-1.4-0.7s0.5,0.2,1.5,0.5c0.2,0.1,0.5,0.2,0.8,0.3c0.3,0.1,0.6,0.2,0.9,0.3
					c0.7,0.2,1.4,0.5,2.2,0.8c3.2,1.3,7.5,3.3,11.6,6c1,0.7,2.1,1.4,3.1,2.1c0.5,0.4,1,0.7,1.5,1.1c0.5,0.4,1,0.8,1.5,1.2
					c1.9,1.5,3.7,3.2,5.3,4.7c0.1,0.1,0.2,0.2,0.3,0.3c0.1,0.1,0.2,0.2,0.3,0.3c0.2,0.2,0.4,0.4,0.6,0.6c0.4,0.4,0.7,0.8,1.1,1.1
					c0.3,0.4,0.6,0.7,1,1.1c0.3,0.3,0.6,0.7,0.9,1c0.6,0.6,1,1.2,1.4,1.7c0.4,0.5,0.7,1,1,1.3c0.5,0.7,0.9,1.4,1.2,2
					c0.2,0.3,0.3,0.6,0.4,0.8c0.1,0.3,0.2,0.5,0.3,0.7c0.3,0.9,0.3,1.6,0.2,2.1C193.9,190.4,193.3,190.7,193.3,190.7z"/>
			</g>
			<g id="XMLID_498_">
				<path id="XMLID_499_" class="st2" d="M221,121.6c0,0,0.3,0.6-0.2,1.4c-0.5,0.8-1.7,1.9-4.7,2.9c-3,1-12.6,3.8-21.5,6.4
					c-8.9,2.6-17,5.1-17,5.1s1.9-0.9,4.9-2.3c3-1.4,7.1-3.2,11.4-5.1c8.5-3.8,17.9-7.8,20.9-8.8c3-1,4.5-0.9,5.3-0.6
					C221,121,221,121.6,221,121.6z"/>
			</g>
			<g id="XMLID_496_">
				<path id="XMLID_497_" class="st2" d="M107.6,198.6c0,0-0.6-0.3-0.6-1.2c-0.1-0.9,0.4-2.5,2.4-5.2c1-1.3,3.2-4.1,6.1-7.4
					c2.8-3.3,6.2-7.2,9.5-10.8c3.3-3.7,6.4-7.2,8.8-9.7c2.4-2.5,3.9-4.2,3.9-4.2s-1.3,1.8-3.3,4.7c-2,2.9-4.7,6.7-7.5,10.8
					c-2.8,4.1-5.7,8.3-8.2,11.8c-2.4,3.6-4.4,6.5-5.4,7.8c-2,2.7-3.4,3.5-4.3,3.7C108,199.1,107.6,198.6,107.6,198.6z"/>
			</g>
			<g id="XMLID_494_">
				<path id="XMLID_495_" class="st2" d="M121.3,73.2c0,0,0.4-0.5,1.3-0.3c0.9,0.2,2.3,1,4.2,3.9c0.9,1.4,2.7,4.5,4.6,8.4
					c1.9,3.9,4,8.6,5.7,13.3c1.7,4.6,3.1,9.2,4,12.6c0.2,0.8,0.4,1.6,0.6,2.3c0.2,0.7,0.3,1.3,0.4,1.8c0.2,1,0.4,1.5,0.4,1.5
					s-0.2-0.5-0.6-1.5c-0.2-0.5-0.4-1-0.7-1.7c-0.3-0.6-0.6-1.4-0.9-2.2c-1.3-3.2-3.3-7.5-5.5-11.7c-2.3-4.3-4.8-8.6-7.1-12.2
					c-2.3-3.5-4.3-6.3-5.1-7.7c-1.8-2.7-2.2-4.3-2.1-5.3C120.7,73.5,121.3,73.2,121.3,73.2z"/>
			</g>
			<g id="XMLID_492_">
				<path id="XMLID_493_" class="st2" d="M162,78.8c0,0,0.6-0.1,1.2,0.5c0.5,0.6,1,1.8,0.7,4.4c-0.2,1.3-0.6,4-1.3,7.4
					c-0.7,3.3-1.6,7.3-2.5,11c-0.9,3.8-1.9,7.3-2.6,10c-0.4,1.3-0.7,2.4-0.9,3.2c-0.2,0.8-0.3,1.2-0.3,1.2s0.2-1.7,0.5-4.4
					c0.3-2.7,0.6-6.4,0.9-10.2c0.3-3.8,0.6-7.8,0.8-11.1c0.2-3.3,0.4-6,0.6-7.3c0.3-2.6,1-3.7,1.7-4.2C161.4,78.6,162,78.8,162,78.8
					z"/>
			</g>
			<g id="XMLID_490_">
				<path id="XMLID_491_" class="st2" d="M197.4,91.6c0,0,0.5,0.3,0.5,1.3c0,1-0.7,2.6-2.9,5.3c-1.1,1.3-3.6,4-6.7,7.4
					c-3,3.3-6.7,7.3-10.1,11.2c-3.4,3.9-6.7,7.6-9,10.4c-2.4,2.8-3.9,4.6-3.9,4.6s0.3-0.5,0.9-1.4c0.6-0.9,1.4-2.1,2.4-3.7
					c2-3.1,4.8-7.2,7.8-11.5c3-4.3,6.1-8.7,8.9-12.3c2.7-3.7,5-6.6,6.2-7.9c2.3-2.7,3.8-3.5,4.7-3.7C197,91.1,197.4,91.6,197.4,91.6
					z"/>
			</g>
			<g id="XMLID_488_">
				<path id="XMLID_489_" class="st2" d="M144.5,215.2c0,0-0.6,0-1-0.8c-0.4-0.7-0.7-2.1,0-4.9c0.3-1.4,1.1-4.3,1.8-7.9
					c0.8-3.6,1.5-8,1.9-12.2c0.5-4.2,0.6-8.3,0.6-11.3c0-0.8,0-1.4,0-2c0-0.6,0-1.1,0-1.6c0-0.9,0-1.4,0-1.4s0.1,0.5,0.2,1.3
					c0.1,0.4,0.2,0.9,0.3,1.5c0.1,0.6,0.2,1.3,0.3,2c0.4,3,0.9,7.1,1.1,11.4c0.2,4.3,0.1,8.9-0.3,12.7c-0.3,3.8-0.8,6.9-1.1,8.4
					c-0.7,2.9-1.6,4.1-2.4,4.6C145.1,215.4,144.5,215.2,144.5,215.2z"/>
			</g>
			<g id="XMLID_486_">
				<path id="XMLID_487_" class="st2" d="M185.2,86.5c0,0,0.6,0.1,1,0.7c0.4,0.6,0.6,1.7-0.2,3.7c-0.4,1-1.4,3-2.7,5.4
					c-1.3,2.4-2.9,5.2-4.5,7.8c-1.6,2.6-3.3,5.1-4.5,6.9c-0.6,0.9-1.1,1.6-1.5,2.1c-0.4,0.5-0.6,0.8-0.6,0.8s0.1-0.3,0.4-0.9
					c0.2-0.6,0.6-1.4,1-2.4c0.8-2,1.9-4.7,3-7.6c1.1-2.9,2.1-5.8,3-8.4c0.9-2.5,1.5-4.6,1.9-5.5c0.8-1.9,1.7-2.6,2.4-2.8
					C184.7,86.2,185.2,86.5,185.2,86.5z"/>
			</g>
			<g id="XMLID_484_">
				<path id="XMLID_485_" class="st2" d="M111.6,215.3c0,0-0.6-0.2-0.6-1.3c0-1,0.6-2.8,2.7-6c1.1-1.6,3.4-4.9,6.2-9
					c2.8-4.1,6-9.1,8.8-14c2.9-4.9,5.4-9.7,7.3-13.3c0.5-0.9,0.9-1.7,1.2-2.5c0.4-0.7,0.7-1.4,0.9-1.9c0.5-1,0.8-1.6,0.8-1.6
					s-0.2,0.6-0.6,1.7c-0.2,0.5-0.4,1.2-0.7,2c-0.3,0.8-0.6,1.6-0.9,2.6c-1.4,3.8-3.4,8.9-5.8,14.1c-2.4,5.2-5.1,10.6-7.5,15.1
					c-2.4,4.4-4.6,7.9-5.7,9.6c-2.2,3.3-3.8,4.4-4.7,4.7C112,215.8,111.6,215.3,111.6,215.3z"/>
			</g>
			<g id="XMLID_482_">
				<path id="XMLID_483_" class="st2" d="M70.3,137c0,0-0.2-0.6,0.4-1.3c0.6-0.7,2-1.5,5.1-1.9c1.5-0.2,4.8-0.5,8.8-0.6
					c4-0.1,8.8-0.1,13.3,0.4c4.5,0.4,8.8,1.3,11.9,2.2c0.8,0.2,1.4,0.5,2.1,0.7c0.3,0.1,0.6,0.2,0.8,0.3c0.3,0.1,0.5,0.2,0.7,0.3
					c0.8,0.3,1.3,0.5,1.3,0.5s-0.5-0.1-1.4-0.3c-0.2,0-0.5-0.1-0.7-0.2c-0.3-0.1-0.6-0.1-0.9-0.2c-0.6-0.1-1.3-0.2-2.1-0.3
					c-3.1-0.4-7.4-0.7-11.9-0.5c-8.9,0.3-18.6,2.3-21.6,2.7c-3.1,0.4-4.5,0-5.2-0.6C70.2,137.6,70.3,137,70.3,137z"/>
			</g>
			<g id="XMLID_480_">
				<path id="XMLID_481_" class="st2" d="M205.5,194.7c0,0-0.5,0.4-1.2,0.5c-0.7,0-1.6-0.3-2.6-1.7c-0.5-0.7-1.4-2.3-2.5-4.3
					c-1.1-1.9-2.5-4.2-4-6.4c-1.4-2.2-2.9-4.2-4-5.6c-0.6-0.7-1-1.3-1.4-1.7c-0.3-0.4-0.5-0.6-0.5-0.6s0.2,0.2,0.7,0.5
					c0.4,0.3,1,0.8,1.7,1.3c1.4,1.1,3.4,2.7,5.3,4.5c1.9,1.8,3.9,3.7,5.4,5.4c1.6,1.7,2.7,3.2,3.2,4c1,1.5,0.9,2.6,0.6,3.3
					C206.1,194.4,205.5,194.7,205.5,194.7z"/>
			</g>
			<g id="XMLID_478_">
				<path id="XMLID_479_" class="st2" d="M172.2,214c0,0-0.6,0.1-1.2-0.1c-0.6-0.3-1.3-0.9-1.4-2.5c-0.1-0.8-0.1-2.4-0.2-4.5
					c-0.1-2.1-0.3-4.5-0.6-6.9c-0.3-2.4-0.7-4.6-1-6.3c-0.2-0.8-0.3-1.5-0.4-2c-0.1-0.5-0.2-0.7-0.2-0.7s0.1,0.2,0.4,0.7
					c0.2,0.4,0.6,1,0.9,1.8c0.8,1.5,1.8,3.6,2.6,5.8c0.9,2.2,1.7,4.6,2.3,6.7c0.6,2.1,0.9,3.8,1,4.6c0.2,1.7-0.4,2.5-1,3
					C172.8,214,172.2,214,172.2,214z"/>
			</g>
			<g id="XMLID_476_">
				<path id="XMLID_477_" class="st2" d="M228.3,183.7c0,0-0.3,0.6-1.3,0.5c-0.5,0-1.1-0.2-1.9-0.6c-0.2-0.1-0.4-0.2-0.6-0.4
					c-0.2-0.1-0.5-0.3-0.7-0.5c-0.5-0.4-1.1-0.8-1.7-1.3c-1.3-1.1-3.8-3.4-7.1-6.1c-3.3-2.7-7.5-5.6-11.6-8.1
					c-4.2-2.5-8.4-4.6-11.6-6.1c-0.8-0.3-1.5-0.7-2.2-0.9c-0.6-0.3-1.2-0.5-1.7-0.7c-0.9-0.4-1.5-0.6-1.5-0.6s0.6,0.1,1.5,0.4
					c0.5,0.1,1.1,0.3,1.8,0.4c0.7,0.2,1.5,0.4,2.3,0.6c3.4,1,7.9,2.5,12.4,4.5c4.6,2,9.2,4.5,12.9,6.9c3.7,2.4,6.6,4.6,7.9,5.7
					c0.6,0.6,1.2,1.1,1.6,1.6c0.2,0.2,0.4,0.5,0.6,0.7c0.2,0.2,0.3,0.4,0.4,0.6c0.5,0.8,0.7,1.4,0.8,1.9
					C228.9,183.4,228.3,183.7,228.3,183.7z"/>
			</g>
			<g id="XMLID_474_">
				<path id="XMLID_475_" class="st2" d="M84.8,182.5c0,0-0.5-0.4-0.5-1.2c0-0.9,0.6-2.3,2.8-4.2c1.1-1,3.5-2.9,6.6-4.9
					c3.1-2.1,6.9-4.3,10.7-6.1c3.8-1.9,7.5-3.3,10.2-4.3c0.7-0.2,1.3-0.5,1.9-0.6c0.6-0.2,1-0.3,1.4-0.5c0.8-0.2,1.2-0.4,1.2-0.4
					s-0.4,0.2-1.2,0.6c-0.4,0.2-0.8,0.4-1.4,0.7c-0.5,0.3-1.1,0.6-1.8,0.9c-2.6,1.4-6,3.4-9.4,5.8c-3.4,2.3-6.8,5-9.5,7.4
					c-2.7,2.3-4.8,4.4-5.9,5.3c-2.1,1.9-3.4,2.3-4.2,2.3C85.1,183.1,84.8,182.5,84.8,182.5z"/>
			</g>
		</g>
	</g>
</g>
</svg>
