<svg xmlns="http://www.w3.org/2000/svg" viewBox="0 0 434.13 461.74"><defs><style>.cls-1,.cls-2,.cls-3,.cls-4,.cls-5,.cls-6{fill-rule:evenodd;}.cls-2{fill:red;}.cls-3{fill:blue;}.cls-4{fill:#e20a13;}.cls-5{fill:#fc0;}.cls-6{fill:#ff0;}</style></defs><g id="katman_2" data-name="katman 2"><g id="katman_1-2" data-name="katman 1"><path class="cls-1" d="M155.56,269.68c-2.49-5.7-6.35-27.78-7.38-39-.8-4.34-.11-12.13-.11-16.81a45.73,45.73,0,0,1-13.39,15c-9.92,6.82-19.92,6.69-23.81,4.95,6.91-.33,19.39-2.65,27.71-11a52,52,0,0,0,8.57-11.15c3.11-6,3.77-6.81,5.18-12.22,4-17.54-7.45-31.75-12.25-40.6-9.64-21.47,2-39.06,3.82-43.6a46.51,46.51,0,0,0-6.55,4.58C127.4,128,123.92,133,119.26,144.45a43.4,43.4,0,0,0-2.81,15.83l-1.27,0c0-16.62,6.68-30.73,18.91-40.36a85.48,85.48,0,0,1,14.8-9.59c14.9-7.43,49.6-15.74,59.85-22.12,8.12-5,13-7.61,19.77-14.39,3.46-2.6,7.29-8.36,11.09-13.51-.68,3-1.15,3.87-1.18,4.95.94,9.36,11.79,18.89,17.75,23.22,16.43,12,31.42,12.18,37.74,21.56,1.46,2.17,4.71,10.17,4.78,13.37-3.95-4.54-2.79-12.49-11-16.83.67,8,2.22,13.74-.25,22.31-1.93,6.71-4.54,12.44-6.2,18.94-1.51,5.91-3.15,14.89-1.67,23,3.81,20.72-1.48,32.6-12,48.47-5.5,8.31-16.57,19-23.89,26.4a42.72,42.72,0,0,1-6.8,5.19c16.43,7.24,34.7,5,47-2.34a52.73,52.73,0,0,0,14.28-12.7A92.12,92.12,0,0,0,307.43,220a35.17,35.17,0,0,1-9.91,4.6c-4.31,1.43-12.18,1.67-14.74.95,4.91-1,11.75-1.61,19.13-5.13,6.55-3.13,15.9-8.08,21.41-15.47,3.91-5.68,7.85-10.31,9.74-18.14,3.9-16.13-3.29-20.17-12.57-26.62-2.43-1.69-6.63-5.27-7.83-8.26-2-5.45-1.39-9.51-.46-15.45-5.72,5.2-13.16,19.95-12.64,27.28.13,1.7.86,5.21,1,8.11-.8-1.08-1.25-2.59-2.24-7.25-.63-3.31-2-11.57,7.33-23.77,5.2-6.24,11.4-12.66,16.26-18.78,4.07-5.52,7.81-12.34,8.9-19.46,1.84-12.08-1.93-20.74-11.61-26.82-9.91-6.22-25.24-7.33-37-9.4-8.86-1.76-24.12-7.24-28.61-13.94-6.18,4.15-11.25,5.75-18.91,2.16-2-.92-3.36-2.39-4.94-3.44-6,1.39-10.49,2.59-18.05,2.57-25.67,0-48.34-.83-69.49,13a70.2,70.2,0,0,0-11.57,9.06L116.11,92.31a34.66,34.66,0,0,0-4.38,6.58c0-5.53,1.21-8.43,3.22-13.54,7.44-18.1,23.39-34,40.39-43.41a94.51,94.51,0,0,1,24.07-9.45c.66-8,7.59-20.64,14.6-24.08,7.88-3.86,17.65-.1,23.6,5.87,1.67,1.68,2.27,1.78,3.87,3.21,3.31,3,9.78,11.32,10.79,15.65,3.36-.28,3.62-1.83,7.71-2,5.18-.17,5.39.47,9.05,1.32,3.26-2.18,7.62-7.42,12.89-11C258.74,16.79,243.63,9.13,237.18,7,218.66.71,203-1.45,184,1c-9.11,1.15-18.37,4.09-27,7.12-21.91,7.65-34.53,18.76-49,35.43C99.73,53,94.26,64.3,89.55,76.06a106.11,106.11,0,0,0-8.1,37c-.59,18.75,3.32,27.65,5.52,40.67-4.22-4.86-8.63-25.94-8-34.13-5.31,5.46-5.18,8.32-12.57,12.57-17.83,10.24-27,4.72-31.79,19.13-2.39,7.19-2.36,14.73-.84,22.29,2.14,10.62,6.81,16.45,13.64,24.39,19.87,19,47.56.86,49.15.48-2.78,3.81-12.44,8.81-19.23,9.75-3.64.73-12.58.58-16.92-.66-2.24-.65-2.76-1.22-4.76-1.69a63.66,63.66,0,0,0,2.12,16.36,44.58,44.58,0,0,0,16.6,24.86c4.49,3.48,9,4.88,15.37,6.78,15.84,4.71,32-1.61,38.77-6.18-.69,2.93-6.12,6.29-15.51,9.06,6.75,15.67,26.88,20.36,42.56,12.91"/><path class="cls-2" d="M128.48,372.91c-.83-3.85-3.48-9.92-5-14.36-5.48-16.1-7.25-26.26-14.66-42.44-7.73-16.89-17.67-30.41-32.29-40.86-1.68-1.29-2.4-3.23-1.42-3.3,9.11,1.6,21.9,17.29,27.18,25.21,2.15,3.24,4.11,7.1,6.35,10.4,12.63-11.73,23.4-21,44.3-28.91l-1.19-5.79c-16.68,4.55-30,2.31-40-15.5-9.44-.33-12.83.93-22-1.79-6.39-1.9-11.84-4-16.33-7.5C57,235.3,56.16,220.4,55.39,216.94c-8.9,8.11-20.59,22.61-26.71,32.77-7.17,11.88-16.46,28.18-13.5,43.71,4.63,24.35,37.87,15.11,76.68,39.34,8.18,5.1,14.16,11.77,20.08,18.56,4.41,5.05,13.77,19.29,16.54,21.59"/><path class="cls-3" d="M302.24,336.45c4.11-2.92,6.92-7,9.46-9.94,4.36-5.08,6.63-8.08,11.5-12.91-1.5,4.16-18.28,24.52-21.83,29.07-9.31,11.94-25.53,23.48-37.63,32.64-12.91,9.77-27.7,17.92-42.43,24.6-3.77,1.71-12.95,4.76-20,7.1,2.24,3,2.8,5.83,3.58,10.87,8.15-1.89,15.21-3,22.6-6,13.22-5.27,23.55-12.6,35.12-18.64,2.8-1.46,5.11-3,10.06-5.32-3.87,5.57-42.88,27.45-55.25,30.65a101.16,101.16,0,0,1-12.39,3.28,77.94,77.94,0,0,1-1.14,10.4c2.69-.63,6.76-1.42,9.25-2,39.2-9.55,59.51-26.23,89.26-48.5l26-21c2-1.6,3.69-3.18,5.68-4.64,16-11.7,19.22-14.8,37.61-24.91l6.65-3.67c9.11-4.55,23.93-13.87,35.55-10.3a13,13,0,0,1,4.82,2.41c-5,0-11.47-.14-14.83,1.48,10.1,10.07,19.21,15.11,30.21,15.11a31.85,31.85,0,0,0-6.72-15.4c-3.15-4.08-7.29-8.82-11.55-11.65-5.05-3.34-9.61-6.26-18.07-4.13-19.25,4.84-31.34,10.38-48.07,21.54L329.44,341.1a48.33,48.33,0,0,1-7.3,4.48c2.48-3.81,8.31-8.49,11.55-11.25l9.48-7.51c8.56-6.22,8.7-6.12,18.32-11.69a122.83,122.83,0,0,1,16.05-7.8c-2-2.79-19.23-5.06-22.53-5.66L334.76,300c-2.55,0-3.17-.14-6.71-.14a69.48,69.48,0,0,1-5.82,7.34c-6.79,8.69-15.72,20.73-20,29.3"/><path class="cls-2" d="M238.92,253.09c-3.68,1.54-4.11,2.1-7.39,3,.32,3.47.45,5.31,1,14.65,18.73,3.33,29.63,6.71,44.79,17,2.6,1.78,10,7,11.41,9.06,2.45-1.59,6.32-8.86,8.27-11.43,26.06-34.39,46.81-37.13,75.78-60.87,11.64-9.54,19-24.3,5.5-37.72-15.5-15.45-37.9-32.73-63.63-34.74,1.21,3,4.29,5.5,6.72,7.19,9.29,6.45,16.75,11.39,12.85,27.52-1.89,7.83-6,14-9.87,19.66a48.18,48.18,0,0,1-14.84,12.35,85.68,85.68,0,0,1-10,18,47,47,0,0,1-14.7,12.9c-16.92,10.11-31.25,8.67-45.86,3.33"/><path class="cls-3" d="M95,370.29c-2.48-.58-18.27-10.78-21.75-12.49-6.12-3-8.51-5.18-16.41-8.09-1.27-.46-1.51-.43-2.89-1-13.76-5.4-28.5-6.68-42.28.77C9.3,350.8,5.55,352.25,3,355.38c21.34-6.21,47,7.86,63.38,16.38a233,233,0,0,1,39.05,26.05l21.1,18.53c2.76,2,8.92,7,12,7.8,0-4.36,1.28-8.66,1.62-12.78-5.69-1.32-14.67-9-19.24-13.54-1.12-1.12-1.77-1.79-2.9-2.9a11.83,11.83,0,0,1-2.88-3.85c6.06,4.06,17.56,15.41,25.68,17.3,1.56-6.69,5.29-8.15,7.66-9.74-1.21-1.66-4.85-2.94-8.49-5.69a65.89,65.89,0,0,1-8.11-6.72L117.7,371.38c-5.32-5.88-12.07-13.25-18.1-18a66,66,0,0,0-13.78-9.51c14.5,1.21,39.26,33.34,42.16,35.28a20.43,20.43,0,0,0-2.22-4c-7.54-10.06-10.84-14-19-23.73a107,107,0,0,0-10-10c-5.9-5.39-14.3-9.7-21.74-13.07-.78-.35-2.73-1.22-3.67-1.54-4-1.35-21.24,5.19-25.85,8.12-2.38,1.51-7.25,3.46-9.16,6.32,5.38.12,16.22,3.61,20.84,5.59,7,3,10.68,5.37,17.21,9.22C77.66,358,93.22,367.6,95,370.29"/><path class="cls-4" d="M184.57,51.83c9.2,0,27.12.14,35.63-1.11,3.32-.48,6.59-1.81,9.72-2.53,1.69-7.29,3.08-11.31-2.28-19.44-3.71-5.62-9.7-12.07-15.22-15.73C198,3.51,190.3,10.58,184.13,25c-3.9,9.09-4,14.5-1.78,24,.44,1.69.31,2.86,2.22,2.86"/><path class="cls-4" d="M12.46,419.9c8.83,0,18.64-5.38,24.34-11.12,1.07-1.08,1.9-1.78,2.9-2.89,7.78-8.59,15.95-25.64,15.95-36.27-11.42-6-9.33-3.69-13.27-1l-13.16,8.11c-7,3.61-17.66,10.06-22.44,16.24-2,2.55-5.14,4.29-6.43,11.62-1.6,9.07,2.33,15.33,12.11,15.33"/><path class="cls-4" d="M357.32,432.29c20.87,0,17.67-18.69,9.55-31a56.08,56.08,0,0,0-11.47-11.74c-7.51-5.22-21.57-12.24-34.18-12.24l1.43,1.16c8.64,8.22,13.29,25.6,16.87,37.27,2.82,7.18,8.52,16.34,17.8,16.51"/><path class="cls-5" d="M141.38,427c0,13.83,20.91,14.38,35.3,16.91,8.57.39,13.32,2.51,19.66-3.85,5.09-5.11,5.63-14.95,5.63-23.37,0-10.27-11-11.77-18.54-13.05-6.29-1.07-22.54-3.71-28.51-3.71-11.79,0-13.54,18.69-13.54,27.07m18.69-18.69c6.88,0,12.35,1.63,18.11,2.51,13.85,2.12,13.13,5.67,12.83,14.25-.54,3.88-1.38,6.16-2.55,7.75-5,7.6-31.81-.75-33.65-2.49-4.24-4-1.53-15.84.2-18.7C155.92,410.13,158,408.3,160.07,408.3Z"/><path class="cls-4" d="M46.62,448.26v2.58c0,9.94,23.39,21.93,38.65-8.59a78.41,78.41,0,0,0,4.59-11.36l-1-24.86c-6,5.66-13.32,12.44-16.25,14.69-9.13,7-15.29,10.41-22.49,20-1.17,1.58-3.47,5.22-3.47,7.49"/><path class="cls-4" d="M365.06,338.68c1.61,6.91,14.47,23.23,20.45,29.18,16.91,15.37,28.83,4.22,30.18-2.75.84-8.37-3.09-12.81-11.05-17.67-5.83-3.55-15.42-6.23-23.21-10.95-2.33-1.41-3-2.36-5.41-3.61Z"/><path class="cls-4" d="M251.3,33.19c4,6.06,5.34,9.56,3.53,17.35,3.41,5.1,14.16,9.68,20.63,11.18a28.14,28.14,0,0,0,8.13-8.79c4.62-7.61,9.37-35.26-4.91-35.26-7.71,0-10.78,2-16.76,6.44-4.46,3.28-8.92,7.94-10.62,9.08"/><path class="cls-4" d="M115.59,87.93c3.69-3.75,6.81-7.16,9.19-9.51,8.26-8.2,8.1-8.82,17.37-14.93,6.54-4.32,18.16-8.88,26.52-10.53,3.16-.63,8.09-1.16,11.39-1.93-1.45-5.58-2.63-6.34-2.25-16.27-13.1,3.05-22.33,9.12-32.83,16.81-5.42,4-14.37,12.73-18.43,18.31-2.35,3.21-10,14.18-11,18.05"/><path class="cls-6" d="M154.92,422.48c0,5.67-.27,6.82,9.81,8.88,8.78,1.79,9,2.08,17.9,2.08,5.92,0,6.45-9.19,6.45-13.54,0-6.55-11.6-6.89-19.49-8.23-3.41-.58-9.49-2.19-11.63-.33-1.53,1.32-3,8.2-3,11.14"/><path class="cls-2" d="M263.13,370c4.73-9,6.9-13.15,10.92-24.35,3.17-8.84,6.22-17.28,9.4-26a121.75,121.75,0,0,1,20.44-35.26c12-14.58,30-29.26,45.84-39,12.51-7.68,11.85-7.86,20.75-14.19,7.12-6.7,14-12.31,17.22-22.11,2,14.7-9.46,31.17-16.56,39-15.21,16-32.95,33.06-46.41,50.33-8.1,10.4-14.93,18.51-22.06,30.79-6.05,9.49-12.43,18.16-19.65,24.79-4.49,4.5-3.86,4.49-8.86,8.52a65.64,65.64,0,0,1-11,7.48"/><path class="cls-4" d="M233.56,35.42c.67,5.48.6,9-1.94,13.83,4.47,6.67,21.28,8.19,21.28-3.22,0-9.78-7.33-17-19.34-10.61"/><path class="cls-2" d="M208.42,216.2c4.22,8.8,12.4,12.6,22,11,6-1.4,8.15-5,10.84-10.06a49.67,49.67,0,0,0-5.23-.65c-3.41-.1-1.06,1.63-7.66,1.63-3.6,0-5.77-1.8-9.28-2.37-.8-.14-8.17.43-10.7.43"/><path class="cls-2" d="M206.78,213.33c1.91,1.13,5.29,1.14,6.42,1,14-2.22,9.41,4.56,20.92.86,5.59-1.75,5.4,3.26,11.68-2.2a16.29,16.29,0,0,1-4.51-.42c-2.32-.68-3-1.42-5.15-1.47-4.08,0-4.78,2.18-7.74,2.18-5.05,0-3.38-5-15.09-1.55a59.29,59.29,0,0,1-6.53,1.59"/><path class="cls-4" d="M278,62.14c3,2.44,9.61,2.62,12.78,2.62-1.59-4.08-2.95-7.38-6.19-9.55-1.51,3-2.7,4.08-6.59,6.93"/></g></g></svg>