<?xml version="1.0" encoding="utf-8"?>
<!-- Generator: Adobe Illustrator 19.0.0, SVG Export Plug-In . SVG Version: 6.00 Build 0)  -->
<svg version="1.1" id="Layer_1" xmlns="http://www.w3.org/2000/svg" xmlns:xlink="http://www.w3.org/1999/xlink" x="0px" y="0px"
	 viewBox="0 0 600 600" style="enable-background:new 0 0 600 600;" xml:space="preserve">
<style type="text/css">
	.st0{fill-rule:evenodd;clip-rule:evenodd;}
	.st1{fill-rule:evenodd;clip-rule:evenodd;fill:#FDDB22;}
	.st2{fill-rule:evenodd;clip-rule:evenodd;fill:#F15F27;}
	.st3{fill-rule:evenodd;clip-rule:evenodd;fill:#FFFFFF;}
</style>
<g id="XMLID_26_">
	<path id="XMLID_23_" class="st0" d="M296.9,292.3c75.2,0,136.6-38.3,136.6-85c0-46.8-61.4-85-136.6-85c-75.3,0-136.8,38.2-136.8,85
		C160.1,254,221.5,292.3,296.9,292.3L296.9,292.3z"/>
	<path id="XMLID_49_" class="st1" d="M293.1,103.1c18.8,0,34,15.3,34,34.1c0,18.9-15.2,34.3-34,34.3c-18.8,0-34.3-15.3-34.3-34.3
		C258.8,118.4,274.3,103.1,293.1,103.1L293.1,103.1z M321,293.6c-7.5,0.9-15.3,1.3-23.1,1.3c-9.3,0-18.7-0.6-27.6-1.7v-94.4
		l50.7-11.6V293.6L321,293.6z"/>
	<path id="XMLID_46_" class="st2" d="M270.3,293.2c-63.3-8.1-111.3-43.7-111.3-85.7c0-40.5,44.1-74.7,103.4-84.7
		c-2.2,4.3-3.5,9.3-3.5,14.5c0,7.1,2.2,13.4,5.6,18.9c-46.3,8.7-80.1,35.1-80.1,66.2c0,32.1,36.7,59.4,85.9,66.9V293.2L270.3,293.2z
		 M321,293.6c65.5-6.9,115.8-43.1,115.8-86.2c0-42.9-49.3-78.6-113.6-86.3c0.6,1.3,1.2,2.7,1.7,4.2c49.4,7.4,86.3,34.7,86.3,67.1
		c0,33.4-38.7,61.2-90.2,67.7V293.6L321,293.6z"/>
	<path id="XMLID_18_" class="st3" d="M293.1,119.7c9.4,0,17.3,8,17.3,17.5c0,9.7-8,17.6-17.3,17.6c-9.5,0-17.5-8-17.5-17.6
		C275.6,127.6,283.6,119.7,293.1,119.7L293.1,119.7z"/>
	<g id="XMLID_2_">
		<path id="XMLID_3_" d="M265.8,341.9l4.5-13.2c0,0-7.4-10.8-22.8-5.8c-15.5,5.2-14.7,27-14.5,36.7c0.3,9.5,1.3,37.6,21,38.5
			c0,0,11.1,1,16-8l-4.9-12.3c0,0-2,4.3-5.5,6.5c-4.5,2.7-10.8,0.9-12.4-9.4c0,0-2.3-25.3-0.7-32.4
			C248.1,335.5,258.4,329,265.8,341.9z"/>
		<polygon id="XMLID_4_" points="211.7,357.1 193.8,315 180.9,312.4 180.9,396.5 194.4,396.5 194.4,352.6 212.4,398.4 224.6,398.4 
			224.6,317.2 211.7,317.2 		"/>
		<path id="XMLID_5_" d="M94.9,396.3H127v-15.2h-17.3V359h17.1v-14.2h-16.8v-31.1l17.9,1.4V304c0,0-22.1-5.2-32.1-7.7L94.9,396.3z"
			/>
		<path id="XMLID_6_" d="M8.4,291.4l8,1v104.1H30V295.2l6.8,1l0.3-13.4c0,0-18.4-4.8-28.6-8V291.4z"/>
		<polygon id="XMLID_7_" points="156.8,397.3 169.6,397.3 169.6,295.1 156.8,298.5 		"/>
		<polygon id="XMLID_8_" points="71.8,341 58.7,341 58.7,288.1 44.9,284.1 44.9,397.3 57.9,397.3 57.9,354.9 72.2,354.9 72.2,396.5 
			85.6,396.5 85.6,294.2 71.8,291.6 		"/>
		<path id="XMLID_9_" d="M575.6,328.5c-5.5-14.2-10-17.9-1.6-27c8.4-9,12.6-10.3,12.6-10.3l-5.8-15c0,0-31.8,21.8-23.1,46
			c8.7,24,22.4,41.1,12.9,50c-9.7,9-15.2,10-15.2,10l6.5,16c0,0,24-9.5,25.3-26.9c0.1-0.7,0.1-1.4,0.1-2.2v-3.6
			C586.9,351.2,580.5,341,575.6,328.5z"/>
		<path id="XMLID_12_" d="M314.1,347.7c0-23.1-18.1-23.7-18.1-23.7h-0.4l-18.5-1v72.6h13.4v-19.2l5.1,9l6.7,11.6H317l-15.3-26.9
			C301.6,369.9,314.1,370.8,314.1,347.7z M300.3,350c-0.4,7.2-2.5,10.1-4.8,11.3c-2.3,1.2-4.8,0-4.8,0v-25.7c0,0,2.5-0.3,4.8,1.2
			C298.2,338.3,300.8,341.9,300.3,350z"/>
		<polygon id="XMLID_13_" points="494.4,381.8 494.4,299 481.5,302.1 481.5,397.3 514.3,397.3 508.8,381.8 		"/>
		<polygon id="XMLID_14_" points="518.5,397.3 550.9,397.3 550.9,381.1 532.2,381.1 532.2,355.1 549.3,355.1 549.3,340.6 
			533.2,340.6 533.2,305.9 550.9,300.8 551.9,285.1 518.5,294.8 		"/>
		<path id="XMLID_17_" d="M466.7,351.3c0,0,5.5-11.6,3.2-25.7c-2.2-13.9-8.8-16.9-17.8-16.8c-0.1,0-0.3,0-0.6,0
			c-9.3,0.4-18.2,3.3-18.2,3.3v84.7h18.8h4.6c0,0,17.6-4.5,18.4-21.8C475.7,357.7,466.7,351.3,466.7,351.3z M447.1,320.1
			c0,0,2.6-0.3,5.1,1c2.6,1.4,5.2,4.6,4.9,11.9c-0.3,9.1-2.6,13-4.9,14.5c-2.5,1.7-5.1,0.7-5.1,0.7V320.1z M452.1,382.7
			c-2.3,0.6-4,0.4-4,0.4v-21.8c0,0,1.7-0.6,4-0.6c3.6,0.1,8.4,2,8.8,10.6C461.4,379.3,456,381.9,452.1,382.7z"/>
		<polygon id="XMLID_25_" points="410.8,397.6 424.7,397.6 424.7,313.4 410.8,315.6 		"/>
		<polygon id="XMLID_27_" points="335,367.9 354,367.9 354,353.9 335.6,353.9 335.6,336.8 353,336.8 353,322.7 322.5,322.4 
			322.5,397.6 354.3,397.6 354.3,382.8 335,382.8 		"/>
		<path id="XMLID_48_" d="M383.5,319.5c0,0-0.1,0-0.3,0c-5.5,0-20.5,1.6-20.5,1.6v76.2h20.5h2.3c0,0,14.7-3.3,17.3-21.5
			c2.5-18.4,0.6-32.8-2.6-40.9C397.1,326.9,388.7,319.5,383.5,319.5z M383.2,381.1c-3.6,3-7.4,2.9-7.4,2.9v-50.3
			c0,0,3.8-1.3,7.4,1.2c3.6,2.5,7.1,8.2,7.4,22C390.8,371,387.1,377.8,383.2,381.1z"/>
	</g>
</g>
</svg>
