<svg xmlns="http://www.w3.org/2000/svg" viewBox="0 0 335.15 458.53"><defs><style>.cls-1{fill:#e3e047;}.cls-2{fill:#0e0b0a;}.cls-3{fill:#e52334;}.cls-4{fill:#13549e;}.cls-5{fill:#fccb17;}</style></defs><g id="katman_2" data-name="katman 2"><g id="katman_1-2" data-name="katman 1"><path class="cls-1" d="M335.1,165.6c.19,27.19-5.26,51-16,73.72-1,2.2-2,4.06,1.79,3.87,4.24-.21,2.63,1.73,1.33,3.61l-45.09,65.61q-4.31,6.29-8.59,12.59a11.59,11.59,0,0,0-1.49,2.53c-2.61,7.4-1.23,9.42,6.5,9.67,10,.32,10,.33,12.09,10q9.24,43,18.58,86c.76,3.49.6,4.9-3.78,5.19-37.3,2.47-74.57,5.3-111.85,8-22.37,1.6-44.76,3-67.13,4.62q-44.33,3.16-88.62,6.44c-5.35.38-10.71.66-16,1.09-2.47.19-3-.47-2.64-3.09q8.43-61.59,16.54-123.23c.44-3.3,1.54-4.63,5-4.28,4.76.48,9.58.46,14.36.8,2.74.2,3.79-.41,3.12-3.51-1.42-6.6-2.58-13.28-3.58-20-.41-2.69-1.37-2.76-3.54-1.87-5.6,2.3-11.3,4.39-16.93,6.62-1.69.68-2.32.65-3.16-1.46-4.51-11.4-4.77-23.61-7.11-35.41-2.85-14.37-4.71-29-7.68-43.29-2-9.76-6.21-19-8-28.89C-6.46,147.4,5.58,99.45,40.92,58,67.4,26.92,101.34,8.11,141.63,2.1,192.44-5.48,238,7.44,277.14,40.91c30.42,26,48.68,59.2,55.72,98.55A128,128,0,0,1,335.1,165.6Zm-28.53,83.29a5.82,5.82,0,0,1,.28-1.22c.71-1.37,1.47-2.72,2.18-4.09,20.93-40.05,25.22-81.84,11.36-124.82C295.57,41.79,219.33-4.31,139.92,9.47c-38.16,6.63-70.23,24.91-95,54.79-32.51,39.2-43.77,84.15-35,134.42,2.38,13.67,9.26,25.93,10.45,40,1.05,12.44,4,24.73,6.07,37.08,1.07,6.25,2,12.52,3.33,18.72,1.39,6.58,2.07,6.85,8.16,4.52,4.61-1.75,9.23-3.46,13.75-5.4,2.3-1,3.13-.52,3.54,1.95q3.15,18.74,6.57,37.43c.39,2.14.18,3.17-2.33,3-6.06-.3-12.14-.27-18.19-.71-2.56-.19-3.78,0-4,3-.58,6.45-1.67,12.85-2.55,19.27q-6.18,45-12.38,90c-.35,2.56.16,3.51,3,3.26,9.27-.81,18.56-1.4,27.84-2.06l66.69-4.72,64.57-4.6,66.68-4.73c13.93-1,27.86-2,41.79-2.93,2.47-.17,3.73-.75,3.08-3.71q-9-40.61-17.65-81.26c-.47-2.18-1.41-2.73-3.4-2.73-4.37,0-8.75-.05-13.13-.26-1.2-.06-3.48.39-3.19-1.67,1.05-7.39-.35-15.1,4.47-22,15.55-22.15,30.75-44.54,46.06-66.87.81-1.19,2.19-2.2,1.93-4Z"/><path class="cls-2" d="M306.57,248.89l4.44.43c.26,1.84-1.12,2.85-1.93,4-15.31,22.33-30.51,44.72-46.06,66.87-4.82,6.86-3.42,14.57-4.47,22-.29,2.06,2,1.61,3.19,1.67,4.38.21,8.76.28,13.13.26,2,0,2.93.55,3.4,2.73q8.69,40.66,17.65,81.26c.65,3-.61,3.54-3.08,3.71-13.93.94-27.86,1.95-41.79,2.93l-66.68,4.73-64.57,4.6L53.11,448.8c-9.28.66-18.57,1.25-27.84,2.06-2.83.25-3.34-.7-3-3.26q6.25-45,12.38-90c.88-6.42,2-12.82,2.55-19.27.27-3.05,1.49-3.2,4-3,6.05.44,12.13.41,18.19.71,2.51.13,2.72-.9,2.33-3q-3.41-18.69-6.57-37.43c-.41-2.47-1.24-2.93-3.54-1.95-4.52,1.94-9.14,3.65-13.75,5.4-6.09,2.33-6.77,2.06-8.16-4.52-1.3-6.2-2.26-12.47-3.33-18.72-2.11-12.35-5-24.64-6.07-37.08-1.19-14-8.07-26.3-10.45-40-8.75-50.27,2.51-95.22,35-134.42,24.76-29.88,56.83-48.16,95-54.79C219.33-4.31,295.57,41.79,320.39,118.76c13.86,43,9.57,84.77-11.36,124.82-.71,1.37-1.47,2.72-2.18,4.09A5.82,5.82,0,0,0,306.57,248.89ZM125.76,330.36c-3-2.74-4.2-6.68-7-10.55-.18,4.66,1.85,8.39.92,12.24-3.94-19.91-7.41-39.87-11.06-59.79-.51-2.82,0-3.61,2.94-3.57,7.33.1,14.67-.29,22-.21,3.06,0,3.64-1.11,3-3.78-3.31-13.1-6.76-26.16-9.75-39.33-.83-3.62-2.53-3.71-5.34-3.21C91.07,227.49,60.73,232.84,30.36,238c-2.94.5-3.4,1.59-2.95,4.16,2.54,14.41,5.06,28.83,7.4,43.27.41,2.5,1.25,2.63,3.28,1.82,6-2.39,12.11-4.58,18.1-7,2.15-.88,2.94-.6,3.33,1.82,1.11,7.09,2.56,14.12,3.73,21.2,2.16,13,5,26,6.56,39.11-7.75-.29-15.51-.53-23.25-.93-2.24-.11-3.22.46-3.41,2.89-.35,4.35-1.09,8.66-1.68,13-3.59,26.1-7.22,52.19-10.74,78.29-1.13,8.36-1,8.37,7.53,7.78,1.27-.09,2.54-.08,3.81-.16,13.5-.93,27-1.84,40.51-2.81,18-1.29,36-2.65,54-3.93,17.72-1.25,35.45-2.41,53.17-3.66q34-2.4,67.92-4.86c9.28-.66,18.57-1.26,27.85-1.93,2.35-.17,4.21-.33,3.4-3.93q-7.68-34.19-14.87-68.48c-.57-2.71-1.43-3.86-4.32-3.68-3.37.2-6.77-.05-10.16-.16-7-.23-7.13-.27-8,6.63-.38,3-1.32,3.89-4.52,3.43-7.39-1.05-14.89-1.34-22.29-2.4-5.74-.82-11.79.23-17.22-2.65a15.33,15.33,0,0,1,1.66,0c12.2,1.24,24.39,2.53,36.59,3.71,1.89.18,4.27,1.12,4.48-2.52.37-6.61,1.44-13.19,1.66-19.8a44.64,44.64,0,0,1,9-26.06c12.46-16.9,24-34.48,35.87-51.8.83-1.21,2.14-2.22,2.11-4.25-14.89-1.38-29.76-2.67-44.6-4.23-3-.31-4.21.69-5.43,3.18-3.63,7.4-7.54,14.66-11.73,22.73-2.47-8.72-4.83-16.49-6.82-24.35-.69-2.74-2.16-3.58-4.65-3.83-14-1.4-28-2.87-42-4.29-4-.4-4.83.65-3.45,4.5,1,2.91,2.3,5.74,3.46,8.61a3.78,3.78,0,0,0-.55.51c-1.45-.51-2.9-1-4.35-1.53-12.23-4.41-24.53-4.84-36.82-.43-7.94,2.84-6.44,1.26-4.74,9.34.51,2.38,1.38,2.75,3.39,1.69a36.46,36.46,0,0,1,17.91-4.26c3.07.07,6.65-1.35,9.23,1.73-9.53-1.89-18.36.36-26.84,4.6-1.16,4.65-6.2,4.09-8.81,6.52-11.76,11-15.74,24.54-12.64,40.33C120.57,320.48,123.9,325.1,125.76,330.36ZM244.38,145.49c-.28-2.46-.62-4.79-.8-7.12-.15-1.87-.12-3.84-2.39-4.43-2.08-.55-3,1.2-4.06,2.45-2,2.25-3.13,5.29-6.41,6.74-.3-3.26-.61-6.19-.81-9.13-.11-1.63-.2-3.18-2.14-3.65-1.63-.4-2.63.49-3.55,1.7-1.42,1.86-2.54,5.23-4.92,4.61s-1.86-4.06-2.12-6.39c-.19-1.68-.68-3-2.44-3.54s-2.58.54-3.65,1.47c-2.15,1.87-3.47,6.42-6.28,5.27-2.22-.92-1-5.43-1.16-8.35a3.49,3.49,0,0,0-2-3.37c-1.44-.68-2.43.06-3.44.85-2.08,1.6-3.72,5.37-6.1,4.45-2.05-.79-1.44-4.81-2.08-7.38a4.21,4.21,0,0,0-7.31-2.06c-1.39,1.39-2.58,3-3.92,4.43-.64.69-1.26,1.73-2.4,1.38s-.66-1.41-.79-2.18c-.38-2.37-.64-4.75-1.1-7.1-.85-4.36-2.9-5-6.42-2.22-1.86,1.44-2.83,4.24-6,4.29-.31-2.86-.6-5.51-.87-8.17-.18-1.71-.25-3.64-2.18-4.2s-2.66,1.2-3.62,2.36c-.45.54-.72,1.22-1.17,1.76-1.15,1.34-2,4-3.79,3.42s-.92-3.26-1-5c-.22-3.3,1-7-2-9.59-3.86-3.28-8-6.24-12.07-9.27-2.56-1.91-3.4-.86-3.17,2,.65,8.14,1.3,16.29,1.85,24.44a30.45,30.45,0,0,0,3.72,12.86c3.06,5.58,4.33,6.13,10.73,4.87,2.79-.56,3.75.45,2.89,3.2-.5,1.61-.92,3.24-1.35,4.88-.91,3.48,1.63,5.42,3.47,7.66,1.1,1.33,2.36,1.15,3.8.48,2-.91,4.38-2.88,6.08-1.34s-.5,3.87-.94,5.86c0,.14-.1.27-.14.4a5.22,5.22,0,0,0,1.54,5.39c1.61,1.69,3.15.48,4.67,0,2.56-.85,4.79-2.84,8.2-2.35-1,2.84-1.8,5.5-2.79,8.09a5,5,0,0,0,1.06,5.45c1.39,1.67,2.86.47,4.27.15a27.55,27.55,0,0,0,3.59-1.21c2.93-1.12,3.2.48,2.71,2.71a24.58,24.58,0,0,1-1,2.32c-.7,2.24-2.09,4.64-.07,6.76s4.17.25,6.2-.45c1.58-.54,3.39-2.13,4.7-1.28,1.65,1.06,0,3.05-.16,4.65,0,.7-.09,1.41-.2,2.11-.5,3.27.73,4.46,4,3.64,2-.48,3.88-1.58,6.43-1.05-.91,2.3-1.89,4.33-2.5,6.47-1.19,4.11,2.05,7.24,6.21,6.14,1.5-.39,3-1,4.47-1.22,2.51-.42,4.28-.23,2.73,3.18-1.66,3.65-1.53,7.11,2.08,9.8,1.2.9,2.79,1.89,2,3.76-.67,1.65-2.42,1.69-3.94,2-7.21,1.44-14.71,2.86-21.81,2-12.31-1.46-20.39,3.15-26.53,13.3-2.63,4.35-6.31,8.07-10.07,12.78,3.09,0,5.2-.18,7.26,0,7.21.75,7.3.81,7.44-6.59.05-2.37.65-3.25,3.13-3,5.88.7,11.78,1.19,17.67,1.77,12.07,1.2,24.13,2.47,36.2,3.58,3.6.33,5.55,1.88,6.19,5.57.54,3.09,1.73,6.07,2.91,10,2.29-4.31,4.35-7.79,6-11.45,1.05-2.34,2.39-3,4.87-2.72,13.88,1.44,27.79,2.59,41.65,4.15,3.87.43,6.08-.4,8.07-4,18.64-33.49,24.58-68.93,16.89-106.55C299.47,54,217.36.93,134.54,19.3,49,38.28-3,126,21.5,210.15c1.41,4.84,1.48,5,5.75,2.54C39,206,49.85,198.29,58.51,187.77c9.43-11.45,15.64-24.43,17.74-39.14,1.62-11.28-3.68-20.51-9.83-29.32-4.6-6.58-8-13.55-8-21.85,0-9.14,3.75-17,8.61-24.34,12.9-19.5,29.9-33.7,53.66-36.92,11.84-1.6,22.9-3.72,32.66-11.07,3.62-2.72,9,.64,9.61,5.31a2.5,2.5,0,0,1-1.39,2.74c-7.1,4.54-7.39,5.46-5.62,13.68.7,3.29,2,5.88,5.64,6.51,4,.7,6.56-1.28,8-4.69,1.8-4.16,4.72-4.68,8.62-3.34,6.39,2.18,12.82,4.24,19.25,6.31,22.36,7.21,44.71,14.44,66.66,22.85,8.5,3.26,15.55,8.24,19.19,16.8,6.61,15.54,7.75,32.19,9.12,48.76.2,2.46-1.2,3.86-3.71,3.12-5.79-1.7-9.87.38-12.8,5.36-.67,1.12-1.62,2.36-2.91,2.12-1.79-.33-.83-2.07-1-3.2a27.19,27.19,0,0,1,0-3.38c0-1.81-.43-3.47-2.32-4.11a3.94,3.94,0,0,0-4.78,1.76c-1.22,1.72-2.4,3.48-3.69,5.15-.49.63-1.05,1.52-2,1.27-1.12-.29-.65-1.37-.73-2.13s0-1.42,0-2.12c-.05-2.38.31-4.94-2.71-6-3.2-1.11-4.65,1.27-6.2,3.19C248.17,142.84,247.1,144.86,244.38,145.49Zm-128.76,159c.62-12.24,5.47-22.5,14.23-31.49h-8a9.9,9.9,0,0,0-9.79,11.61C113.12,291.22,114.42,297.83,115.62,304.45ZM277.82,97.82c-2.61-4.73-4.73-8.9-8.46-11.79-1.79-1.37-4.63-2.85-5.52.32-1.62,5.76-2.42,11.79.2,18.32C264.69,94.3,270.45,94.64,277.82,97.82Z"/><path class="cls-3" d="M244.38,145.49c2.72-.63,3.79-2.65,5.19-4.39,1.55-1.92,3-4.3,6.2-3.19,3,1.05,2.66,3.61,2.71,6,0,.7-.05,1.42,0,2.12s-.39,1.84.73,2.13c1,.25,1.52-.64,2-1.27,1.29-1.67,2.47-3.43,3.69-5.15a3.94,3.94,0,0,1,4.78-1.76c1.89.64,2.32,2.3,2.32,4.11a27.19,27.19,0,0,0,0,3.38c.15,1.13-.81,2.87,1,3.2,1.29.24,2.24-1,2.91-2.12,2.93-5,7-7.06,12.8-5.36,2.51.74,3.91-.66,3.71-3.12-1.37-16.57-2.51-33.22-9.12-48.76-3.64-8.56-10.69-13.54-19.19-16.8-22-8.41-44.3-15.64-66.66-22.85-6.43-2.07-12.86-4.13-19.25-6.31-3.9-1.34-6.82-.82-8.62,3.34-1.48,3.41-4.06,5.39-8,4.69-3.64-.63-4.94-3.22-5.64-6.51-1.77-8.22-1.48-9.14,5.62-13.68A2.5,2.5,0,0,0,163,30.44c-.58-4.67-6-8-9.61-5.31-9.76,7.35-20.82,9.47-32.66,11.07C96.94,39.42,79.94,53.62,67,73.12c-4.86,7.34-8.56,15.2-8.61,24.34,0,8.3,3.39,15.27,8,21.85,6.15,8.81,11.45,18,9.83,29.32-2.1,14.71-8.31,27.69-17.74,39.14C49.85,198.29,39,206,27.25,212.69c-4.27,2.42-4.34,2.3-5.75-2.54C-3,126,49,38.28,134.54,19.3,217.36.93,299.47,54,316.4,136.76c7.69,37.62,1.75,73.06-16.89,106.55-2,3.58-4.2,4.41-8.07,4-13.86-1.56-27.77-2.71-41.65-4.15-2.48-.26-3.82.38-4.87,2.72-1.65,3.66-3.71,7.14-6,11.45-1.18-3.94-2.37-6.92-2.91-10-.64-3.69-2.59-5.24-6.19-5.57-12.07-1.11-24.13-2.38-36.2-3.58-5.89-.58-11.79-1.07-17.67-1.77-2.48-.3-3.08.58-3.13,3-.14,7.4-.23,7.34-7.44,6.59-2.06-.22-4.17,0-7.26,0,3.76-4.71,7.44-8.43,10.07-12.78,6.14-10.15,14.22-14.76,26.53-13.3,7.1.84,14.6-.58,21.81-2,1.52-.3,3.27-.34,3.94-2,.75-1.87-.84-2.86-2-3.76-3.61-2.69-3.74-6.15-2.08-9.8,1.55-3.41-.22-3.6-2.73-3.18-1.51.26-3,.83-4.47,1.22-4.16,1.1-7.4-2-6.21-6.14.61-2.14,1.59-4.17,2.5-6.47-2.55-.53-4.46.57-6.43,1.05-3.31.82-4.54-.37-4-3.64.11-.7.15-1.41.2-2.11.14-1.6,1.81-3.59.16-4.65-1.31-.85-3.12.74-4.7,1.28-2,.7-4.13,2.61-6.2.45s-.63-4.52.07-6.76a24.58,24.58,0,0,0,1-2.32c.49-2.23.22-3.83-2.71-2.71a27.55,27.55,0,0,1-3.59,1.21c-1.41.32-2.88,1.52-4.27-.15a5,5,0,0,1-1.06-5.45c1-2.59,1.82-5.25,2.79-8.09-3.41-.49-5.64,1.5-8.2,2.35-1.52.51-3.06,1.72-4.67,0a5.22,5.22,0,0,1-1.54-5.39c0-.13.11-.26.14-.4.44-2,2.54-4.41.94-5.86s-4.12.43-6.08,1.34c-1.44.67-2.7.85-3.8-.48-1.84-2.24-4.38-4.18-3.47-7.66.43-1.64.85-3.27,1.35-4.88.86-2.75-.1-3.76-2.89-3.2-6.4,1.26-7.67.71-10.73-4.87A30.45,30.45,0,0,1,134,113.89c-.55-8.15-1.2-16.3-1.85-24.44-.23-2.83.61-3.88,3.17-2,4.07,3,8.21,6,12.07,9.27,3,2.54,1.79,6.29,2,9.59.12,1.78-.77,4.44,1,5s2.64-2.08,3.79-3.42c.45-.54.72-1.22,1.17-1.76,1-1.16,1.8-2.9,3.62-2.36s2,2.49,2.18,4.2c.27,2.66.56,5.31.87,8.17,3.18,0,4.15-2.85,6-4.29,3.52-2.74,5.57-2.14,6.42,2.22.46,2.35.72,4.73,1.1,7.1.13.77-.25,1.87.79,2.18s1.76-.69,2.4-1.38c1.34-1.44,2.53-3,3.92-4.43a4.21,4.21,0,0,1,7.31,2.06c.64,2.57,0,6.59,2.08,7.38,2.38.92,4-2.85,6.1-4.45,1-.79,2-1.53,3.44-.85a3.49,3.49,0,0,1,2,3.37c.2,2.92-1.06,7.43,1.16,8.35,2.81,1.15,4.13-3.4,6.28-5.27,1.07-.93,2-2,3.65-1.47s2.25,1.86,2.44,3.54c.26,2.33-.11,5.8,2.12,6.39s3.5-2.75,4.92-4.61c.92-1.21,1.92-2.1,3.55-1.7,1.94.47,2,2,2.14,3.65.2,2.94.51,5.87.81,9.13,3.28-1.45,4.44-4.49,6.41-6.74,1.09-1.25,2-3,4.06-2.45,2.27.59,2.24,2.56,2.39,4.43C243.76,140.7,244.1,143,244.38,145.49ZM168.16,43.15c-.3-1.55.29-3.84-2.24-3.77-1.89,0-3,1.48-2.95,3.48,0,1.78.43,3.6,2.56,3.79C168,46.87,167.94,44.84,168.16,43.15Z"/><path class="cls-3" d="M207.54,354.81c5.42,2.87,11.47,1.82,17.21,2.64,7.4,1.06,14.9,1.35,22.29,2.4,3.2.46,4.14-.4,4.52-3.43.87-6.9,1-6.86,8-6.63,3.39.11,6.79.36,10.16.16,2.89-.18,3.75,1,4.32,3.68q7.24,34.28,14.87,68.48c.81,3.6-1.05,3.76-3.4,3.93-9.28.67-18.57,1.27-27.85,1.93q-34,2.41-67.92,4.86c-17.72,1.25-35.45,2.41-53.17,3.66-18,1.28-36,2.64-54,3.93-13.5,1-27,1.88-40.51,2.81-1.27.08-2.54.07-3.81.16-8.53.59-8.66.58-7.53-7.78,3.52-26.1,7.15-52.19,10.74-78.29.59-4.33,1.33-8.64,1.68-13,.19-2.43,1.17-3,3.41-2.89,7.74.4,15.5.64,23.25.93.81,4.32,1.61,8.64,2.45,12.95.24,1.27,0,2.89,1.83,3.29,0,3.82,2,4.42,5.41,4,11.63-1.32,23.28-2.37,34.92-3.58,3.34-.35,7.92.27,9.68-1.64,2.17-2.36-.47-6.59-.93-10-.22-1.62-.51-3.21,1.9-3.27,1.24.9,2.45,1.87,3.75,2.7,6.57,4.22,13.26,8.18,21.24,9.14.32.24.61.64,1,.7,14.17,2.61,27.42.28,39.66-7.43,1.65-1,3.16-2.19,5.39-2,3.51.29,7.05.23,10.58.32C207.2,349.94,206,352.55,207.54,354.81ZM180,392.89v12.28c0,7.42,0,7.42,7.27,7.42,10.08,0,10,0,10.13-10.22,0-1.56-.94-4.05.86-4.51,2.05-.54,3.19,1.82,4.2,3.48a9.7,9.7,0,0,1,.88,2.38c.82,2.89-.49,7.13,2.2,8.49s6.34.35,9.59.38c1.27,0,2.55-.1,3.81,0,2.59.24,3.52-.44,2.81-3.32a37.69,37.69,0,0,0-5.65-13.11c-1.33-1.86-2-3.05.31-4.76,2.54-1.87,2.65-4.87,2.14-7.74-1.07-5.9-6-9.76-13-9.91-7.48-.16-15,0-22.44-.09-2.38,0-3.22.7-3.15,3.13C180.07,382.16,180,387.53,180,392.89Zm-28.35-19.24c-11.12,0-19.9,8.36-20,19.09a19.5,19.5,0,0,0,19.8,19.36c11,0,19.86-8.72,19.76-19.4A19.33,19.33,0,0,0,151.62,373.65ZM67.25,412.09c6.43.16,12.17-.83,17-4.84,5.19-4.3,5.41-9.82.56-14.55a23.4,23.4,0,0,0-10.25-5.63c-1.86-.52-4.43-1.32-3.59-3.74s3.33-1.28,5.2-.86c.54.12,1,.55,1.53.71,2,.56,3.35,3.66,5.19,2.61,1.51-.86,2-3.58,2.85-5.49.35-.76.55-1.61,1-2.33.7-1.23.11-1.79-.94-2.22-8.46-3.45-20.11-4.6-28.22,1.63-5.35,4.1-5.64,10.65-.81,15.34a21.73,21.73,0,0,0,8,4.64c1.89.68,4.41,1.36,3.65,3.72-.85,2.66-3.45,1.56-5.46,1a7.57,7.57,0,0,1-1.54-.69c-5.76-3-5.75-3-7.82,3.45a8.17,8.17,0,0,1-.4,1.21c-1.17,2.3,0,3.29,2.06,4A34.76,34.76,0,0,0,67.25,412.09Zm33.53-10.81c0,2.54.1,5.08,0,7.61-.12,2.3.63,3.34,3.1,3.25,3.94-.15,7.9-.15,11.84,0,2.55.11,3.08-1.08,3-3.31-.11-4.51.17-9-.09-13.53-.21-3.47.48-5.48,4.49-4.77,2.43.43,3.62-.46,3.47-3.19-.21-3.66-.13-7.34,0-11,.06-2-.64-2.74-2.67-2.72-9.58.07-19.17.05-28.76,0-1.67,0-2.65.36-2.61,2.32.09,4.09.06,8.18,0,12.27,0,1.54.52,2.17,2.16,2.37,6.11.73,6.1.8,6.1,6.88Zm121.65-27.63c.06.85,0,1.18.11,1.37,3,4.59,5.84,9.33,9.17,13.67A20.48,20.48,0,0,1,236,402.74c-.38,9.35-.11,9.37,9.46,9.37,7.34,0,7.76,0,7.22-7.33a25.46,25.46,0,0,1,5.67-18.32c3-3.82,5.41-8,8.57-12.82-4.16,0-7.4.32-10.55-.07-4.47-.55-7.61.86-9.58,4.92s-3.44,2.5-5.27-.25c-1.3-2-2-4.77-5.37-4.64C231.68,373.78,227.17,373.65,222.43,373.65Z"/><path class="cls-4" d="M74.09,358.61c-1.87-.4-1.59-2-1.83-3.29-.84-4.31-1.64-8.63-2.45-12.95-1.52-13.15-4.4-26.07-6.56-39.11-1.17-7.08-2.62-14.11-3.73-21.2-.39-2.42-1.18-2.7-3.33-1.82-6,2.43-12.09,4.62-18.1,7-2,.81-2.87.68-3.28-1.82C32.47,271,30,256.57,27.41,242.16c-.45-2.57,0-3.66,2.95-4.16,30.37-5.16,60.71-10.51,91.06-15.84,2.81-.5,4.51-.41,5.34,3.21,3,13.17,6.44,26.23,9.75,39.33.68,2.67.1,3.82-3,3.78-7.34-.08-14.68.31-22,.21-2.94,0-3.45.75-2.94,3.57,3.65,19.92,7.12,39.88,11.06,59.79.93-3.85-1.1-7.58-.92-12.24,2.82,3.87,4.06,7.81,7,10.55,2.35,2.53,4.49,5.16,7.37,7.29,17.43,12.89,39.87,12.08,55.92-2.28,13.2-11.82,16.82-28.08,9.83-44.24-1.23-2.84-2.58-5.63-3.69-8.51-4.84-12.59-15-17.54-27.44-19.21-2.58-3.08-6.16-1.66-9.23-1.73a36.46,36.46,0,0,0-17.91,4.26c-2,1.06-2.88.69-3.39-1.69-1.7-8.08-3.2-6.5,4.74-9.34,12.29-4.41,24.59-4,36.82.43,1.45.52,2.9,1,4.35,1.53.18.17.47.52.52.49.46-.29.3-.65,0-1-1.16-2.87-2.42-5.7-3.46-8.61-1.38-3.85-.54-4.9,3.45-4.5,14,1.42,28,2.89,42,4.29,2.49.25,4,1.09,4.65,3.83,2,7.86,4.35,15.63,6.82,24.35,4.19-8.07,8.1-15.33,11.73-22.73,1.22-2.49,2.48-3.49,5.43-3.18,14.84,1.56,29.71,2.85,44.6,4.23,0,2-1.28,3-2.11,4.25-11.88,17.32-23.41,34.9-35.87,51.8a44.64,44.64,0,0,0-9,26.06c-.22,6.61-1.29,13.19-1.66,19.8-.21,3.64-2.59,2.7-4.48,2.52-12.2-1.18-24.39-2.47-36.59-3.71a13.15,13.15,0,0,0-1.66.05c-1.58-2.26-.33-4.87-.88-7.26V330.33c-8.1,11.68-18.27,19.66-31.44,23.83-8.26,2.62-16.7,2.13-25.15,1.81-8-1-14.67-4.92-21.24-9.14-1.3-.83-2.51-1.8-3.75-2.7-2.65-1.81-3.28-4.85-4.56-7.57a69.25,69.25,0,0,0,1.16,9.31c1.5,7.93,1.5,7.71-6.56,8.46C101.42,355.59,87.76,357.16,74.09,358.61ZM194.2,256.73a3.78,3.78,0,0,0,1,2.82c2.46,5.49,5.2,10.86,7.31,16.47,3.83,10.23,8.29,20.18,12.79,30.12.61,12.41,0,24.82.14,37.23,0,1.34-1,3.13,1,4.05,7.7.82,15.41,1.59,23.1,2.49,2.29.26,2.85-.68,3-2.78.49-6.18,1.37-12.33,1.76-18.51a31.34,31.34,0,0,1,5.87-16.3c11.33-16.48,22.25-33.24,33.33-49.89.91-1.22.06-1.31-.88-1.4-5.87-.52-11.88-.45-17.57-1.75-8.12-1.86-11.8,1.43-14.95,8.62a246.19,246.19,0,0,1-15.43,29.83c-3.66-12.41-7.29-24.82-11-37.21-.51-1.71-.4-4.23-3.39-3.89-.09-.54-.11-1.15-.87-1.2-8.27-.49-16.51-1.76-24.82-1.1-3.2.25-.77,1.58-.32,2.5ZM42.84,274.19c6.89-2.65,13.61-5.09,20.2-7.84,2.59-1.08,3.58-.69,4,2.12,1.63,10,3.42,20,5.16,30,2.64,15.12,5.26,30.25,8,45.37.29,1.64.14,3.56,3.19,3.16,8-1.06,16-1.8,24-2.35,3.73-.26,4.06-1.74,3.46-5-4.77-25.9-9.32-51.85-14-77.76-.54-3,.44-3.49,3.16-3.46,7.33.09,14.67-.14,22-.19,1.87,0,2.86-.18,2.2-2.61-1.77-6.52-3.24-13.12-4.79-19.7-.46-2-1.22-2.62-3.51-2.14-6.75,1.4-13.58,2.39-20.38,3.56q-27.28,4.71-54.58,9.4c-1.75.3-2.86.67-2.44,2.89C40,257.63,41.34,265.68,42.84,274.19Z"/><path class="cls-5" d="M167.75,263.41c12.46,1.67,22.6,6.62,27.44,19.21,1.11,2.88,2.46,5.67,3.69,8.51,7,16.16,3.37,32.42-9.83,44.24-16.05,14.36-38.49,15.17-55.92,2.28-2.88-2.13-5-4.76-7.37-7.29-1.86-5.26-5.19-9.88-6.3-15.5-3.1-15.79.88-29.36,12.64-40.33,2.61-2.43,7.65-1.87,8.81-6.52C149.39,263.77,158.22,261.52,167.75,263.41Zm-10.89,52.77c6,2.09,11.23,1,14.86-3.41,4.29-5.22,4.06-10.71.54-16.25-4.63-6-9.75-8-15.56-6.28a12.66,12.66,0,0,0-9.32,11.65C147,308.27,150.4,313.35,156.86,316.18Z"/><path class="cls-4" d="M115.62,304.45c-1.2-6.62-2.5-13.23-3.57-19.88A9.9,9.9,0,0,1,121.84,273h8C121.09,282,116.24,292.21,115.62,304.45Z"/><path class="cls-3" d="M277.82,97.82c-7.37-3.18-13.13-3.52-13.78,6.85-2.62-6.53-1.82-12.56-.2-18.32.89-3.17,3.73-1.69,5.52-.32C273.09,88.92,275.21,93.09,277.82,97.82Z"/><path class="cls-2" d="M168.16,43.15c-.22,1.69-.19,3.72-2.63,3.5-2.13-.19-2.52-2-2.56-3.79-.05-2,1.06-3.43,2.95-3.48C168.45,39.31,167.86,41.6,168.16,43.15Z"/><path class="cls-5" d="M180,392.89c0-5.36.1-10.73,0-16.08-.07-2.43.77-3.17,3.15-3.13,7.48.13,15-.07,22.44.09,7,.15,11.93,4,13,9.91.51,2.87.4,5.87-2.14,7.74-2.33,1.71-1.64,2.9-.31,4.76a37.69,37.69,0,0,1,5.65,13.11c.71,2.88-.22,3.56-2.81,3.32-1.26-.12-2.54,0-3.81,0-3.25,0-7,.93-9.59-.38s-1.38-5.6-2.2-8.49a9.7,9.7,0,0,0-.88-2.38c-1-1.66-2.15-4-4.2-3.48-1.8.46-.84,2.95-.86,4.51-.09,10.22-.05,10.22-10.13,10.22-7.27,0-7.27,0-7.27-7.42Zm17.88-11.55c-2.15,1-.93,3.23-1.15,4.93-.17,1.3,0,2.76,1.93,2.28a3.46,3.46,0,0,0,2.85-4A3.37,3.37,0,0,0,197.85,381.34Z"/><path class="cls-5" d="M151.62,373.65a19.33,19.33,0,0,1,19.6,19.05c.1,10.68-8.76,19.39-19.76,19.4a19.5,19.5,0,0,1-19.8-19.36C131.72,382,140.5,373.6,151.62,373.65Zm3.63,17.67c-.32-2.25-1.7-3.95-4.06-3.72a3.79,3.79,0,0,0-3.52,4.41c.2,2.24,1.51,3.7,3.8,3.58S155.24,394,155.25,391.32Z"/><path class="cls-5" d="M67.25,412.09A34.76,34.76,0,0,1,55.19,410c-2.09-.67-3.23-1.66-2.06-4a8.17,8.17,0,0,0,.4-1.21c2.07-6.41,2.06-6.41,7.82-3.45a7.57,7.57,0,0,0,1.54.69c2,.55,4.61,1.65,5.46-1,.76-2.36-1.76-3-3.65-3.72a21.73,21.73,0,0,1-8-4.64c-4.83-4.69-4.54-11.24.81-15.34,8.11-6.23,19.76-5.08,28.22-1.63,1,.43,1.64,1,.94,2.22-.41.72-.61,1.57-1,2.33-.89,1.91-1.34,4.63-2.85,5.49-1.84,1-3.21-2.05-5.19-2.61-.54-.16-1-.59-1.53-.71-1.87-.42-4.38-1.53-5.2.86s1.73,3.22,3.59,3.74a23.4,23.4,0,0,1,10.25,5.63c4.85,4.73,4.63,10.25-.56,14.55C79.42,411.26,73.68,412.25,67.25,412.09Z"/><path class="cls-5" d="M100.78,401.28v-3.81c0-6.08,0-6.15-6.1-6.88-1.64-.2-2.18-.83-2.16-2.37,0-4.09.08-8.18,0-12.27,0-2,.94-2.33,2.61-2.32,9.59,0,19.18.06,28.76,0,2,0,2.73.74,2.67,2.72-.1,3.66-.18,7.34,0,11,.15,2.73-1,3.62-3.47,3.19-4-.71-4.7,1.3-4.49,4.77.26,4.49,0,9,.09,13.53.06,2.23-.47,3.42-3,3.31-3.94-.15-7.9-.15-11.84,0-2.47.09-3.22-.95-3.1-3.25C100.88,406.36,100.78,403.82,100.78,401.28Z"/><path class="cls-5" d="M222.43,373.65c4.74,0,9.25.13,13.74,0,3.39-.13,4.07,2.68,5.37,4.64,1.83,2.75,3.33,4.27,5.27.25s5.11-5.47,9.58-4.92c3.15.39,6.39.07,10.55.07-3.16,4.78-5.61,9-8.57,12.82a25.46,25.46,0,0,0-5.67,18.32c.54,7.29.12,7.33-7.22,7.33-9.57,0-9.84,0-9.46-9.37a20.48,20.48,0,0,0-4.31-14.05c-3.33-4.34-6.15-9.08-9.17-13.67C222.41,374.83,222.49,374.5,222.43,373.65Z"/><path class="cls-2" d="M74.09,358.61c13.67-1.45,27.33-3,41-4.28,8.06-.75,8.06-.53,6.56-8.46a69.25,69.25,0,0,1-1.16-9.31c1.28,2.72,1.91,5.76,4.56,7.57-2.41.06-2.12,1.65-1.9,3.27.46,3.44,3.1,7.67.93,10-1.76,1.91-6.34,1.29-9.68,1.64-11.64,1.21-23.29,2.26-34.92,3.58C76.13,363,74.06,362.43,74.09,358.61Z"/><path class="cls-2" d="M150.06,356c8.45.32,16.89.81,25.15-1.81,13.17-4.17,23.34-12.15,31.44-23.83v17.22c-3.53-.09-7.07,0-10.58-.32-2.23-.18-3.74,1-5.39,2-12.24,7.71-25.49,10-39.66,7.43C150.67,356.61,150.38,356.21,150.06,356Z"/><path class="cls-5" d="M42.84,274.19c-1.5-8.51-2.85-16.56-4.36-24.59-.42-2.22.69-2.59,2.44-2.89q27.3-4.65,54.58-9.4c6.8-1.17,13.63-2.16,20.38-3.56,2.29-.48,3.05.18,3.51,2.14,1.55,6.58,3,13.18,4.79,19.7.66,2.43-.33,2.59-2.2,2.61-7.34.05-14.68.28-22,.19-2.72,0-3.7.5-3.16,3.46,4.71,25.91,9.26,51.86,14,77.76.6,3.29.27,4.77-3.46,5-8,.55-16,1.29-24,2.35-3,.4-2.9-1.52-3.19-3.16-2.7-15.12-5.32-30.25-8-45.37-1.74-10-3.53-20-5.16-30-.46-2.81-1.45-3.2-4-2.12C56.45,269.1,49.73,271.54,42.84,274.19Z"/><path class="cls-5" d="M220.24,256.63c3-.34,2.88,2.18,3.39,3.89,3.73,12.39,7.36,24.8,11,37.21.16.79.32,1.57.51,2.52,1.5-1,1.76-2.41,2.37-3.59q8.64-16.89,17.23-33.81c.76-1.49,1.24-3.06,3.57-2.82,8.37.89,16.76,1.61,25.15,2.4-11.08,16.65-22,33.41-33.33,49.89a31.34,31.34,0,0,0-5.87,16.3c-.39,6.18-1.27,12.33-1.76,18.51-.16,2.1-.72,3-3,2.78-7.69-.9-15.4-1.67-23.1-2.49.12-12.11.21-24.22.37-36.33,0-1.86.12-3.65-1.53-4.95-4.5-9.94-9-19.89-12.79-30.12-2.11-5.61-4.85-11-7.3-16.46a2.89,2.89,0,0,0-1-2.83l0,.1c-.43-2.7,1.41-2.13,2.91-2Z"/><path class="cls-2" d="M283.48,262.43c-8.39-.79-16.78-1.51-25.15-2.4-2.33-.24-2.81,1.33-3.57,2.82q-8.61,16.9-17.23,33.81c-.61,1.18-.87,2.62-2.37,3.59-.19-.95-.35-1.73-.51-2.52a246.19,246.19,0,0,0,15.43-29.83c3.15-7.19,6.83-10.48,14.95-8.62,5.69,1.3,11.7,1.23,17.57,1.75C283.54,261.12,284.39,261.21,283.48,262.43Z"/><path class="cls-2" d="M215.25,306.14c1.65,1.3,1.55,3.09,1.53,4.95-.16,12.11-.25,24.22-.37,36.33-2-.92-1-2.71-1-4.05C215.29,331,215.86,318.55,215.25,306.14Z"/><path class="cls-2" d="M220.24,256.63l-23.1-1.81c-1.5-.12-3.34-.69-2.91,2-.45-.92-2.88-2.25.32-2.5,8.31-.66,16.55.61,24.82,1.1C220.13,255.48,220.15,256.09,220.24,256.63Z"/><path class="cls-2" d="M194.2,256.73a2.89,2.89,0,0,1,1,2.83A3.79,3.79,0,0,1,194.2,256.73Z"/><path class="cls-2" d="M183.68,256.36c.27.35.43.71,0,1-.05,0-.34-.32-.52-.49A3.78,3.78,0,0,1,183.68,256.36Z"/><path class="cls-4" d="M156.86,316.18c-6.46-2.83-9.82-7.91-9.48-14.29a12.66,12.66,0,0,1,9.32-11.65c5.81-1.76,10.93.3,15.56,6.28,4.14,9.52-1.39,17.43-8.76,19.21C161.37,316.24,159.08,316.05,156.86,316.18Zm3.18-7.61a5.74,5.74,0,0,0,6.2-5.47,5.67,5.67,0,0,0-5.35-5.9,6,6,0,0,0-6.29,5.46A6.1,6.1,0,0,0,160,308.57Z"/><path class="cls-2" d="M156.86,316.18c2.22-.13,4.51.06,6.64-.45,7.37-1.78,12.9-9.69,8.76-19.21,3.52,5.54,3.75,11-.54,16.25C168.09,317.16,162.82,318.27,156.86,316.18Z"/><path class="cls-3" d="M197.85,381.34a3.37,3.37,0,0,1,3.63,3.19,3.46,3.46,0,0,1-2.85,4c-1.89.48-2.1-1-1.93-2.28C196.92,384.57,195.7,382.37,197.85,381.34Z"/><path class="cls-3" d="M155.25,391.32c0,2.67-1.37,4.14-3.78,4.27s-3.6-1.34-3.8-3.58a3.79,3.79,0,0,1,3.52-4.41C153.55,387.37,154.93,389.07,155.25,391.32Z"/><path class="cls-2" d="M160,308.57a6.1,6.1,0,0,1-5.44-5.91,6,6,0,0,1,6.29-5.46,5.67,5.67,0,0,1,5.35,5.9A5.74,5.74,0,0,1,160,308.57Z"/></g></g></svg>